<svg xmlns="http://www.w3.org/2000/svg" xmlns:xlink="http://www.w3.org/1999/xlink" width="102" height="63" viewBox="0 0 102 63">
    <defs>
        <path id="a" d="M0 .156h46.802v51.57H0z"/>
    </defs>
    <g fill="none" fill-rule="evenodd">
        <path fill="#FFF" d="M2.514 46.796C.67 43.736.544 39.851 2.191 36.66L17.745 6.497c1.76-3.413 5.033-5.45 8.756-5.45 3.722 0 6.995 2.037 8.755 5.451L49.45 34.022a10.208 10.208 0 0 0-.913-.711 10.063 10.063 0 0 0-4.632-1.693c-1.376-.14-2.838.008-4.271.45-1.308.403-2.627 1.043-4.03 1.96-2.05 1.336-4.038 3.114-5.713 4.676-.622.582-1.246 1.177-1.877 1.777C22.608 45.63 17.017 50.95 9.49 50.954c-2.84-.003-5.385-1.517-6.977-4.158m49.432-4.892c-.014.322-.048.644-.092.965-.017.122-.032.245-.054.365-.058.342-.133.68-.226 1.015-.036.129-.08.253-.121.381-.084.263-.177.523-.281.778-.04.1-.08.2-.122.298-.165.367-.346.728-.557 1.077l-.025.04c-1.19 1.957-2.903 3.292-4.87 3.844l-.04.012c-.297.082-.603.14-.911.186-.04.006-.075.016-.114.02-.337.045-.68.07-1.026.07H15.368c5.088-1.84 9.274-5.825 13.357-9.714.629-.597 1.252-1.19 1.873-1.77 1.64-1.532 3.587-3.272 5.569-4.566 1.322-.862 2.555-1.463 3.768-1.837a9.974 9.974 0 0 1 2.933-.456 8.998 8.998 0 0 1 5.087 1.566 9.287 9.287 0 0 1 1.934 1.772 9.136 9.136 0 0 1 1.669 3.105c.242.79.368 1.619.392 2.448 0 .078.008.156.006.234-.001.055-.007.11-.01.167m1.034.068c.003-.068.011-.138.014-.208 0-.036.005-.07.006-.105 0-.067-.013-.13-.015-.196a11.475 11.475 0 0 0-1.253-5.285L36.178 6.016C34.236 2.25 30.618 0 26.501 0c-4.118 0-7.736 2.25-9.679 6.016L1.27 36.178c-1.812 3.514-1.675 7.791.358 11.161 1.785 2.96 4.649 4.657 7.86 4.66h.005l.002.001h34.013c.365 0 .723-.028 1.077-.072.132-.016.26-.042.391-.064a8.091 8.091 0 0 0 1.642-.447c.156-.059.31-.115.461-.183.219-.097.43-.21.64-.323.128-.07.257-.14.383-.217.268-.163.528-.341.777-.532.063-.047.121-.099.183-.147.262-.211.514-.436.756-.675l.042-.042c1.511-1.512 2.576-3.562 2.969-5.907l.045-.294c.052-.368.089-.743.107-1.125"/>
        <g transform="translate(55)">
            <mask id="b" fill="#fff">
                <use xlink:href="#a"/>
            </mask>
            <path fill="#FFF" d="M33.466 31.844c-.044-.004-.09-.009-.126-.009-5.465 0-9.91 4.46-9.91 9.943 0 3.905 2.26 7.282 5.535 8.907l-19.2.005c-4.814 0-8.732-3.93-8.732-8.76V9.972c0-4.83 3.918-8.76 8.733-8.76l20.03-.001.192-.01c.111-.005.223-.012.34-.012.113 0 .227.007.34.014l.194.008C39.221 1.505 45.77 8.3 45.77 16.68c0 7.324-5.171 13.69-12.303 15.164m12.106 16.344c-.059.184-.131.36-.22.529-.61 1.18-1.9 1.965-3.32 1.965l-8.654.002h-.038c-4.895 0-8.877-3.996-8.877-8.906 0-4.88 3.93-8.854 8.83-8.9l10.994 11.029.181.21c1.16.998 1.584 2.557 1.104 4.071m1.23-31.508c0-8.941-6.986-16.191-15.9-16.504l-.176-.01a7.5 7.5 0 0 0-.797 0L9.766.177C4.38.176 0 4.571 0 9.973V41.93c0 5.403 4.38 9.798 9.766 9.798h32.267l.517-.008v-.026a4.825 4.825 0 0 0 1.933-.637c.972-.568 1.73-1.467 2.074-2.553.145-.46.224-.921.242-1.376a4.795 4.795 0 0 0-.34-1.967 4.736 4.736 0 0 0-1.13-1.659L34.536 32.66c7.162-1.89 12.266-8.464 12.266-15.98" mask="url(#b)"/>
        </g>
        <path fill="#FFF" d="M70.122 61.42c.04 0 .074.015.101.044l.239.268a3.95 3.95 0 0 1-.573.524 3.523 3.523 0 0 1-.679.399c-.245.11-.514.195-.807.255-.293.06-.615.09-.966.09a3.978 3.978 0 0 1-1.61-.32 3.579 3.579 0 0 1-1.257-.909 4.197 4.197 0 0 1-.815-1.42 5.54 5.54 0 0 1-.293-1.855c0-.667.1-1.277.302-1.827.201-.552.483-1.025.85-1.422a3.781 3.781 0 0 1 1.308-.921A4.225 4.225 0 0 1 67.605 54c.307 0 .588.023.843.072.255.047.494.116.714.204.222.09.43.201.624.334.197.132.388.285.575.46l-.185.28c-.032.05-.082.074-.15.074-.036 0-.082-.021-.137-.065-.056-.044-.127-.097-.213-.162a4.71 4.71 0 0 0-.31-.212 2.537 2.537 0 0 0-.434-.21 3.587 3.587 0 0 0-1.327-.228c-.515 0-.987.092-1.418.277-.43.185-.8.448-1.112.79-.31.342-.552.757-.725 1.244a4.859 4.859 0 0 0-.26 1.638c0 .623.085 1.179.257 1.668.17.49.409.902.711 1.24.302.338.66.597 1.073.778.412.18.86.27 1.343.27.302 0 .572-.02.81-.061a2.942 2.942 0 0 0 1.211-.491c.17-.121.34-.262.507-.423a.343.343 0 0 1 .058-.041.113.113 0 0 1 .062-.016M75.45 59.094h4.024l-1.834-4.043a2.983 2.983 0 0 1-.09-.217 8.485 8.485 0 0 1-.088-.258 5.82 5.82 0 0 1-.179.48l-1.834 4.038zM81.461 62h-.502a.233.233 0 0 1-.146-.042.282.282 0 0 1-.09-.11l-1.058-2.324h-4.414L74.2 61.847a.244.244 0 0 1-.09.108.252.252 0 0 1-.152.045h-.495l3.676-8h.647l3.677 8zM90.501 60.01c.023-.06.046-.12.071-.178a1.49 1.49 0 0 1 .084-.167l3.181-5.557c.031-.05.061-.08.092-.09a.36.36 0 0 1 .126-.018h.407v8h-.516v-6.819c0-.097.006-.2.018-.31l-3.188 5.59c-.054.1-.13.148-.23.148h-.091c-.095 0-.171-.048-.228-.147l-3.274-5.597c.011.11.017.215.017.316V62h-.508v-8h.4c.053 0 .096.005.128.017.033.012.064.041.094.09l3.268 5.564c.057.105.107.219.15.339"/>
    </g>
</svg>
