<svg xmlns="http://www.w3.org/2000/svg" width="593" height="106" viewBox="0 0 593 106">
    <path fill="#0058FF" fill-rule="nonzero" d="M584.264 4.469L571.69 5.676a1.5 1.5 0 1 1-.286-2.987L592.332.681l-9.151 18.928a1.5 1.5 0 1 1-2.701-1.306l5.498-11.372-5.462 3.802a1.5 1.5 0 1 1-1.714-2.462l5.462-3.802zM1.03 4.144a1.5 1.5 0 0 1 1.94-2.288 132.828 132.828 0 0 0 1.963 1.601 240.892 240.892 0 0 0 5.84 4.513 1.5 1.5 0 1 1-1.8 2.4A243.917 243.917 0 0 1 3.058 5.8 135.927 135.927 0 0 1 1.03 4.144zm16.066 12.133a1.5 1.5 0 0 1 1.73-2.451 405.787 405.787 0 0 0 8.214 5.645 1.5 1.5 0 1 1-1.67 2.493 408.775 408.775 0 0 1-8.274-5.687zm16.658 11.165a1.5 1.5 0 0 1 1.614-2.53 470.39 470.39 0 0 0 8.46 5.27 1.5 1.5 0 1 1-1.559 2.564 473.398 473.398 0 0 1-8.515-5.304zm17.142 10.431a1.5 1.5 0 0 1 1.506-2.594 499.83 499.83 0 0 0 8.666 4.917 1.5 1.5 0 0 1-1.454 2.624 502.824 502.824 0 0 1-8.718-4.947zm17.562 9.736a1.5 1.5 0 0 1 1.403-2.652 512.37 512.37 0 0 0 8.856 4.574 1.5 1.5 0 0 1-1.351 2.679 515.37 515.37 0 0 1-8.908-4.6zm17.903 9.028a1.5 1.5 0 0 1 1.299-2.705 515.375 515.375 0 0 0 9.025 4.227 1.5 1.5 0 1 1-1.246 2.73 518.415 518.415 0 0 1-9.078-4.252zm18.244 8.33a1.5 1.5 0 0 1 1.193-2.753 512.687 512.687 0 0 0 9.192 3.878 1.5 1.5 0 0 1-1.14 2.775 515.662 515.662 0 0 1-9.245-3.9zm18.556 7.616a1.5 1.5 0 1 1 1.085-2.797c3.095 1.2 6.208 2.372 9.339 3.516a1.5 1.5 0 0 1-1.03 2.818c-3.15-1.15-6.28-2.33-9.394-3.537zm18.85 6.885a1.5 1.5 0 1 1 .974-2.837 498.74 498.74 0 0 0 9.47 3.142 1.5 1.5 0 1 1-.916 2.857 501.627 501.627 0 0 1-9.527-3.162zm19.072 6.118a1.5 1.5 0 0 1 .859-2.874c3.18.95 6.373 1.869 9.579 2.756a1.5 1.5 0 0 1-.8 2.891 492.895 492.895 0 0 1-9.638-2.773zm19.35 5.353a1.5 1.5 0 0 1 .74-2.907c3.219.82 6.449 1.607 9.69 2.361a1.5 1.5 0 0 1-.68 2.922 483.86 483.86 0 0 1-9.75-2.376zm19.534 4.546a1.5 1.5 0 0 1 .618-2.936c3.246.684 6.502 1.335 9.766 1.952a1.5 1.5 0 0 1-.556 2.947 475.384 475.384 0 0 1-9.828-1.963zm19.73 3.724a1.5 1.5 0 1 1 .493-2.959 464.61 464.61 0 0 0 9.844 1.534 1.5 1.5 0 1 1-.43 2.97c-3.31-.48-6.613-.995-9.908-1.545zm19.873 2.878a1.5 1.5 0 1 1 .366-2.977c3.293.404 6.593.773 9.9 1.107a1.5 1.5 0 1 1-.301 2.985c-3.329-.336-6.65-.707-9.965-1.115zm19.933 2.01a1.5 1.5 0 0 1 .236-2.991c3.31.26 6.627.485 9.948.674a1.5 1.5 0 1 1-.17 2.995c-3.343-.19-6.681-.416-10.014-.678zm20.055 1.135a1.5 1.5 0 1 1 .103-2.998c3.316.114 6.636.192 9.962.232a1.5 1.5 0 1 1-.037 3 452.02 452.02 0 0 1-10.028-.234zm20.066.245a1.5 1.5 0 1 1-.03-3c3.318-.033 6.64-.103 9.965-.21a1.5 1.5 0 1 1 .097 2.998c-3.348.108-6.692.179-10.032.212zm20.065-.649a1.5 1.5 0 0 1-.164-2.995c3.312-.181 6.627-.4 9.945-.655a1.5 1.5 0 0 1 .23 2.99c-3.34.258-6.677.478-10.01.66zm20.011-1.542a1.5 1.5 0 0 1-.297-2.986c3.298-.328 6.598-.694 9.9-1.096a1.5 1.5 0 0 1 .364 2.977 451.77 451.77 0 0 1-9.967 1.105zm19.958-2.437a1.5 1.5 0 1 1-.43-2.969c3.283-.474 6.566-.986 9.852-1.536a1.5 1.5 0 1 1 .494 2.96 455.587 455.587 0 0 1-9.916 1.545zm19.757-3.302a1.5 1.5 0 0 1-.559-2.947 458.542 458.542 0 0 0 9.775-1.965 1.5 1.5 0 1 1 .623 2.934c-3.28.697-6.56 1.356-9.839 1.978zm19.616-4.164a1.5 1.5 0 1 1-.686-2.92 466.505 466.505 0 0 0 9.681-2.385 1.5 1.5 0 0 1 .749 2.905 469.551 469.551 0 0 1-9.744 2.4zm19.436-5.006a1.5 1.5 0 1 1-.81-2.89c3.19-.893 6.38-1.824 9.57-2.79a1.5 1.5 0 1 1 .87 2.87c-3.21.974-6.42 1.91-9.63 2.81zm19.222-5.824a1.5 1.5 0 0 1-.929-2.853 489.007 489.007 0 0 0 9.445-3.184 1.5 1.5 0 0 1 .988 2.833 492.023 492.023 0 0 1-9.504 3.204zm18.922-6.592a1.5 1.5 0 0 1-1.044-2.813 503.419 503.419 0 0 0 9.316-3.563 1.5 1.5 0 0 1 1.099 2.792 506.437 506.437 0 0 1-9.371 3.584zm18.643-7.34a1.5 1.5 0 1 1-1.153-2.77 520.09 520.09 0 0 0 9.168-3.922 1.5 1.5 0 1 1 1.206 2.747 522.952 522.952 0 0 1-9.22 3.944zm18.394-8.078a1.5 1.5 0 1 1-1.258-2.723 538.779 538.779 0 0 0 9.016-4.267 1.5 1.5 0 1 1 1.308 2.7 541.689 541.689 0 0 1-9.066 4.29zm18.065-8.752a1.5 1.5 0 1 1-1.357-2.676 559.576 559.576 0 0 0 8.854-4.59 1.5 1.5 0 1 1 1.405 2.65 562.573 562.573 0 0 1-8.902 4.616zm17.712-9.383a1.5 1.5 0 1 1-1.45-2.626 582.633 582.633 0 0 0 8.689-4.899 1.5 1.5 0 1 1 1.495 2.601 585.5 585.5 0 0 1-8.734 4.924zm17.338-9.967a1.5 1.5 0 0 1-1.538-2.576 607.536 607.536 0 0 0 8.521-5.186 1.5 1.5 0 1 1 1.58 2.55 610.556 610.556 0 0 1-8.563 5.212zm17.06-10.574a1.5 1.5 0 0 1-1.622-2.524c2.786-1.79 5.57-3.61 8.351-5.459a1.5 1.5 0 1 1 1.661 2.498 637.641 637.641 0 0 1-8.39 5.485z"/>
</svg>
