<svg xmlns="http://www.w3.org/2000/svg" width="175" height="264" viewBox="0 0 175 264">
    <g fill="none" fill-rule="evenodd">
        <path fill="#0058FF" d="M16.917 43.534c.746.633 2.137 1.02 4.007 1.196.79.069 1.651.102 2.588.11 12.115.033 36.6 15.105 51.923 17.143-.674 4.8-1.708 9.419-6.038 12.365-13.187 8.967-36.256 14.78-29.642 25.408 1.076 1.745 2.826 3.33 5.093 4.822 5.613 3.747 14.352 7.003 23.602 11.165l.032.015c.098-2.225.536-4.864 1.791-7.145 9.633 2.784 4.691 8.784 15.883 14.212l-1.542 1.126-.214.159c.536.338 1.062.674 1.585 1.027.485.32.97.646 1.45.99.49.337.977.69 1.456 1.042.565.413 1.119.833 1.662 1.266l.447.37c.233.188.443.353.635.515.187.143.371.302.556.462l.369.311.229.204.03.031.129.114c.232.187.462.39.68.6.359.318.708.64 1.055.973.431.409.85.824 1.27 1.249 3.33 3.38 6.115 5.77 8.426 7.4.198.137.394.274.585.4.198.137.382.254.574.372 1.117.712 2.112 1.236 3 1.608 6.485 2.724 7.36-2.656 7.36-2.656s6.008-12.917 9.418-29.833c1.712-8.47 2.716-11.711 4.911-16.7.006.189.055.43.148.723 1.58 5.349 16.004 27.846 22.69 36.764.82 1.11 1.605 2.032 2.358 2.716.801.755 1.56 1.235 2.242 1.392 6.683 1.494 7.81-2.652 7.81-2.652l.004-.11a42.969 42.969 0 0 0-.177-2.865c-2.22-25.306-28.368-66.016-28.368-66.016l-.006-.01a27.01 27.01 0 0 0-1.732-3.69c-1.02-1.802-2.562-3.298-4.45-4.657-3.07-2.195-7.07-3.996-11.32-6.029-3.436-1.65-6.781-3.736-10.969-5.15-2.424-.816-72.697-20.306-90.524-10.475-.785.435-1.528.88-2.279 1.324-.342.216-.694.43-1.03.656 0 0-2.81 3.294 2.293 7.758"/>
        <path fill="#06356D" d="M70.52 235.8s3.486 12.518-4.118 24.437c-7.603 11.918-12.793-10.328-9.162-16.722 3.63-6.395 4.23-9.555 4.23-9.555l9.05 1.84"/>
        <path fill="#FF3B88" d="M154.064 134.128c1.195.743 2.285 1.326 3.255 1.71 1.046.427 1.945.613 2.637.524 6.887-.897 6.401-5.135 6.401-5.135l-.05-.108c-.38-.855-.788-1.72-1.239-2.585l-.098.017c-4.748.828-8.66 2.946-10.906 5.577M18.548 43.094c.834.665 2.376 1.093 4.413 1.327.87.097 1.82.163 2.853.198.81-2.97-.623-6.703-3.98-9.507a14.584 14.584 0 0 0-2.499-1.684 63.02 63.02 0 0 0-2.443 1.242c-.377.208-.754.407-1.113.618 0 0-2.976 3.191 2.769 7.806"/>
        <path fill="#D3C090" d="M110.078 44.595l-1.29 7.986 3.171 3.562.42.473a8.18 8.18 0 0 0 5.582 2.705l.694.048 4.844.314 8.496-4.143c-3.018-2.145-6.953-3.905-11.126-5.899-3.381-1.615-6.667-3.656-10.791-5.046"/>
        <path fill="#423FE0" d="M16.122 195.345c.23.341.485.654.765.93 2.157 2.132 5.692 2.31 8.3.802a6.53 6.53 0 0 0 3.18-4.434c.075-.361.122-.72.139-1.111.211-4.215 1.983-23.885 3.973-38.816l.002-.009c.264-2.034.535-3.973.806-5.774.435-2.82.863-5.3 1.293-7.256.544-2.548 1.071-4.183 1.552-4.48 2.82-1.71 12.842 5.821 30.376 5.898.555.001 1.103-.008 1.659-.05-3.726 5.439-7.439 10.994-10.817 15.805-1.274 1.807-2.231 4.153-2.923 6.893l-.004.016c-5.535 21.886 5.584 68.96 6.409 71.814.93 3.22 3.614 6.163 9.743 3.175 2.349-1.144 3.475-10.33 4.86-21.93 2.23-18.746 5.143-43.783 14.945-51.296 10.245-7.854 16.7-17.304 19.99-23.01-.898-.376-1.901-.903-3.03-1.62a10.341 10.341 0 0 1-.578-.374c-.193-.127-.391-.265-.59-.403-2.334-1.64-5.146-4.043-8.51-7.442a54.543 54.543 0 0 0-1.281-1.256c-.35-.334-.703-.66-1.065-.978-.231-.205-.454-.408-.687-.604l-.13-.114-.03-.032-.232-.205-.373-.313c-.126-.095-.25-.2-.376-.304l-.184-.16c-.195-.163-.407-.33-.641-.518l-.452-.372a50.94 50.94 0 0 0-1.678-1.274c-.483-.354-.975-.71-1.47-1.049a45.993 45.993 0 0 0-1.463-.995c-.528-.356-1.068-.696-1.6-1.035l.216-.158 1.553-1.129c-11.294-5.467-6.32-11.484-16.037-14.293-1.263 2.288-1.7 4.937-1.796 7.172l-.032-.016c-9.334-4.192-18.151-7.474-23.817-11.245-3.456.234-7.947.629-12.63 1.247h-.037c-8.998 1.172-18.675 3.165-22.921 6.485a7.943 7.943 0 0 0-1.104 1.028c-14.908 17.18 3.52 77.96 6.727 82.79"/>
        <path fill="#3B38CD" d="M32.528 152.01c.571-2.606 3.158-16.736 3.625-17.049 2.744-1.795 13.079 6.89 29.922 6.63.534-.01 1.061-.031 1.596-.085 0 0 9.424-16.003 3.31-12.83-21.728 11.28-23.032 1.657-29.205 1.199-9.24-.685-8.912 5.9-10.369 21.615l1.121.52zM74.608 183.693c2.927 17.186.544 34.545.544 34.545l.13-.093c2.253-18.975 5.197-44.317 15.126-51.919 10.377-7.946 16.915-17.51 20.245-23.285-1.206-.506-2.625-1.283-4.254-2.428-2.364-1.66-5.214-4.094-8.623-7.536a48.464 48.464 0 0 0-3.075-2.873c2.15 2.022 10.468 11 1.063 21.216-10.699 11.617-24.073 15.187-21.156 32.373M70.007 240.711c-15.92-6.533-9.845-98.23-15.419-76.104-5.574 22.127 4.517 69.943 5.381 72.837.976 3.266 3.752 6.259 10.038 3.267z"/>
        <path fill="#004BD9" d="M121.327 58.133l1.016 5.694 9.654-5.66-.638-4.132-10.032 4.098M110.141 52.214l-4.013 2.065 1.574-10.21 3.802-.695-1.363 8.84"/>
        <path fill="#3B38CD" d="M15.757 195.31c1.958 2.976 6.039 3.415 8.96 1.701l-.009-.002C13.83 194.824-.62 145.455 7.554 126.932c8.174-18.523 2.893-15.258 2.893-15.258a7.957 7.957 0 0 0-1.095 1.03c-14.797 17.19 3.248 77.794 6.405 82.606"/>
        <path fill="#06356D" d="M.876 217.28c3.674 2.736 26.52-13.342 30.068-17.005 3.562-3.67-3.64-10.126-3.64-10.126-.543 2.68-2.139 4.656-4.165 5.84-3.404 1.991-5.327 2.403-8.133-.393 0 0-17.793 18.962-14.13 21.684"/>
        <path fill="#FF3B88" d="M71.394 108.16c9.687 2.797 4.673 8.976 15.914 14.474 3.15-1.987 4.725-4.138 6.912-7.436 3.058-4.602 5.473-9.605 7.612-14.677 1.975-4.685 3.813-9.445 5.163-14.353 1.043-3.782 1.623-7.664 2.327-11.519.676-3.676 2.161-6.793 4.167-9.965a58.407 58.407 0 0 1 3.723-5.212c.194-.24 1.337-2.018 1.688-2.004l-.707-.046a8.095 8.095 0 0 1-5.706-2.798l-.424-.495s-5.03 2.116-11.148 15.51c-8.88 19.54-15.81 21.143-24.72 31.008-1.499 1.658-4.3 4.895-4.8 7.513"/>
        <path fill="#004BD9" d="M106.934 141.973a20.61 20.61 0 0 0 2.647 1.371c6.538 2.728 7.382-2.57 7.382-2.57s5.955-12.693 9.272-29.346c1.665-8.338 2.652-11.527 4.827-16.43 0 0-2.826-5.228-7.544 6.35s-2.925 43.922-16.584 40.625M25.511 44.184c11.717.117 35.502 14.551 50.336 16.588 0 0 6.216-2.985 3.444-5.95-2.771-2.972-15.11 3.31-30.151-5.696-15.032-9.003-23.629-4.942-23.629-4.942"/>
        <path fill="#3B38CD" d="M34.16 105.233c.788-.062 12.728-.767 24.466 8.321 12.138 9.397 10.598 6.176 15.437 4.607 2.5-.809 7.438 1.923 11.794 4.901l1.507-1.06c-11.08-5.297-6.273-10.976-15.79-13.732-1.214 2.165-1.618 4.68-1.692 6.805l-.031-.015c-9.155-4.069-17.796-7.267-23.364-10.902-3.374.192-7.758.528-12.327 1.075"/>
        <path fill="#FFC493" d="M172.456 130.786c-2.569 1.341-6.907-.555-7.604-.526l-.037-.009c-1.575-.394-3.666 1.582-6.615 4.915l-.072.086a3.079 3.079 0 0 0-.68 2.377c.532 4.008 2.101 14.08 4.85 14.944 3.344 1.05 8.639-3.386 8.423-6.046-.126-1.668-1.166-6.807-2.246-10.694.604-1.805 1.232-.44 4.33-.957 1.858-.318 2.3-2.237 1.781-3.41-.338-.774-1.09-1.226-2.13-.68"/>
        <path fill="#DB9F6D" d="M172.456 130.786c-2.569 1.341-6.907-.555-7.604-.526l-.037-.009c-1.575-.394-3.666 1.582-6.615 4.915 5.004-5.573 8.5-3.21 10.534-2.838 2.933.536 5.852-.862 5.852-.862-.338-.774-1.09-1.226-2.13-.68"/>
        <path fill="#FFC493" d="M22.525 40.857c-.64.904-1.088 1.667-1.307 1.839-.37.29-.378.3-.023.03-.345.488-.97.784-1.852.939-1.503.264-3.753.115-6.639-.204l-.114-.015a3.237 3.237 0 0 1-2.174-1.292c-2.376-3.273-8.17-11.652-6.66-14.08 1.835-2.952 8.98-3.173 10.663-1.09 1.063 1.3 3.834 5.731 5.707 9.275 1.717.923 1.251-.483 3.988-2.13 1.646-.983 3.318.13 3.735 1.325.279.786.016 1.608-1.162 1.889-1.755.423-3.184 2.132-4.162 3.514z"/>
        <path fill="#DB9F6D" d="M26.687 37.343c-2.903.7-4.914 4.919-5.469 5.353l-.023.03c-.934 1.318-3.911 1.241-8.49.735 7.712.799 8.753-3.21 10.055-4.812 1.878-2.308 5.089-3.195 5.089-3.195.279.786.016 1.608-1.162 1.889"/>
        <path fill="#FFC493" d="M115.038 34.74c-.785 3.948-3.024 9.128-2.679 12.732.387 4.055 3.23 7.194 6.204 8.774 3.32 1.764 8.114.52 11.162-1.09 2.061-1.087 5.056-5.13 8.163-11.024 4.743-9.003 3.102-18.166-4.08-21.434-7.183-3.267-16.787 2.062-18.77 12.042"/>
        <path fill="#06356D" d="M117.96 23.728c-.106.739-.007 1.52.24 2.246-1.363 2.457-2.402 5.073-3.282 7.738-.228.671-.096 1.778.37 2.357.67-.943 1.442-2.22 2.201-3.094 1.134-1.318 2.155-2.336 3.262-3.673l.16-.205c1.27.663 2.736.897 4.102 1.356 3.81 1.276 6.694 4.26 9.365 7.157.854.92 1.713 1.854 2.768 2.543.69.454 1.48.513 2.28.432-.343 1.225-.6 2.354-.972 3.642-.318 1.11-1.435 2.658-1.85 3.73.753.037 2.232-.699 2.674-1.254 2.176-2.726 4.17-5.61 5.601-8.755.39-.846 1.02-2.694 1.166-3.959.327-.174.628-.376.84-.676.24-.323.35-.716.436-1.106.582-2.828-.506-5.87-2.402-8.237-1.895-2.366-4.505-4.139-7.23-5.612-2.018-1.104-4.155-2.073-6.42-2.551-2.265-.48-4.678-.436-6.75.414-1.918.783-3.444 2.205-4.695 3.762-.885 1.11-1.669 2.353-1.865 3.745"/>
        <g transform="translate(98.101 .712)">
            <ellipse cx="32.402" cy="30.975" fill="#29C6EB" opacity=".282" rx="32.402" ry="30.975"/>
            <path fill="#AEEEFE" d="M24.97 4.4c-1.138 3.398-5.726.793-12.566 11.26-6.841 10.467-6.841 14.976-9.01 18.434-2.298 3.662.432-10.755 7.092-20.479C16.252 5.197 26.04 1.21 24.971 4.401z"/>
        </g>
    </g>
</svg>
