<svg xmlns="http://www.w3.org/2000/svg" xmlns:xlink="http://www.w3.org/1999/xlink" width="142" height="151" viewBox="0 0 142 151">
    <defs>
        <path id="a" d="M0 .294h15.29v13.148H0z"/>
        <path id="c" d="M.13.6h17.898v10.43H.131z"/>
    </defs>
    <g fill="none" fill-rule="evenodd">
        <path fill="#ECEEFA" d="M80.25 137.082c18.35 0-4.937-27.74 47.312-19.026 52.25 8.714-56.908-47.413-17.862-52.201 55.546-6.813.729-34.65-38.338-49.01-14.415-5.3-45.969-22.532-59.616-5.261-13.647 17.27 50.025 60.702 0 56.763-38.107-3 30.67 68.735 68.505 68.735z"/>
        <g transform="translate(20.517 .082)">
            <ellipse cx="55.274" cy="144.485" fill="#EDF1F4" rx="55.274" ry="5.515"/>
            <g transform="translate(16.433 130.111)">
                <mask id="b" fill="#fff">
                    <use xlink:href="#a"/>
                </mask>
                <path fill="#06356D" d="M4.929.622L-.001 5.18s4.883 8.477 5.921 8.258c1.04-.22 9.405-1.439 9.37-2.092-.034-.655-1.27-.76-2.103-1.105-.833-.345-2.44-1.218-2.057-2.06.385-.843 1.372-2.043 1.372-2.043L5.962.294 4.929.622z" mask="url(#b)"/>
            </g>
            <path fill="#322FB5" d="M36.87 72.661l1.568 33.909-17.076 24.164 7.115 7.149 20.015-27.203c.514-.698.76-1.553.694-2.413L48.14 94.628s-1.112-22.467-11.27-21.967"/>
            <path fill="#423FE0" d="M56.631 66.746v6.416c0 2.314 21.915 62.697 21.915 62.697l-9.274 5.214-26.45-58.135s-9.378-5.88-4.68-14.03c4.7-8.149 20.483-2.162 20.483-2.162H56.63z"/>
            <path fill="#FFC493" d="M52.969 10.148v1.027a.422.422 0 0 1-.005.055c-.045.395-.57 4.91-.623 5.034-.039.089.25 1.07.45 1.72.09.299-.118.602-.431.631l-.477.043a.5.5 0 0 0-.434.359c-.274.967-1.092 3.764-1.424 3.784-.124.009-.872-.316-1.86-.784-2.191-1.04-5.556-2.786-5.852-3.167-.212-.275-.73-.972-1.22-1.622-.498-.664-.965-1.278-1.036-1.331-.125-.093-.724-1.238-.878-1.537a.467.467 0 0 1-.05-.152l-.535-3.604a.49.49 0 0 1 .267-.509l2.858-1.421a.498.498 0 0 1 .228-.053c.477.004 2.221.021 2.395 0 .184-.025 2.427.285 2.78.335.033.005.06.011.092.022.29.101 1.905.658 2.269.803.328.129 2.232.01 2.908-.036a.5.5 0 0 1 .404.163c.086.095.174.202.174.24"/>
            <path fill="#FFC493" d="M48.165 22.017v.002c-.623-.282-1.113.166-1.456.709-.37.588-.568 1.288-.568 1.288L39.6 21.17l1.495-3.942c.489.65 1.007 1.348 1.22 1.622.114.15.701.508 1.505.954l.002.001c.002 0 .002.003.006.005a88.7 88.7 0 0 0 4.338 2.208"/>
            <path fill="#DB9F6D" d="M48.165 22.017v.002c-.623-.282-1.113.166-1.456.709-.247-.709-2.727-2.79-2.882-2.92a88.7 88.7 0 0 0 4.338 2.209M53.087 10.86s-.349 1.029-.857 1.108c-.51.08-6.749-.628-7.499-.158-.749.47-1.113 1.335-1.113 1.335l.552-3.944 3.996.71 4.92.95z"/>
            <path fill="#06356D" d="M43.617 13.146s.115-2.636-.723-2.742c-.838-.105-3.466.14-2.819 1.792.648 1.653.761 2.707 1.219 2.707.457 0 .504 1.3.504 1.3s-.528 2.116-.847 2.18c-.32.063-.761.14-1.352.422-.59.28-8.59-5.905-2.61-11.459 0 0 1.561-7.102 8.766-5.413 9.447 2.215 10.89.211 11.841-1.933 0 0 2.552 11.933-4.628 11.204-7.18-.73-7.789-.905-8.17-.483-.38.421-1.18 2.425-1.18 2.425"/>
            <path fill="#0058FF" d="M38.542 23.374c.924.28 9.61 2.773 9.913 3.092.302.32 6.504 17.378 6.809 20.225.304 2.847 4.084 16.26 3.437 16.014-.648-.247-11.922-1.864-18.664 2.073 0 0-.953.81-1.715 0-.76-.808-1.104-2.636 0-4.464 0 0 .192-2.354-.342-4.112-.533-1.758-4.038-13.11-2.971-19.331 1.067-6.221 1.943-11.6 1.943-11.6s.666-2.178 1.59-1.897z"/>
            <g transform="translate(69.466 135.258)">
                <mask id="d" fill="#fff">
                    <use xlink:href="#c"/>
                </mask>
                <path fill="#06356D" d="M7.65.6s1.525 3.123 5.932 2.81c4.408-.312 3.42-.333 3.898.108.478.44.64 1.17.5 1.279-.14.11-15.968 6.607-16.426 6.215C1.095 10.622.07 8.467.134 8.16c.064-.306.125-2.815.085-3.703-.041-.888 2.186-2.239 3.377-2.323C4.788 2.051 7.649.601 7.649.601" mask="url(#d)"/>
            </g>
            <path fill="#FF3B88" d="M38.143 23.4s.828-3.524 1.056-3.365c.229.158 7.942 3.314 7.942 3.314s.457.218.342.666c-.114.448-.557 1.88-.557 1.88l-8.783-2.496zM39.047 65.136s-2.169 3.825 1.677 3.772c0 0 15.673-3.638 17.9-2.162 0 0 3.352-1.493.077-4.042-3.276-2.548-16.834-.445-19.654 2.432"/>
            <path fill="#004BD9" d="M48.426 60.32l-.454-2.714 1.977-22.865a2.93 2.93 0 0 0-2.184-2.888c-1.84-.49-4.703 1.714-5.047 4.652-.573 4.901-.115 22.533-.115 22.533l4.092 2.435c.84.5 1.89-.2 1.731-1.154"/>
            <path fill="#004BD9" d="M43.962 28.479s4.293.104 4.877 2.918c.585 2.814-1.58 26.408-1.576 27.125.003.718 5.596 21.247 5.677 21.605.079.358-4.71 2.952-5.348 2.806-.638-.147-9.71-18.378-9.908-21.274-.2-2.896.807-19.192.828-19.602.02-.41 1.138-8.553 1.448-9.275.31-.722.87-4.267 4.002-4.303"/>
            <path fill="#FFC493" d="M54.48 83.135s.654 1.878 1.359 2.37c.705.492 1.77 1.76 2.228 2.018.457.258.851 1.101.245 1.55-.417.308-1.38-.581-1.722-.461-1.327.463.907 5.069 1.021 6.029.114.96.162 1.575-.35 1.543-.512-.033-2.788-.656-4.135-1.528-1.163-.753-4.31-2.103-4.603-3.951-.382-2.405-.382-5.42-.382-5.42s3.38-3.577 6.338-2.15"/>
            <path fill="#FF3B88" d="M47.26 81.68c-.1.052-.882.448-.845.908.037.46 1.6 2.824 1.726 2.698.126-.127 5.001-2.546 6.338-2.151.201-.105 1.113-.474.66-1.264-.454-.79-1.625-2.188-2.011-2.336-.386-.148-5.868 2.145-5.868 2.145"/>
        </g>
    </g>
</svg>
