<?xml version="1.0" encoding="UTF-8"?>
<svg width="230px" height="170px" viewBox="0 0 230 170" version="1.1" xmlns="http://www.w3.org/2000/svg" xmlns:xlink="http://www.w3.org/1999/xlink">
    <!-- Generator: Sketch 54.1 (76490) - https://sketchapp.com -->
    <title>basic</title>
    <desc>Created with Sketch.</desc>
    <defs>
        <polygon id="path-1" points="0 0.331455392 17.3570747 0.331455392 17.3570747 15.1443713 0 15.1443713"></polygon>
        <polygon id="path-3" points="0.148569678 0.676662745 20.4645357 0.676662745 20.4645357 12.4263796 0.148569678 12.4263796"></polygon>
    </defs>
    <g id="basic" stroke="none" stroke-width="1" fill="none" fill-rule="evenodd">
        <g id="Group-65">
            <path d="M125.552827,155 C146.18316,155 120.00138,123.714618 178.745205,133.542629 C237.48903,143.370641 114.763772,80.069312 158.662811,74.6686303 C221.112708,66.9857282 159.481993,35.5902228 115.558989,19.3940238 C99.3524967,13.4180307 63.8768516,-6.01679386 48.5335638,13.4609037 C33.1902761,32.9386012 104.776014,81.9223819 48.5335638,77.4795996 C5.68968047,74.0952157 83.0162626,155 125.552827,155 Z" id="Oval" fill="#ECEEFA"></path>
            <g id="Group-49" transform="translate(57.000000, 1.000000)">
                <ellipse id="Oval" fill="#EDF1F4" cx="62.7434389" cy="162.786765" rx="62.7434389" ry="6.21323529"></ellipse>
                <g id="Group-41" transform="translate(18.653455, 0.000000)">
                    <g id="Group-5" transform="translate(0.000000, 146.591760)">
                        <mask id="mask-2" fill="white">
                            <use xlink:href="#path-1"></use>
                        </mask>
                        <g id="Clip-4"></g>
                        <path d="M5.59510377,0.700935784 L-8.4788431e-05,5.83638186 C-8.4788431e-05,5.83638186 5.54168706,15.3865387 6.72024625,15.1396662 C7.89965332,14.8927936 17.3959576,13.5192544 17.3569549,12.7827789 C17.3179522,12.045475 15.9155516,11.9270093 14.9693127,11.538475 C14.0230738,11.1499407 12.1984268,10.1657642 12.6342393,9.21638186 C13.0708997,8.26782794 14.1918028,6.91499951 14.1918028,6.91499951 L6.76772777,0.331455392 L5.59510377,0.700935784 Z" id="Fill-3" fill="#06356D" mask="url(#mask-2)"></path>
                    </g>
                    <path d="M23.1998953,81.8652569 L24.9787566,120.06837 L5.59527335,147.29311 L13.6722193,155.347948 L36.3912794,124.699301 C36.9746238,123.91312 37.2535777,122.949654 37.1789639,121.980389 L35.9927737,106.614644 C35.9927737,106.614644 34.730274,81.3010951 23.1998953,81.8652569" id="Fill-6" fill="#322FB5"></path>
                    <path d="M45.6306747,75.2010235 C45.6306747,75.2010235 45.6306747,79.8220473 45.6306747,82.4289216 C45.6306747,85.0357958 70.5067524,153.067774 70.5067524,153.067774 L59.9794209,158.94218 L29.9558374,93.4439108 C29.9558374,93.4439108 19.3098021,86.8189451 24.6438422,77.6366118 C29.9778824,68.4551069 47.8936779,75.2010235 47.8936779,75.2010235 C46.3850091,75.2010235 45.6306747,75.2010235 45.6306747,75.2010235 Z" id="Fill-8" fill="#423FE0"></path>
                    <path d="M41.4732435,11.4335956 L41.4732435,12.5909142 C41.4732435,12.611625 41.4706999,12.6331642 41.4681562,12.6522181 C41.4172832,13.0970858 40.8212205,18.1836544 40.7610207,18.3236593 C40.7169307,18.4238995 41.045062,19.5306838 41.2714471,20.2630172 C41.3731932,20.5985319 41.1374814,20.9398456 40.7822178,20.9729828 L40.2404198,21.0210319 C40.0072516,21.0450564 39.8122382,21.2032868 39.7486469,21.4253064 C39.4374733,22.5155221 38.5081921,25.6660466 38.1317315,25.6892426 C37.9909827,25.6991838 37.1422505,25.3330172 36.0204995,24.8061348 C33.532807,23.6347328 29.7130882,21.6672083 29.377326,21.2372525 C29.1365268,20.9282475 28.5480951,20.1420662 27.9935788,19.4097328 C27.4271921,18.6616593 26.8972644,17.9699191 26.8167154,17.9102721 C26.6751187,17.8058897 25.9942676,16.5160221 25.8196034,16.1788505 C25.7899275,16.124174 25.7729698,16.0670123 25.7636431,16.0073652 L25.15571,11.947223 C25.1217946,11.7111201 25.2430421,11.4808162 25.4592526,11.3739485 L28.703258,9.77259069 C28.783807,9.73199755 28.8711391,9.71294363 28.9618627,9.71294363 C29.5036607,9.71791422 31.4834706,9.73696814 31.6801798,9.71294363 C31.8896072,9.68477696 34.4358038,10.034375 34.8368531,10.0907083 C34.8733121,10.0956789 34.9046838,10.1031348 34.9411428,10.1147328 C35.2692741,10.2290564 37.1032478,10.8561789 37.5161675,11.0202083 C37.8883887,11.1651838 40.0504937,11.0318064 40.8169811,10.9796152 C40.9891016,10.9680172 41.1595264,11.0342917 41.2765344,11.1626985 C41.3731932,11.2695662 41.4732435,11.3905172 41.4732435,11.4335956" id="Fill-10" fill="#FFC493"></path>
                    <path d="M36.0208387,24.8058034 L36.0208387,24.8082887 C35.3137032,24.4901711 34.7566432,24.9955142 34.3674643,25.6068966 C33.9469137,26.2696417 33.7230722,27.0583083 33.7230722,27.0583083 L26.2964536,23.8506221 L27.9939179,19.4094015 C28.5484343,20.1417348 29.136866,20.9279162 29.3776651,21.2369211 C29.5082393,21.4059211 30.1746764,21.8093672 31.0869999,22.3113966 L31.0895436,22.3130534 C31.0920872,22.3130534 31.0920872,22.3155387 31.0963266,22.318024 C32.5114455,23.0926074 34.5107567,24.0958377 36.0208387,24.8058034" id="Fill-12" fill="#FFC493"></path>
                    <path d="M36.0208387,24.8058034 L36.0208387,24.8082887 C35.3137032,24.4901711 34.7566432,24.9955142 34.3674643,25.6068966 C34.0876625,24.8082887 31.2718387,22.4629995 31.0963266,22.318024 C32.5114455,23.0926074 34.5107567,24.0958377 36.0208387,24.8058034" id="Fill-14" fill="#DB9F6D"></path>
                    <path d="M41.6069549,12.2365941 C41.6069549,12.2365941 41.2118408,13.3947412 40.6344316,13.4842118 C40.0561745,13.5736824 32.9737969,12.7767314 32.122521,13.306099 C31.2720931,13.8346382 30.8583255,14.8105304 30.8583255,14.8105304 L31.484912,10.3659961 L36.0210931,11.1670892 L41.6069549,12.2365941 Z" id="Fill-16" fill="#DB9F6D"></path>
                    <path d="M30.8581559,14.8108618 C30.8581559,14.8108618 30.9878822,11.8409353 30.036556,11.7216412 C29.0852298,11.6031755 26.1023728,11.8798716 26.8374885,13.7413569 C27.5726042,15.6028422 27.7014826,16.7908127 28.2203878,16.7908127 C28.739293,16.7908127 28.7927098,18.2563078 28.7927098,18.2563078 C28.7927098,18.2563078 28.1941034,20.6397049 27.8312089,20.71095 C27.4683145,20.7830235 26.9672148,20.8691804 26.2965383,21.1864696 C25.6267097,21.5029304 16.5467167,14.5341657 23.3348785,8.27702353 C23.3348785,8.27702353 25.1061088,0.275204902 33.2848008,2.17811176 C44.0079937,4.67334706 45.6452583,2.41587157 46.7263108,0.000165686274 C46.7263108,0.000165686274 49.6226836,13.4447784 41.4728196,12.6229745 C33.3229556,11.8011706 32.631082,11.6031755 32.198661,12.0786951 C31.76624,12.5533863 30.8581559,14.8108618 30.8581559,14.8108618" id="Fill-18" fill="#06356D"></path>
                    <path d="M25.0969516,26.3345078 C26.1457845,26.6509686 36.0058312,29.459351 36.3492243,29.8188902 C36.6926174,30.1784294 43.7321594,49.397878 44.0780962,52.6055643 C44.424033,55.8124221 48.7147691,70.9248265 47.9805013,70.647302 C47.2445377,70.3697775 34.4465719,68.5480569 26.7935681,72.9834784 C26.7935681,72.9834784 25.7125156,73.8947529 24.8476736,72.9834784 C23.9836795,72.0730324 23.5945006,70.013552 24.8476736,67.9540716 C24.8476736,67.9540716 25.064732,65.3014343 24.4593426,63.3206549 C23.8539532,61.3407039 19.87568,48.5497235 21.0864588,41.5411941 C22.2972376,34.5318363 23.2918059,28.4726892 23.2918059,28.4726892 C23.2918059,28.4726892 24.0481187,26.0180471 25.0969516,26.3345078 Z" id="Fill-20" fill="#0058FF"></path>
                    <g id="Group-24" transform="translate(60.199786, 152.390779)">
                        <mask id="mask-4" fill="white">
                            <use xlink:href="#path-3"></use>
                        </mask>
                        <g id="Clip-23"></g>
                        <path d="M8.68318322,0.676662745 C8.68318322,0.676662745 10.414563,4.19501078 15.4170804,3.84292745 C20.4212936,3.49084412 19.2995427,3.46681961 19.8421886,3.96387843 C20.3848346,4.45928039 20.5696734,5.28191275 20.4094232,5.40452059 C20.250021,5.52795686 2.28420033,12.8479765 1.76359936,12.407251 C1.2429984,11.9665255 0.0797011251,9.53922157 0.151771291,9.19376569 C0.224689342,8.8483098 0.294215855,6.02253039 0.248430103,5.02178529 C0.201796466,4.0210402 2.73018748,2.49921176 4.08171507,2.40477059 C5.43493842,2.31032941 8.68318322,0.676662745 8.68318322,0.676662745" id="Fill-22" fill="#06356D" mask="url(#mask-4)"></path>
                    </g>
                    <path d="M24.643927,26.3631716 C24.643927,26.3631716 25.5833829,22.3941569 25.8428355,22.5722696 C26.102288,22.7503824 34.8575414,26.3060098 34.8575414,26.3060098 C34.8575414,26.3060098 35.3764466,26.5520539 35.2467203,27.0573971 C35.116994,27.5619118 34.6141986,29.1740392 34.6141986,29.1740392 L24.643927,26.3631716 Z" id="Fill-25" fill="#FF3B88"></path>
                    <path d="M25.6706301,73.3863446 C25.6706301,73.3863446 23.2083741,77.6958446 27.5741304,77.6361975 C27.5741304,77.6361975 45.364439,73.5379475 47.8936779,75.2006093 C47.8936779,75.2006093 51.6981348,73.5180652 47.9801621,70.6467221 C44.2613415,67.7762074 28.8713934,70.1455211 25.6706301,73.3863446" id="Fill-27" fill="#FF3B88"></path>
                    <path d="M36.584164,67.9107297 L36.0156385,64.8631369 L37.8092965,39.0665425 C37.8150033,37.5546424 36.7743538,36.2245889 35.274608,35.8565348 C33.1754726,35.3412589 29.9703001,37.8808735 29.6374212,41.1964123 C29.0840331,46.7297657 29.9500608,66.5829155 29.9500608,66.5829155 L34.6419763,69.2444626 C35.6057897,69.7916737 36.7838244,68.981819 36.584164,67.9107297" id="Fill-31" fill="#004BD9" transform="translate(33.630985, 52.605083) rotate(1.000000) translate(-33.630985, -52.605083) "></path>
                    <path d="M31.2493698,32.0861412 C31.2493698,32.0861412 36.1221609,32.2037784 36.7852064,35.3741853 C37.4490998,38.5445922 34.992779,65.1264696 34.9961705,65.9350186 C35.0004099,66.7435676 41.3485198,89.8725431 41.4400913,90.2768176 C41.529967,90.6794353 36.0950286,93.6021412 35.3700875,93.4372833 C34.6451464,93.2724255 24.3484394,72.7314696 24.1229021,69.4691069 C23.896517,66.2067441 25.0394651,47.8462196 25.0623579,47.3839549 C25.0852508,46.9216902 26.3545336,37.7476412 26.7064056,36.93495 C27.0574297,36.1214304 27.6941908,32.1267343 31.2493698,32.0861412" id="Fill-33" fill="#004BD9"></path>
                    <path d="M43.1876656,93.6655162 C43.1876656,93.6655162 43.9312602,95.7813299 44.7308151,96.3355505 C45.5312179,96.8897711 46.7411488,98.3188152 47.260054,98.6095946 C47.7789592,98.900374 48.2266421,99.8497564 47.53816,100.3551 C47.0650406,100.702212 45.9729656,99.7006387 45.5837867,99.835673 C44.0779441,100.357585 46.6139661,105.546879 46.7428445,106.62881 C46.8725708,107.710742 46.9268354,108.40331 46.3451868,108.366859 C45.764386,108.330408 43.1808825,107.627899 41.6512993,106.646207 C40.3311434,105.797894 36.7590068,104.276894 36.4266361,102.194217 C35.9933673,99.4844181 35.9933673,96.0886779 35.9933673,96.0886779 C35.9933673,96.0886779 39.8291959,92.0575309 43.1876656,93.6655162" id="Fill-35" fill="#FFC493"></path>
                    <path d="M34.9928638,92.0257191 C34.8792473,92.0845377 33.9915124,92.5310623 34.0339066,93.0488319 C34.0754529,93.5674299 35.8500748,96.2308368 35.9933673,96.0883466 C36.1358118,95.9458564 41.6699527,93.2203172 43.1876656,93.6651848 C43.4157465,93.5475475 44.4510132,93.1308466 43.9363475,92.2411113 C43.4216817,91.3522044 42.0921991,89.7756995 41.6538429,89.6091848 C41.2163346,89.4426701 34.9928638,92.0257191 34.9928638,92.0257191" id="Fill-37" fill="#FF3B88"></path>
                </g>
            </g>
            <rect id="Rectangle-Copy-29" x="0" y="0" width="230" height="170"></rect>
        </g>
    </g>
</svg>