<?xml version="1.0" encoding="UTF-8"?>
<svg width="230px" height="170px" viewBox="0 0 230 170" version="1.1" xmlns="http://www.w3.org/2000/svg" xmlns:xlink="http://www.w3.org/1999/xlink">
    <!-- Generator: Sketch 54.1 (76490) - https://sketchapp.com -->
    <title>bussiness</title>
    <desc>Created with Sketch.</desc>
    <g id="bussiness" stroke="none" stroke-width="1" fill="none" fill-rule="evenodd">
        <g id="Group-59">
            <g id="Group-56">
                <path d="M77.3386186,147.906371 C109.299905,132.908436 193.489157,168.020733 226.766249,144.245439 C245.904525,130.571825 172.415583,141.548421 205.923691,87.5257058 C220.638566,63.8019699 126.812675,66.7954573 138.659844,57.7586843 C152.114127,47.496038 195.507882,53.2866083 188.782756,47.4405863 C148.156667,12.1251112 53.3615948,-8.80619894 37.6860518,3.59146904 C24.1796628,14.2735696 62.0152555,43.0518299 45.6839759,61.9840384 C29.3526964,80.9162469 -33.8012657,80.2576974 23.6896846,93.7978398 C43.315011,98.4199536 45.0582129,106.426555 48.6831975,112.886121 C60.9347479,134.717853 48.8999233,161.251319 77.3386186,147.906371 Z" id="Oval-Copy-24" fill="#ECEEFA"></path>
                <g id="Group-51" transform="translate(24.271357, 5.743243)">
                    <ellipse id="Oval-Copy-21" fill="#EDF1F4" cx="98.241206" cy="156.178556" rx="98.241206" ry="8.07820115"></ellipse>
                    <g id="Group-98">
                        <path d="M62.834477,138.426975 C62.834477,150.709545 51.8941657,160.666445 38.399209,160.666445 C24.9035283,160.666445 13.9632171,150.709545 13.9632171,138.426975 C13.9632171,126.144405 24.9035283,116.188164 38.399209,116.188164 C51.8941657,116.188164 62.834477,126.144405 62.834477,138.426975" id="Fill-26" fill="#A0A5C2"></path>
                        <path d="M52.8607505,138.880827 C52.8607505,145.899614 46.6093394,151.589245 38.8975334,151.589245 C31.1864698,151.589245 24.9343163,145.899614 24.9343163,138.880827 C24.9343163,131.862715 31.1864698,126.173084 38.8975334,126.173084 C46.6093394,126.173084 52.8607505,131.862715 52.8607505,138.880827" id="Fill-28" fill="#EDF1F4"></path>
                        <path d="M178.529704,138.426975 C178.529704,150.709545 167.590117,160.666445 154.094436,160.666445 C140.59948,160.666445 129.658445,150.709545 129.658445,138.426975 C129.658445,126.144405 140.59948,116.188164 154.094436,116.188164 C167.590117,116.188164 178.529704,126.144405 178.529704,138.426975" id="Fill-30" fill="#A0A5C2"></path>
                        <path d="M168.555978,138.880827 C168.555978,145.899614 162.304401,151.589245 154.59239,151.589245 C146.881121,151.589245 140.629544,145.899614 140.629544,138.880827 C140.629544,131.862715 146.881121,126.173084 154.59239,126.173084 C162.304401,126.173084 168.555978,131.862715 168.555978,138.880827" id="Fill-32" fill="#EDF1F4"></path>
                        <path d="M161.574369,138.880847 C161.574369,142.390377 158.448724,145.235205 154.592761,145.235205 C150.737495,145.235205 147.611152,142.390377 147.611152,138.880847 C147.611152,135.371952 150.737495,132.527124 154.592761,132.527124 C158.448724,132.527124 161.574369,135.371952 161.574369,138.880847" id="Fill-34" fill="#A0A5C2"></path>
                        <path d="M66.9805996,94.294928 C66.9805996,94.294928 70.2251779,94.5011038 69.7728295,95.8795362 C69.3197642,97.2573142 69.8158421,98.9106477 69.8158421,98.9106477 C69.8158421,98.9106477 42.4333502,98.9800275 42.4333502,98.9106477 C42.4333502,98.8419224 38.7586466,93.6430197 42.7580948,92.0211035 C46.757543,90.3998417 49.5970867,95.0797051 49.5970867,95.0797051 L66.9805996,94.294928 Z" id="Fill-36" fill="#A0A5C2"></path>
                        <path d="M38.8975242,98.939491 L16.1471326,98.939491 C16.1471326,98.939491 14.734942,99.0491032 14.1404097,97.6421911 C13.5458774,96.2346107 8.78891319,80.1944766 8.12024091,79.068947 C7.45086254,77.942749 9.30930545,76.5358369 10.57251,77.450831 C11.8364206,78.3651568 20.2347185,92.3654355 21.3496431,92.7169964 C22.4645676,93.0685573 34.8028774,91.5239617 34.8028774,91.5239617 C34.8028774,91.5239617 38.9045852,91.0988804 38.8975242,93.702169 C38.8904633,96.3054576 38.8975242,98.939491 38.8975242,98.939491" id="Fill-38" fill="#A0A5C2"></path>
                        <path d="M15.8147472,98.9414832 L69.231698,98.9414832 C69.231698,98.9414832 71.8108308,99.0563683 71.8108308,101.641283 L27.2902421,101.641283 C27.2902421,101.641283 24.6715991,101.566225 24.6715991,102.371953 C24.6715991,103.178446 23.3699602,104.387803 23.3699602,104.387803 L13.4273116,104.387803 C13.4273116,104.387803 10.9710992,104.24458 10.9710992,101.816675 C10.9710992,99.3887692 12.7344212,98.9437809 12.7344212,98.9437809 L15.8147472,98.9414832 Z" id="Fill-40" fill="#000CFE"></path>
                        <path d="M70.208337,132.723069 C70.208337,132.723069 69.1918545,136.922805 71.4472894,137.470625 C73.6997969,138.018445 73.906167,138.881164 73.906167,138.881164 L10.5959216,138.881164 C10.5959216,138.881164 10.3119798,138.456962 9.84069487,137.752343 C8.49709386,135.744537 5.62840325,131.449159 3.4776171,128.181107 C1.94667303,125.855149 0.778706136,124.050336 0.778706136,123.957297 C0.778706136,123.682737 -1.27621306,122.039276 1.29024051,118.204536 C3.85962131,114.369145 13.9234563,100.756923 13.9234563,100.756923 L85.5133869,100.756923 C85.5133869,100.756923 89.7220194,101.674945 86.6411043,106.605325 C83.5594573,111.537007 70.208337,132.723069 70.208337,132.723069" id="Fill-42" fill="#D8D8D8"></path>
                        <path d="M38.399209,108.018683 L38.399209,108.018683 C24.9035283,108.018683 13.9632171,118.247793 13.9632171,130.865478 L13.9632171,140.696604 L62.834477,140.696604 L62.834477,130.865478 C62.834477,118.247793 51.8948896,108.018683 38.399209,108.018683" id="Fill-44" fill="#0058FF"></path>
                        <path d="M39.3962197,118.911324 L39.3962197,118.911324 C29.7566046,118.911324 21.9421983,125.905343 21.9421983,134.532953 L21.9421983,139.788884 L56.8502411,139.788884 L56.8502411,134.532953 C56.8502411,125.905343 49.0358348,118.911324 39.3962197,118.911324" id="Fill-46" fill="#EDF1F4"></path>
                        <path d="M156.438915,140.30053 L156.438915,140.30053 C157.641826,139.565544 157.948058,138.067205 157.116757,136.983635 L151.607319,129.803964 L147.611152,132.34616 L152.863217,139.637403 C153.648412,140.727906 155.251833,141.024801 156.438915,140.30053" id="Fill-48" fill="#D8D8D8"></path>
                        <path d="M178.139858,117.779053 L155.430595,136.158004 L128.661072,136.158004 L143.57606,114.524119 L160.613457,109.880947 C160.872855,109.808949 161.151144,109.820076 161.399642,109.913673 L164.718766,111.148754 L166.926914,111.972142 L169.072574,112.768694 L171.244392,113.578991 L177.806347,116.020354 C178.601978,116.318816 178.782902,117.260672 178.139858,117.779053" id="Fill-50" fill="#0058FF"></path>
                        <path d="M130.655817,56.4514979 L133.907289,54.4632017 L138.489259,60.759263 C138.489259,60.759263 139.302302,62.2174308 137.085039,62.6153419 C134.868477,63.0126234 130.655817,56.4514979 130.655817,56.4514979" id="Fill-52" fill="#0058FF"></path>
                        <path d="M116.36803,63.5909052 C116.36803,63.5909052 113.581647,60.9350392 115.206853,59.9351295 C116.832795,58.9365397 126.431809,52.8228999 126.431809,52.8228999 C126.431809,52.8228999 128.598996,51.8500504 130.5338,54.4900762 C132.46934,57.130102 138.426715,64.2159313 138.426715,64.2159313 C138.426715,64.2159313 140.596843,70.6001737 130.920614,73.0006172 L128.134231,73.5253223 L121.24512,63.0866603 L116.36803,63.5909052 Z" id="Fill-54" fill="#D8D8D8"></path>
                        <path d="M141.056517,97.1260431 C138.347799,90.9982013 135.136425,83.7277689 132.650562,78.0852812 C136.851079,77.8218597 140.973562,80.009575 142.762033,83.8443329 L143.759611,85.9872665 C145.597294,89.93332 144.392325,94.430583 141.056517,97.1260431" id="Fill-56" fill="#EDF1F4"></path>
                        <path d="M145.478064,114.3318 C143.947914,117.689493 126.884376,143.796565 126.884376,143.796565 C126.884376,143.796565 125.88996,145.235205 122.905259,145.235205 L10.9629559,145.235205 C10.9629559,145.235205 7.9789812,144.961147 7.9789812,141.672457 C7.9789812,138.383115 10.2840199,139.246299 10.2840199,139.246299 L107.525977,139.246299 L108.520393,137.629294 C108.520393,137.629294 108.524027,137.626691 108.526935,137.624087 C108.906383,137.357841 127.11408,124.434824 127.190406,114.263449 C127.266732,103.985315 119.080246,83.839808 116.019219,78.3580064 C113.399427,73.6684329 112.294521,72.0377581 111.982675,71.3223442 C111.92743,71.2019151 111.8969,71.1055719 111.88745,71.0261538 C111.811124,70.4780387 115.866567,68.0798726 115.866567,67.8741667 C115.866567,67.6684608 116.839903,65.2702947 116.839903,65.2702947 L122.216873,64.4481221 L124.130106,65.2702947 C124.130106,65.2702947 126.807323,67.1203457 128.032171,69.9299236 C128.378181,70.7247556 130.013006,74.2822957 132.17339,78.977728 C134.743751,84.5552219 138.065013,91.7419087 140.865079,97.799166 C144.039505,104.662322 146.549533,110.078375 146.549533,110.078375 C146.549533,110.078375 147.007487,110.974758 145.478064,114.3318" id="Fill-58" fill="#0058FF"></path>
                        <path d="M128.31947,63.5905674 L124.585253,69.5102568 C123.79815,70.7579622 121.930679,71.1800074 120.5165,70.4299097 L120.04221,70.1792628 C118.709854,69.4727827 118.289873,67.990403 119.0987,66.8471338 L123.165281,61.0969996 C124.016106,59.8941403 125.882128,59.5439719 127.251413,60.3297007 L127.393338,60.4114067 C128.616353,61.1129722 129.016784,62.486001 128.31947,63.5905674" id="Fill-60" fill="#CBCBCB"></path>
                        <path d="M128.660539,113.398714 C128.584612,123.703486 110.29779,136.795987 109.915963,137.065724 C109.018705,135.566009 111.357853,131.750771 111.357853,131.750771 C111.357853,131.750771 118.464366,124.414433 123.997575,116.731195 C129.530784,109.047298 111.701717,73.8765357 111.379025,72.5100406 C111.176796,71.6658737 112.414996,70.5882419 113.386721,69.8944422 C113.699921,70.6192386 114.80963,72.2712996 117.440806,77.0223763 C120.515136,82.5760711 128.737197,102.985784 128.660539,113.398714" id="Fill-62" fill="#EDF1F4"></path>
                        <path d="M147.611152,113.591394 L144.946012,112.621099 C144.946012,112.621099 143.613076,112.297887 143.101083,113.106247 C142.588359,113.914607 127.673359,135.579708 127.673359,135.579708 C127.673359,135.579708 127.571106,136.157014 128.031973,136.157014 L133.414111,136.157014 C133.414111,136.157014 133.977961,136.226132 134.592937,135.209758 C135.207914,134.194042 147.611152,113.591394 147.611152,113.591394" id="Fill-68" fill="#EDF1F4"></path>
                        <path d="M10.9710992,138.081116 C10.2030789,138.630548 8.71151825,139.68196 7.66846368,140.307563 C6.21100435,141.182907 5.64017847,140.307563 5.64017847,140.307563 C5.64017847,140.307563 1.84159168,135.839061 0.645822652,133.780566 C-0.549946373,131.719573 0.281087153,131.238196 0.281087153,131.238196 L4.52595599,128.896244 C6.70473167,132.032374 9.61075435,136.15436 10.9710992,138.081116" id="Fill-70" fill="#FFFFFF"></path>
                        <path d="M127.663699,79.1595079 C127.663699,79.1595079 132.725896,77.1998152 133.315598,78.5223311 C133.9053,79.8448471 141.474082,96.8344915 141.474082,96.8344915 C141.474082,96.8344915 141.817959,97.7482772 141.474082,97.9767236 C141.130206,98.20517 138.230019,99.8492032 138.230019,99.8492032 C138.230019,99.8492032 134.64558,92.7699677 127.663699,79.1595079" id="Fill-72" fill="#004BD9"></path>
                        <path d="M83.9292112,138.50242 C83.9292112,138.50242 79.0922565,139.354595 78.8027835,138.50242 C78.5126214,137.650245 84.4130445,129.032688 85.670184,128.938227 C86.9280128,128.843766 88.7661659,128.938227 88.7661659,128.938227 C88.7661659,128.938227 88.3788235,133.956814 87.5076479,134.808988 C86.6378506,135.661838 83.9292112,138.50242 83.9292112,138.50242" id="Fill-81" fill="#06356D"></path>
                        <path d="M89.3816889,129.22938 C89.3816889,129.22938 85.9108986,130.319894 85.6391284,129.496229 C85.3666432,128.673224 96.6079131,100.862128 96.6079131,100.862128 C96.6079131,100.862128 97.1106878,96.3197476 95.6045092,95.2074358 C94.0990459,94.0951241 70.6109566,92.8896793 69.0053674,92.241051 C67.3997782,91.5924226 76.6127849,87.0500426 79.0322541,87.1425151 C81.4517232,87.2349876 95.5043834,88.8109827 95.5043834,88.8109827 C95.5043834,88.8109827 99.2183365,91.2212117 99.720396,92.7047344 C100.22174,94.1875965 89.3816889,129.22938 89.3816889,129.22938" id="Fill-82" fill="#322FB5"></path>
                        <path d="M78.2105876,18.8539393 C78.2105876,18.8539393 77.3454112,26.6789053 77.1980575,27.0944893 C77.081578,27.422478 77.8071193,29.420706 78.1200704,30.2531912 C78.1909405,30.4402369 78.0576205,30.6391377 77.847817,30.6621891 L75.9946693,30.8696518 C75.9946693,30.8696518 74.07416,35.3534805 73.0398777,35.4009005 C72.7360485,35.4147314 71.5452907,34.6329592 69.9973756,33.4902679 C66.2749416,30.7418811 60.5014851,25.9116227 60.188534,25.0936269 C60.0938066,24.8466475 59.9639951,24.3862779 59.8250616,23.8119685 C59.3086222,21.7103384 58.6371105,18.0912669 58.9065572,17.8363842 C59.2517858,17.5143231 63.6836223,15.9422169 63.8316777,16.0811839 C63.9790313,16.2194924 64.7677242,17.7448372 65.5536104,17.3760146 C66.3423033,17.0045576 68.1652785,15.3409043 68.7560965,15.4350858 C69.3476162,15.5266329 71.8582418,15.8954554 72.5465938,16.3584595 C73.2356476,16.8214635 74.7126925,17.9305657 75.5982178,17.8363842 C76.4851465,17.7448372 78.0127127,16.3584595 78.6035307,17.2818331 C79.1943487,18.2078412 78.2105876,18.8539393 78.2105876,18.8539393" id="Fill-83" fill="#FFC493"></path>
                        <path d="M70.8134582,33.2842533 C69.5683706,32.7649866 68.587014,33.5227996 67.8298287,34.5158642 C67.765284,34.602189 67.7014334,34.6878548 67.6396648,34.7768155 L67.6396648,34.7794513 C66.9969943,35.7033242 66.5354652,36.7411986 66.2259283,37.1378972 C65.541616,38.0149835 57.8476137,31.2645168 57.8476137,31.2645168 L60.7521239,23.6007208 C60.8895416,24.1753407 61.0179369,24.6359592 61.1116307,24.8824132 C61.213653,25.1492952 61.8889429,25.8451652 62.882792,26.7584947 C63.1978811,27.0471226 63.5455895,27.3574965 63.9168948,27.6823676 C65.9566452,29.4747601 68.7154093,31.7165688 70.8134582,33.2842533" id="Fill-84" fill="#FFC493"></path>
                        <path d="M127.662428,65.5255473 C127.736506,66.0012463 124.54905,72.2508145 124.0996,72.5531818 C123.649439,72.8587591 122.899407,72.012644 122.977758,71.3719589 C123.048986,70.7312738 124.0996,67.5875517 123.72779,66.9468666 C123.349569,66.3036137 120.650025,64.952269 120.350155,65.0196757 C120.314541,65.0280213 120.249011,65.0710332 120.158551,65.1416498 C120.155702,65.1442177 120.152853,65.1474275 120.149292,65.1499954 C119.471913,65.6853975 117.537358,67.7634512 117.800902,68.7694166 C118.101485,69.920467 119.604397,70.7961127 120.182769,71.10169 C120.76399,71.4072672 121.514022,72.6558969 119.939169,72.4536767 C118.365029,72.2508145 115.252362,70.4256966 114.580681,69.8858007 C114.187502,69.5718778 113.620527,68.8284777 113.209541,68.2584093 C112.916081,67.8443393 112.703109,67.5201449 112.703109,67.5201449 C112.703109,67.5201449 113.266523,62.48775 114.95178,62.0820256 C116.640597,61.6763012 122.788292,59.4788413 123.688614,59.9847129 C124.588225,60.4925104 127.587639,65.054984 127.662428,65.5255473" id="Fill-85" fill="#FFC493"></path>
                        <path d="M65.9504592,63.3671575 C65.0668163,67.1858254 64.1146911,70.3482627 63.693488,70.7261723 C62.7634538,71.5591564 63.6161692,73.6419462 62.3761237,73.8503571 C62.3761237,73.8503571 62.3724418,73.8503571 62.362869,73.8523357 C61.0204682,74.1273589 43.1495268,84.8855817 41.7577892,84.4021476 C40.3623698,83.9160753 39.199643,83.4999131 39.1223243,82.80543 C39.0450055,82.1109469 38.6576754,74.1273589 39.1223243,68.5048816 C39.5877095,62.8810853 40.5950624,53.7176015 41.9124267,49.4128614 C43.2305274,45.1087809 49.8188216,34.8346517 49.8188216,34.8346517 C49.8188216,34.8346517 51.9896377,31.5719661 53.0743094,31.7797174 C54.1597174,31.9881283 64.0034993,37.6805156 64.6235221,38.0280869 C65.2435449,38.3749987 67.4916797,45.3171917 67.8016911,50.4542563 C67.9717924,53.2565913 67.0108307,58.7854156 65.9504592,63.3671575" id="Fill-86" fill="#0058FF"></path>
                        <path d="M65.8265949,63.7976355 C64.9501048,67.6690333 64.0056868,70.875139 63.5878932,71.258267 C62.6653874,72.1027532 63.5112003,74.2143032 62.2811926,74.4255919 C62.2811926,74.4255919 62.2775406,74.4255919 62.2680453,74.4275978 C62.0284713,74.4563491 58.5137462,74.9096837 57.821319,75.2700781 C57.120127,75.6358216 50.1578742,78.8399214 49.8686325,78.9716425 C50.0380872,78.8452705 52.7749275,76.7791877 54.0480293,74.0504875 C55.3613036,71.2355334 56.4897845,60.4952463 55.2597768,58.4512286 C54.0297691,56.4078794 51.2155056,49.9040649 51.8027539,47.2014415 C51.8027539,47.2014415 64.5009037,63.1162963 65.8265949,63.7976355" id="Fill-87" fill="#004BD9"></path>
                        <path d="M53.8581231,31.7976369 C54.5028559,31.5971964 55.6493502,28.9176569 56.0796259,29.0519202 C56.5099017,29.1855472 65.8976744,34.9455071 65.8261887,35.4144743 C65.7540222,35.8834414 64.8226658,38.4287175 64.0342808,38.0940137 C63.2458958,37.7593099 53.8581231,31.7976369 53.8581231,31.7976369" id="Fill-88" fill="#FF3B88"></path>
                        <path d="M97.2310092,131.874181 C97.2310092,131.874181 96.852794,134.486896 103.588764,136.094622 C103.588764,136.094622 104.420693,136.876209 104.724128,138.662784 C104.724128,138.662784 83.3046364,139.15414 82.8502029,138.662784 C82.3957694,138.172065 81.7148383,137.50186 81.7903375,137.16644 C81.8665558,136.831656 87.543379,129.246191 87.543379,129.246191 L92.0079003,127.988524 C92.0079003,127.988524 96.1711437,129.542151 96.550078,129.837473 C96.9282932,130.132159 97.2310092,131.874181 97.2310092,131.874181" id="Fill-89" fill="#06356D"></path>
                        <path d="M90.4963228,131.955098 C90.7260636,132.024196 97.766601,134.310356 102.05243,133.0633 C102.357782,132.162392 103.96524,121.841767 104.807866,119.001506 C105.649037,116.161245 110.776764,92.2631712 110.699699,91.1549692 C110.623361,90.0467672 111.541597,84.5050991 105.342958,83.3271409 C99.1443188,82.1498408 62.5639138,76.9543212 61.339599,77.1622736 C60.1152841,77.370226 44.5801536,87.760607 44.8862323,88.868809 C45.192311,89.977011 47.334862,100.091 56.977432,97.3198365 C66.620002,94.5493315 90.9558044,91.7090702 91.6442997,92.2631712 C92.3327951,92.8172723 91.415286,93.7181799 92.7922767,94.0643286 C94.1699944,94.4104772 94.4760731,94.272281 94.7821518,94.6875277 C95.0882305,95.1034325 87.0116784,130.099978 87.4362627,130.415197 C87.8608469,130.730416 90.4963228,131.955098 90.4963228,131.955098" id="Fill-90" fill="#423FE0"></path>
                        <path d="M41.1473253,84.199693 C41.1473253,84.199693 39.4416503,88.6162018 44.8522509,88.9565628 C44.8522509,88.9565628 59.9904829,76.1422077 61.3108397,76.2301968 C61.3108397,76.2301968 63.62862,76.8045135 62.5467934,73.5018517 C62.5467934,73.5018517 61.5427645,71.7789017 59.3020478,73.1430743 C57.062065,74.5072469 41.1473253,84.199693 41.1473253,84.199693" id="Fill-91" fill="#FF3B88"></path>
                        <path d="M63.4600068,44.9652605 C63.4600068,44.9652605 80.9179917,59.1365176 82.6790659,60.1578578 C84.4401402,61.1798452 108.252832,60.6348715 108.635452,60.9753183 C109.018801,61.3164122 107.946589,67.5842567 106.415379,67.9933105 C104.883441,68.4017172 82.7554446,71.3311124 81.3769912,70.7181789 C79.9985378,70.1045981 54.3483935,55.1165277 52.9699401,51.301712 C51.5922141,47.4862491 51.0561085,44.3523269 54.0421513,42.9898927 C57.0281941,41.6268113 63.4600068,44.9652605 63.4600068,44.9652605" id="Fill-92" fill="#0058FF"></path>
                        <path d="M108.867505,61.8099554 C108.867505,61.8099554 114.577916,61.4930028 114.691624,62.0832312 C114.803901,62.6734596 113.373617,68.2033098 112.43249,68.2033098 C111.492078,68.2033098 105.06724,69.627531 104.741135,68.635357 C104.415745,67.6437732 108.867505,61.8099554 108.867505,61.8099554" id="Fill-93" fill="#FF3B88"></path>
                        <path d="M79.789812,18.5511399 C79.789812,18.5511399 77.3189547,20.5130413 73.9919165,19.5538343 C70.6655966,18.5946273 70.1613693,18.8480965 68.6494058,19.8644583 C67.1374422,20.8808201 65.8265949,22.6930007 65.8265949,22.6930007 C65.8265949,22.6930007 67.5921087,17.3763598 67.7170881,16.6345897 C67.8427858,15.8921982 71.8751675,13.4506934 72.2781184,13.6246428 C72.6817875,13.7992135 78.8309182,15.4560821 78.9321947,15.7176275 C79.0327528,15.979173 79.789812,18.5511399 79.789812,18.5511399" id="Fill-94" fill="#DB9F6D"></path>
                        <path d="M80.1090925,17.1481065 C80.1090925,17.1481065 79.2870817,19.3148535 77.3096971,18.151543 C75.3330247,16.9875826 69.3125438,16.3058437 68.3124544,17.8213968 C67.3130773,19.3369499 65.1134506,22.5292299 65.1134506,22.5292299 C65.1134506,22.5292299 67.8124097,17.8779376 65.1134506,17.513347 C62.4144915,17.1481065 60.5147491,18.1326961 61.2149541,19.7385845 C61.9144468,21.343823 63.6503569,23.9667957 62.6139395,24.6719308 C61.5782344,25.3777158 59.8344889,24.2618476 59.4818933,25.1561019 C59.1285853,26.0510061 59.2147754,27.7283829 57.81579,27.0901868 C56.4160923,26.4513409 52.0168388,25.7540045 51.0174617,22.0899014 C50.0173724,18.4251484 54.3161895,15.4148388 53.8161448,14.3204171 C53.3168125,13.2259954 54.5156375,11.4927278 60.7277311,7.66225177 C66.9391123,3.83112589 56.6240881,1.64228246 56.8242484,0 C56.8242484,0 62.8468663,0.408783407 68.9264694,2.82119041 C73.3392568,4.57200519 73.4112006,5.19915303 78.0099021,6.65881524 C82.6086036,8.11782756 80.1090925,17.1481065 80.1090925,17.1481065" id="Fill-95" fill="#06356D"></path>
                        <path d="M69.8160855,32.2339081 C68.5634127,31.7636363 67.5760775,32.4499467 66.8142792,33.3493116 C66.7493414,33.4274913 66.6851017,33.5050742 66.6229569,33.5856411 C66.6704383,32.2440535 61.8371043,26.3238808 61.8371043,26.3238808 C62.1541129,26.5852756 62.5039396,26.8663644 62.877507,27.1605827 C64.929684,28.7838558 67.705255,30.8141409 69.8160855,32.2339081" id="Fill-96" fill="#DB9F6D"></path>
                        <path d="M119.703245,72.595756 C118.06583,72.394665 114.828045,70.5861183 114.129365,70.0502998 C113.720381,69.7397541 113.130616,69.0028445 112.703109,68.4371169 C113.28028,68.3352986 113.926355,68.211844 114.525012,68.0756621 C115.910517,67.7568437 119.082361,65.8649333 119.921814,65.3558421 C119.217207,65.8865697 117.20489,67.9471166 117.479027,68.9436627 C117.791692,70.0852998 119.354275,70.9533004 119.956637,71.2562097 C120.561221,71.559119 121.341401,72.7962107 119.703245,72.595756" id="Fill-97" fill="#DB9F6D"></path>
                    </g>
                </g>
            </g>
            <rect id="Rectangle" x="0" y="0" width="230" height="170"></rect>
        </g>
    </g>
</svg>