<svg xmlns="http://www.w3.org/2000/svg" width="194" height="150" viewBox="0 0 194 150">
    <g fill="none" fill-rule="evenodd">
        <path fill="#ECEEFA" d="M65.443 129.477c26.717-13.121 97.092 17.598 124.909-3.203 15.998-11.962-45.433-2.36-17.423-49.622 12.3-20.755-66.13-18.136-56.227-26.042 11.247-8.979 47.52-3.913 41.899-9.027C124.64 10.686 45.4-7.626 32.296 3.22c-11.29 9.345 20.338 34.522 6.686 51.085C25.33 70.87-27.46 70.293 20.597 82.14c16.405 4.044 17.862 11.049 20.892 16.7 10.241 19.1.181 42.313 23.954 30.638z"/>
        <g transform="translate(20.717 4.886)">
            <ellipse cx="82.184" cy="137.137" fill="#EDF1F4" rx="82.184" ry="7.093"/>
            <path fill="#A0A5C2" d="M52.564 121.55c0 10.785-9.152 19.528-20.441 19.528-11.29 0-20.442-8.743-20.442-19.528 0-10.785 9.152-19.527 20.442-19.527 11.29 0 20.441 8.742 20.441 19.527"/>
            <path fill="#EDF1F4" d="M44.22 121.949c0 6.163-5.229 11.159-11.68 11.159-6.45 0-11.681-4.996-11.681-11.16 0-6.162 5.23-11.158 11.68-11.158 6.452 0 11.682 4.996 11.682 11.159"/>
            <path fill="#A0A5C2" d="M149.35 121.55c0 10.785-9.152 19.528-20.442 19.528-11.289 0-20.442-8.743-20.442-19.528 0-10.785 9.153-19.527 20.442-19.527 11.29 0 20.442 8.742 20.442 19.527"/>
            <path fill="#EDF1F4" d="M141.006 121.949c0 6.163-5.23 11.159-11.681 11.159-6.451 0-11.68-4.996-11.68-11.16 0-6.162 5.229-11.158 11.68-11.158s11.681 4.996 11.681 11.159"/>
            <path fill="#A0A5C2" d="M135.166 121.949c0 3.081-2.615 5.58-5.84 5.58-3.226 0-5.841-2.499-5.841-5.58s2.615-5.58 5.84-5.58c3.226 0 5.84 2.499 5.84 5.58M56.033 82.799s2.714.18 2.336 1.391c-.38 1.21.036 2.662.036 2.662s-22.907.06-22.907 0-3.074-4.626.271-6.05c3.346-1.424 5.722 2.686 5.722 2.686l14.542-.69zM32.54 86.877H13.508s-1.181.096-1.679-1.14c-.497-1.235-4.477-15.32-5.036-16.308-.56-.989.995-2.224 2.051-1.42 1.058.802 8.083 13.095 9.016 13.404.933.309 11.254-1.048 11.254-1.048s3.432-.373 3.426 1.913c-.006 2.286 0 4.599 0 4.599"/>
            <path fill="#000CFE" d="M13.23 86.879h44.686s2.158.1 2.158 2.37H22.83s-2.19-.066-2.19.642-1.09 1.77-1.09 1.77h-8.317s-2.055-.126-2.055-2.258 1.475-2.522 1.475-2.522l2.577-.002z"/>
            <path fill="#D8D8D8" d="M58.733 116.542s-.85 3.687 1.037 4.168c1.884.481 2.056 1.239 2.056 1.239H8.864l-.632-.991a1508.824 1508.824 0 0 1-5.323-8.405c-1.28-2.042-2.258-3.627-2.258-3.708 0-.242-1.719-1.685.428-5.052 2.15-3.368 10.569-15.32 10.569-15.32h59.889s3.52.806.943 5.135c-2.578 4.33-13.747 22.934-13.747 22.934"/>
            <path fill="#0058FF" d="M32.123 94.85c-11.29 0-20.442 8.981-20.442 20.06v8.633h40.883v-8.632c0-11.08-9.151-20.062-20.441-20.062"/>
            <path fill="#EDF1F4" d="M32.957 104.414c-8.064 0-14.601 6.141-14.601 13.717v4.615h29.202v-4.615c0-7.576-6.537-13.717-14.6-13.717"/>
            <path fill="#D8D8D8" d="M130.87 123.195c1.006-.645 1.262-1.96.567-2.912l-4.61-6.305-3.342 2.233 4.393 6.402c.657.958 1.999 1.218 2.992.582"/>
            <path fill="#0058FF" d="M149.024 103.42l-18.998 16.138h-22.394l12.477-18.997 14.253-4.077c.217-.063.45-.053.658.03l2.776 1.084 1.847.723 1.795.7 1.817.71 5.49 2.144c.665.262.817 1.09.279 1.545M109.3 49.569l2.72-1.746 3.834 5.529s.68 1.28-1.175 1.63c-1.854.348-5.378-5.413-5.378-5.413"/>
            <path fill="#D8D8D8" d="M97.348 55.838s-2.33-2.332-.971-3.21c1.36-.877 9.39-6.245 9.39-6.245s1.813-.854 3.432 1.464 6.602 8.54 6.602 8.54 1.816 5.606-6.279 7.713l-2.33.461-5.764-9.166-4.08.443z"/>
            <path fill="#EDF1F4" d="M118.001 85.285c-2.266-5.381-4.952-11.765-7.032-16.72 3.514-.231 6.963 1.69 8.46 5.057l.834 1.882c1.537 3.465.529 7.414-2.262 9.78"/>
            <path fill="#0058FF" d="M121.7 100.393c-1.28 2.948-15.554 25.872-15.554 25.872s-.832 1.263-3.33 1.263H9.172s-2.496-.24-2.496-3.128 1.928-2.13 1.928-2.13h81.348l.832-1.42.006-.005c.317-.234 15.549-11.581 15.613-20.512.063-9.025-6.785-26.715-9.346-31.528-2.191-4.118-3.116-5.55-3.376-6.178a.936.936 0 0 1-.08-.26c-.064-.482 3.329-2.587 3.329-2.768 0-.18.814-2.286.814-2.286l4.498-.722 1.6.722s2.24 1.624 3.265 4.091c.29.698 1.657 3.822 3.464 7.945a17404.662 17404.662 0 0 0 12.027 27.309s.383.787-.897 3.735"/>
            <path fill="#CBCBCB" d="M107.346 55.838l-3.124 5.198c-.658 1.095-2.22 1.466-3.403.807l-.397-.22c-1.115-.62-1.466-1.922-.79-2.926l3.402-5.049c.712-1.056 2.273-1.364 3.419-.674l.118.072c1.024.616 1.358 1.822.775 2.792"/>
            <path fill="#EDF1F4" d="M107.631 99.573c-.063 9.049-15.361 20.545-15.68 20.782-.751-1.317 1.206-4.667 1.206-4.667s5.945-6.442 10.574-13.189c4.628-6.747-10.286-37.63-10.556-38.83-.17-.74.866-1.687 1.68-2.296.261.636 1.19 2.087 3.39 6.259 2.572 4.876 9.45 22.798 9.386 31.941M123.485 99.742l-2.23-.852s-1.115-.283-1.543.426c-.43.71-12.906 19.734-12.906 19.734s-.086.507.3.507h4.502s.472.06.986-.832c.515-.892 10.89-18.983 10.89-18.983"/>
            <path fill="#FFF" d="M9.178 121.246c-.643.483-1.89 1.406-2.763 1.955-1.22.77-1.697 0-1.697 0s-3.177-3.923-4.178-5.73c-1-1.81-.305-2.233-.305-2.233l3.551-2.057c1.823 2.754 4.254 6.374 5.392 8.065"/>
            <path fill="#004BD9" d="M106.798 69.508s4.234-1.72 4.728-.559l6.825 16.08s.287.802 0 1.003c-.288.2-2.714 1.644-2.714 1.644s-2.999-6.216-8.84-18.168"/>
            <path fill="#06356D" d="M70.211 121.616s-4.046.749-4.288 0c-.243-.748 4.693-8.315 5.745-8.398 1.052-.083 2.59 0 2.59 0s-.324 4.407-1.053 5.155c-.728.75-2.994 3.243-2.994 3.243"/>
            <path fill="#322FB5" d="M74.773 113.474s-2.904.957-3.131.234c-.228-.722 9.176-25.143 9.176-25.143s.42-3.988-.84-4.965c-1.26-.977-20.908-2.035-22.251-2.605-1.343-.57 6.364-4.558 8.388-4.477 2.024.081 13.78 1.465 13.78 1.465S83 80.1 83.42 81.403c.42 1.301-8.648 32.07-8.648 32.07"/>
            <path fill="#FFC493" d="M65.427 16.555s-.723 6.871-.847 7.236c-.097.288.51 2.043.772 2.774a.27.27 0 0 1-.228.359l-1.55.182s-1.607 3.937-2.472 3.979c-.254.012-1.25-.674-2.545-1.678-3.114-2.413-7.944-6.654-8.206-7.373a11.15 11.15 0 0 1-.304-1.125c-.432-1.846-.994-5.023-.768-5.247.288-.283 3.996-1.663 4.12-1.541.123.121.783 1.46 1.44 1.137.66-.327 2.185-1.787 2.68-1.705.494.08 2.594.405 3.17.811.577.407 1.812 1.38 2.553 1.298.742-.08 2.02-1.298 2.514-.487.494.813-.329 1.38-.329 1.38"/>
            <path fill="#FFC493" d="M59.24 29.226c-1.042-.456-1.863.21-2.497 1.082a8.036 8.036 0 0 0-.159.229v.002c-.537.811-.923 1.723-1.182 2.071-.573.77-7.01-5.157-7.01-5.157l2.43-6.73c.115.505.223.91.301 1.126.086.234.65.845 1.482 1.647.263.254.554.526.865.811a105.424 105.424 0 0 0 5.77 4.92M106.797 57.537c.061.417-2.605 5.905-2.981 6.17-.377.269-1.004-.474-.938-1.037.06-.562.938-3.323.627-3.885-.316-.565-2.575-1.752-2.826-1.692a.58.58 0 0 0-.16.107l-.008.007c-.566.47-2.185 2.295-1.964 3.178.251 1.01 1.509 1.78 1.992 2.048.487.268 1.114 1.365-.203 1.187-1.317-.178-3.921-1.78-4.483-2.255-.329-.275-.803-.928-1.147-1.429-.246-.363-.424-.648-.424-.648s.472-4.419 1.881-4.775c1.413-.356 6.556-2.286 7.31-1.842.752.446 3.26 4.453 3.324 4.866"/>
            <path fill="#0058FF" d="M55.171 55.642c-.74 3.353-1.536 6.13-1.888 6.461-.778.732-.065 2.56-1.102 2.744l-.011.001c-1.123.242-16.073 9.688-17.237 9.264-1.168-.427-2.14-.792-2.205-1.402-.065-.61-.389-7.62 0-12.557.39-4.938 1.232-12.985 2.334-16.764 1.103-3.78 6.614-12.801 6.614-12.801s1.816-2.865 2.724-2.683c.908.183 9.142 5.182 9.661 5.487.519.304 2.4 6.4 2.659 10.91.142 2.462-.662 7.316-1.549 11.34"/>
            <path fill="#004BD9" d="M55.067 56.02c-.733 3.399-1.523 6.214-1.872 6.55-.772.742-.064 2.596-1.093 2.782l-.011.001c-.2.026-3.141.424-3.72.74-.587.321-6.411 3.135-6.653 3.25.142-.11 2.431-1.925 3.496-4.32 1.099-2.472 2.043-11.903 1.014-13.698-1.03-1.794-3.383-7.505-2.892-9.878 0 0 10.622 13.974 11.731 14.573"/>
            <path fill="#FF3B88" d="M45.055 27.92c.54-.175 1.499-2.528 1.859-2.41.36.117 8.213 5.175 8.153 5.587-.06.412-.84 2.647-1.499 2.353-.66-.294-8.513-5.53-8.513-5.53"/>
            <path fill="#06356D" d="M81.339 115.796s-.316 2.294 5.319 3.706c0 0 .696.686.95 2.255 0 0-17.92.432-18.3 0-.38-.43-.95-1.02-.886-1.314.064-.294 4.813-6.954 4.813-6.954l3.735-1.105s3.482 1.365 3.8 1.624c.316.259.569 1.788.569 1.788"/>
            <path fill="#423FE0" d="M75.705 115.867c.192.061 6.082 2.068 9.667.973.256-.79 1.6-9.853 2.305-12.347.704-2.494 4.994-23.478 4.93-24.452-.065-.973.704-5.839-4.482-6.873-5.185-1.034-35.787-5.596-36.811-5.413-1.024.182-14.02 9.306-13.764 10.279.256.973 2.048 9.854 10.115 7.42 8.066-2.432 28.424-4.926 29-4.44.576.487-.191 1.278.96 1.582 1.153.304 1.41.183 1.665.547.256.366-6.5 31.095-6.145 31.372.355.277 2.56 1.352 2.56 1.352"/>
            <path fill="#FF3B88" d="M34.422 73.934s-1.427 3.878 3.1 4.177c0 0 12.663-11.252 13.768-11.175 0 0 1.939.505 1.034-2.395 0 0-.84-1.513-2.715-.315l-15.187 9.708"/>
            <path fill="#0058FF" d="M53.088 39.483s14.604 12.444 16.077 13.34c1.474.898 21.394.42 21.714.718.321.3-.576 5.803-1.857 6.163-1.281.358-19.793 2.93-20.946 2.392-1.153-.538-22.61-13.7-23.764-17.049-1.152-3.35-1.6-6.102.897-7.298 2.498-1.197 7.879 1.734 7.879 1.734"/>
            <path fill="#FF3B88" d="M91.074 54.274s4.777-.278 4.872.24c.094.518-1.103 5.374-1.89 5.374-.787 0-6.162 1.25-6.434.38-.273-.871 3.452-5.994 3.452-5.994"/>
            <path fill="#DB9F6D" d="M66.748 16.29s-2.067 1.722-4.85.88c-2.782-.842-3.204-.62-4.47.273-1.264.892-2.36 2.483-2.36 2.483s1.476-4.668 1.581-5.32c.105-.651 3.478-2.795 3.816-2.642.337.153 5.481 1.608 5.566 1.837.084.23.717 2.488.717 2.488"/>
            <path fill="#06356D" d="M67.016 15.057s-.688 1.903-2.342.882c-1.654-1.023-6.69-1.621-7.527-.29-.836 1.33-2.676 4.133-2.676 4.133s2.258-4.084 0-4.404c-2.258-.32-3.847.544-3.261 1.954.585 1.41 2.037 3.713 1.17 4.332-.866.62-2.325-.36-2.62.425-.296.786-.224 2.259-1.394 1.698-1.17-.56-4.851-1.173-5.687-4.39-.837-3.218 2.76-5.862 2.341-6.823-.418-.96.585-2.482 5.782-5.846C55.998 3.364 47.369 1.442 47.537 0c0 0 5.038.359 10.124 2.477 3.691 1.538 3.751 2.088 7.598 3.37 3.848 1.281 1.757 9.21 1.757 9.21"/>
            <path fill="#DB9F6D" d="M58.405 28.304c-1.048-.413-1.874.19-2.511.98a7.314 7.314 0 0 0-.16.207c.04-1.178-4.004-6.376-4.004-6.376.265.229.558.476.87.734a104.004 104.004 0 0 0 5.805 4.455M100.138 63.745c-1.37-.177-4.078-1.765-4.663-2.235-.342-.273-.835-.92-1.193-1.417.483-.09 1.024-.197 1.524-.317 1.16-.28 3.813-1.941 4.515-2.388-.59.466-2.273 2.275-2.043 3.15.261 1.003 1.568 1.765 2.072 2.03.506.267 1.159 1.353-.212 1.177"/>
        </g>
    </g>
</svg>
