<svg xmlns="http://www.w3.org/2000/svg" xmlns:xlink="http://www.w3.org/1999/xlink" width="557" height="485" viewBox="0 0 557 485">
    <defs>
        <path id="b" d="M.423 0H339.27v196H.423z"/>
        <filter id="a" width="149%" height="184.7%" x="-24.5%" y="-28.1%" filterUnits="objectBoundingBox">
            <feMorphology in="SourceAlpha" operator="dilate" radius="7" result="shadowSpreadOuter1"/>
            <feOffset dy="28" in="shadowSpreadOuter1" result="shadowOffsetOuter1"/>
            <feGaussianBlur in="shadowOffsetOuter1" result="shadowBlurOuter1" stdDeviation="16"/>
            <feColorMatrix in="shadowBlurOuter1" values="0 0 0 0 0.00784313725 0 0 0 0 0.0901960784 0 0 0 0 0.498039216 0 0 0 0.198016827 0"/>
        </filter>
        <path id="d" d="M.329 0h263.105v152H.329z"/>
        <filter id="c" width="140.7%" height="170.4%" x="-20.3%" y="-28%" filterUnits="objectBoundingBox">
            <feMorphology in="SourceAlpha" operator="dilate" radius="4.5" result="shadowSpreadOuter1"/>
            <feOffset dy="11" in="shadowSpreadOuter1" result="shadowOffsetOuter1"/>
            <feGaussianBlur in="shadowOffsetOuter1" result="shadowBlurOuter1" stdDeviation="11.5"/>
            <feColorMatrix in="shadowBlurOuter1" values="0 0 0 0 0.00784313725 0 0 0 0 0.0901960784 0 0 0 0 0.498039216 0 0 0 0.254206731 0"/>
        </filter>
        <path id="f" d="M.367 0h293.874v169H.367z"/>
        <filter id="e" width="136.4%" height="163.3%" x="-18.2%" y="-25.1%" filterUnits="objectBoundingBox">
            <feMorphology in="SourceAlpha" operator="dilate" radius="4.5" result="shadowSpreadOuter1"/>
            <feOffset dy="11" in="shadowSpreadOuter1" result="shadowOffsetOuter1"/>
            <feGaussianBlur in="shadowOffsetOuter1" result="shadowBlurOuter1" stdDeviation="11.5"/>
            <feColorMatrix in="shadowBlurOuter1" values="0 0 0 0 0.00784313725 0 0 0 0 0.0901960784 0 0 0 0 0.498039216 0 0 0 0.25 0"/>
        </filter>
    </defs>
    <g fill="none" fill-rule="evenodd">
        <path fill="#EDF2FD" d="M95.259 450.83c11.377 11.226 75.821-2.774 110.927-11.938 87.276-22.78 110.49-39.63 203.48-81.762 188.007-85.18 32.04-156.06 42.654-190.194C473.958 97.363 230.092 4 158.762 4 87.432 4 25.816 316.61 92.729 364.618c16.51 11.844-25.589 58.47 2.53 86.213z"/>
        <g transform="translate(98.74 18)">
            <use fill="#000" filter="url(#a)" xlink:href="#b"/>
            <use fill="#FFF" xlink:href="#b"/>
            <path fill="#ECEEFA" d="M.423 0h18.441v196H.423z"/>
            <ellipse cx="9.797" cy="10.953" fill="#0058FF" rx="5.186" ry="5.188"/>
            <ellipse cx="9.22" cy="38.047" fill="#BFC3D6" rx="3.458" ry="3.459"/>
            <ellipse cx="9.22" cy="51.882" fill="#BFC3D6" rx="3.458" ry="3.459"/>
            <ellipse cx="9.22" cy="65.718" fill="#BFC3D6" rx="3.458" ry="3.459"/>
            <ellipse cx="9.22" cy="79.553" fill="#BFC3D6" rx="3.458" ry="3.459"/>
        </g>
        <g transform="translate(173.74 105.356)">
            <rect width="213" height="18.644" x=".5" y=".5" stroke="#D6DCF8" rx="8.5"/>
            <rect width="149.57" height="15.022" x="2.301" y="2.311" fill="#0058FF" rx="7"/>
        </g>
        <path fill="#A0A5C2" fill-rule="nonzero" d="M245.48 84.57v3.752h-1.35v-10.03h2.96c.635 0 1.187.073 1.656.22.469.147.857.356 1.165.626.308.27.538.598.69.98.152.383.227.81.227 1.281 0 .467-.081.894-.245 1.281a2.756 2.756 0 0 1-.717 1.001c-.315.28-.706.498-1.173.655-.466.156-1 .234-1.603.234h-1.61zm0-1.078h1.61c.388 0 .73-.051 1.026-.154.296-.102.545-.246.745-.43.201-.185.353-.405.455-.662a2.26 2.26 0 0 0 .154-.847c0-.64-.197-1.138-.591-1.498-.394-.36-.99-.539-1.789-.539h-1.61v4.13zm7.945-2.26v4.521c0 .537.124.952.371 1.246.248.294.621.441 1.12.441.364 0 .707-.086 1.03-.259a3.2 3.2 0 0 0 .888-.72v-5.23h1.246v7.091h-.742c-.177 0-.289-.086-.336-.259l-.098-.763a3.9 3.9 0 0 1-1.036.823 2.715 2.715 0 0 1-1.316.311 2.56 2.56 0 0 1-1.025-.192 2.033 2.033 0 0 1-.746-.543 2.304 2.304 0 0 1-.451-.847c-.1-.331-.15-.697-.15-1.099v-4.522h1.245zm6.748 7.09v-10.31h1.253v4.241c.294-.34.632-.615 1.012-.822a2.68 2.68 0 0 1 1.305-.312c.411 0 .782.077 1.113.231.332.154.614.384.847.69.234.305.413.683.54 1.134.125.45.188.97.188 1.557 0 .523-.07 1.01-.21 1.46-.14.45-.341.84-.605 1.169a2.846 2.846 0 0 1-.966.777c-.38.189-.809.283-1.285.283-.457 0-.845-.088-1.165-.266a2.651 2.651 0 0 1-.837-.742l-.063.644c-.037.178-.144.266-.322.266h-.805zm3.164-6.209c-.406 0-.761.094-1.067.28-.306.187-.587.45-.844.791v3.43c.224.308.473.525.746.651s.577.19.913.19c.663 0 1.172-.236 1.526-.708.355-.471.532-1.143.532-2.016 0-.462-.04-.858-.122-1.19a2.327 2.327 0 0 0-.354-.815 1.375 1.375 0 0 0-.567-.466 1.886 1.886 0 0 0-.763-.147zm6.006-4.102v10.311h-1.246v-10.31h1.246zm3.584 3.22v7.091h-1.246v-7.09h1.246zm.28-2.226a.793.793 0 0 1-.073.34.978.978 0 0 1-.196.28.91.91 0 0 1-.284.192.85.85 0 0 1-.343.07.826.826 0 0 1-.34-.07.923.923 0 0 1-.472-.472.876.876 0 0 1 0-.686.9.9 0 0 1 .812-.55.85.85 0 0 1 .343.07.91.91 0 0 1 .48.48.84.84 0 0 1 .073.346zm5.978 3.395a.276.276 0 0 1-.259.154.487.487 0 0 1-.238-.077 5.488 5.488 0 0 0-.325-.171 3.057 3.057 0 0 0-.459-.175 2.187 2.187 0 0 0-.63-.08c-.21 0-.399.026-.567.08a1.362 1.362 0 0 0-.43.22.975.975 0 0 0-.273.326.874.874 0 0 0-.095.402.67.67 0 0 0 .158.455c.105.122.244.227.416.315.173.089.37.167.588.235.22.067.445.14.676.217.23.077.456.162.675.255.22.094.416.21.588.35a1.6 1.6 0 0 1 .417.515c.105.203.157.447.157.731 0 .327-.058.63-.175.907-.116.277-.289.518-.518.72a2.498 2.498 0 0 1-.84.48 3.451 3.451 0 0 1-1.148.175 3.58 3.58 0 0 1-1.344-.241 3.406 3.406 0 0 1-1.022-.62l.294-.476a.427.427 0 0 1 .133-.14.374.374 0 0 1 .203-.049.47.47 0 0 1 .266.098c.094.066.207.138.34.217.133.08.294.152.483.217.189.066.426.098.71.098.243 0 .455-.031.637-.094s.334-.148.455-.256c.122-.107.212-.23.27-.37.058-.14.087-.29.087-.449a.743.743 0 0 0-.157-.486 1.33 1.33 0 0 0-.417-.33 3.394 3.394 0 0 0-.591-.237 43.538 43.538 0 0 1-.68-.214 7.652 7.652 0 0 1-.678-.255 2.387 2.387 0 0 1-.592-.36 1.633 1.633 0 0 1-.416-.536 1.732 1.732 0 0 1-.158-.774 1.914 1.914 0 0 1 .658-1.439c.215-.188.479-.339.791-.45.313-.113.67-.169 1.071-.169.467 0 .886.074 1.257.22.37.148.692.35.962.606l-.28.455zm2.016 5.922v-10.31h1.246v4.171c.304-.322.64-.58 1.008-.773a2.7 2.7 0 0 1 1.274-.29c.388 0 .73.063 1.026.192.296.128.544.31.742.546.198.235.349.519.451.85.103.332.154.698.154 1.1v4.514h-1.246v-4.515c0-.536-.122-.953-.367-1.25-.245-.296-.62-.444-1.124-.444-.368 0-.712.089-1.032.266a3.4 3.4 0 0 0-.886.721v5.222h-1.246zm9.17-7.09v7.09h-1.246v-7.09h1.246zm.28-2.227a.793.793 0 0 1-.073.34.978.978 0 0 1-.196.28.91.91 0 0 1-.284.192.85.85 0 0 1-.343.07.826.826 0 0 1-.34-.07.923.923 0 0 1-.472-.472.876.876 0 0 1 0-.686.9.9 0 0 1 .812-.55.85.85 0 0 1 .343.07.91.91 0 0 1 .48.48.84.84 0 0 1 .073.346zm1.918 9.317v-7.09h.742c.178 0 .29.086.336.258l.098.77c.308-.34.653-.616 1.033-.826.38-.21.82-.315 1.32-.315.387 0 .729.064 1.025.193.296.128.544.31.742.546.198.235.349.519.451.85.103.332.154.698.154 1.1v4.514h-1.246v-4.515c0-.536-.122-.953-.367-1.25-.245-.296-.62-.444-1.124-.444-.368 0-.712.089-1.032.266a3.4 3.4 0 0 0-.886.721v5.222h-1.246zm10.171-7.21c.308 0 .597.034.865.102.268.067.512.167.731.297h1.925v.462c0 .154-.098.252-.294.294l-.805.112c.16.304.238.642.238 1.015a2.136 2.136 0 0 1-.752 1.666c-.236.2-.516.355-.84.462-.324.108-.68.161-1.068.161-.33 0-.644-.04-.938-.119-.149.094-.262.194-.34.301a.542.542 0 0 0-.115.315c0 .168.068.295.203.382.136.086.315.148.54.185.223.038.478.06.762.07.285.01.576.025.872.046.296.02.587.057.871.108.285.052.54.136.763.252.224.117.404.278.54.483.135.206.202.472.202.798 0 .304-.075.598-.227.882-.152.285-.37.538-.655.76a3.373 3.373 0 0 1-1.043.532c-.41.133-.875.2-1.393.2s-.971-.052-1.361-.155a3.184 3.184 0 0 1-.97-.413 1.8 1.8 0 0 1-.577-.598 1.42 1.42 0 0 1-.193-.71c0-.35.111-.648.333-.893.222-.245.526-.44.913-.585-.2-.093-.36-.218-.48-.374-.118-.157-.178-.365-.178-.627 0-.102.02-.209.056-.318.038-.11.095-.218.172-.326a1.826 1.826 0 0 1 .675-.567 2.207 2.207 0 0 1-.822-.78 2.137 2.137 0 0 1-.298-1.138c0-.345.067-.659.2-.941.133-.283.318-.523.556-.721.238-.199.522-.351.85-.459a3.47 3.47 0 0 1 1.082-.16zm2.212 7.595a.609.609 0 0 0-.147-.427.95.95 0 0 0-.399-.248 2.896 2.896 0 0 0-.58-.13 8.825 8.825 0 0 0-.694-.06 99.64 99.64 0 0 1-.742-.038 6.826 6.826 0 0 1-.72-.077c-.267.126-.482.28-.648.462a.934.934 0 0 0-.126 1.096c.082.137.206.256.374.357.168.1.38.18.634.238.254.058.554.087.9.087.335 0 .636-.03.902-.09.266-.061.492-.148.676-.26.184-.112.325-.245.423-.399a.932.932 0 0 0 .147-.51zm-2.212-3.85c.252 0 .475-.035.669-.105.194-.07.356-.168.486-.294.131-.126.23-.276.294-.451a1.64 1.64 0 0 0 .098-.578c0-.434-.131-.78-.395-1.036s-.648-.385-1.152-.385c-.499 0-.88.129-1.144.385-.264.257-.396.602-.396 1.036 0 .21.034.403.102.578.068.175.167.325.297.451.131.126.292.224.483.294.192.07.411.105.658.105z"/>
        <g transform="translate(30 205)">
            <g transform="translate(.717)">
                <use fill="#000" filter="url(#c)" xlink:href="#d"/>
                <use fill="#FFF" xlink:href="#d"/>
                <path fill="#ECEEFA" d="M.329 0h14.319v152H.329z"/>
                <path fill="#B7C5D9" fill-rule="nonzero" d="M251.102 12.653c-.347 0-.667-.098-.96-.295a2.067 2.067 0 0 1-.695-.795c-.17-.333-.255-.7-.255-1.1 0-.4.085-.767.255-1.1.17-.333.401-.598.695-.795.293-.197.613-.295.96-.295.346 0 .666.098.96.295.293.197.525.462.695.795.17.333.255.7.255 1.1 0 .4-.085.767-.255 1.1-.17.333-.402.598-.695.795a1.689 1.689 0 0 1-.96.295zm-1.05-2.78a1.338 1.338 0 0 0-.135 1.55c.123.207.29.372.5.495.21.123.438.185.685.185.246 0 .475-.062.685-.185.21-.123.376-.288.5-.495.123-.207.185-.433.185-.68 0-.133-.134-.22-.4-.26a5.934 5.934 0 0 0-.77-.02h-.2a1.31 1.31 0 0 1-.66-.165.838.838 0 0 1-.39-.425zm4.33 4.97v1.64a.53.53 0 0 1-.16.39.53.53 0 0 1-.39.16h-5.46a.53.53 0 0 1-.39-.16.53.53 0 0 1-.16-.39v-1.64a1.642 1.642 0 0 1 1.64-1.64h1.25l-.12.11a.142.142 0 0 0-.04.105c0 .043.013.082.04.115l.26.24a.273.273 0 0 1 .07.12.147.147 0 0 1-.01.12l-.5 1.23a.303.303 0 0 0-.015.13c.003.053.018.093.045.12l.58.85c.02.033.046.05.08.05.033 0 .063-.017.09-.05l.57-.85c.026-.027.041-.067.045-.12a.303.303 0 0 0-.015-.13l-.5-1.23a.147.147 0 0 1-.01-.12.273.273 0 0 1 .07-.12l.26-.24a.158.158 0 0 0 .05-.115.128.128 0 0 0-.05-.105l-.12-.11h1.25a1.642 1.642 0 0 1 1.64 1.64z"/>
                <ellipse cx="7.607" cy="8.494" fill="#0058FF" rx="4.027" ry="4.024"/>
                <ellipse cx="7.159" cy="29.506" fill="#BFC3D6" rx="2.685" ry="2.682"/>
                <ellipse cx="7.159" cy="40.235" fill="#BFC3D6" rx="2.685" ry="2.682"/>
                <ellipse cx="7.159" cy="50.965" fill="#BFC3D6" rx="2.685" ry="2.682"/>
                <ellipse cx="7.159" cy="61.694" fill="#BFC3D6" rx="2.685" ry="2.682"/>
            </g>
            <circle cx="139.217" cy="54.5" r="13.5" fill="#FFFEFE"/>
            <g transform="translate(109.717 42)">
                <path fill="#FFD81D" d="M0 0h48v70H0z"/>
                <g transform="translate(2.667 27.188)">
                    <ellipse cx="8.444" cy="9.158" fill="#FF8D31" rx="8.444" ry="8.526"/>
                    <path fill="#0058FF" d="M14.222 22.171H40v15.256H14.222z"/>
                </g>
                <ellipse cx="29.333" cy="15.757" fill="#FFFEFE" rx="13.333" ry="13.462"/>
            </g>
            <path fill="#141414" fill-rule="nonzero" d="M92.522 25h-.97v-7.165h.97V25zm3.315.08c-.4 0-.707-.112-.922-.335-.215-.223-.323-.545-.323-.965v-3.1h-.61a.2.2 0 0 1-.135-.047c-.036-.032-.055-.081-.055-.148v-.355l.83-.105.205-1.565a.19.19 0 0 1 .065-.123.207.207 0 0 1 .14-.047h.45v1.745h1.45v.645h-1.45v3.04c0 .213.052.372.155.475a.541.541 0 0 0 .4.155.706.706 0 0 0 .243-.038 1.04 1.04 0 0 0 .177-.082c.05-.03.093-.057.128-.082a.167.167 0 0 1 .092-.038c.047 0 .089.028.125.085l.26.425a1.658 1.658 0 0 1-.555.337c-.216.082-.44.123-.67.123zm2.82-7.62a1.83 1.83 0 0 1 .275.96c0 .303-.074.592-.222.867a2.728 2.728 0 0 1-.618.758l-.275-.17a.126.126 0 0 1-.052-.055.164.164 0 0 1 .037-.18 2.317 2.317 0 0 0 .29-.442 1.36 1.36 0 0 0 .095-.258c.024-.09.035-.185.035-.285 0-.107-.015-.217-.047-.33a1.465 1.465 0 0 0-.163-.36.204.204 0 0 1-.035-.11c0-.08.045-.138.135-.175l.545-.22zm4.395 3.31a.197.197 0 0 1-.185.11.348.348 0 0 1-.17-.055 3.92 3.92 0 0 0-.232-.122 2.184 2.184 0 0 0-.328-.125 1.562 1.562 0 0 0-.45-.058c-.15 0-.285.02-.405.058a.973.973 0 0 0-.307.157.697.697 0 0 0-.195.233.624.624 0 0 0-.068.287c0 .13.038.238.113.325a.978.978 0 0 0 .297.225c.124.063.264.12.42.168.157.048.318.1.483.155.165.055.326.115.482.182.157.067.297.15.42.25.124.1.223.222.298.367.075.146.112.32.112.523 0 .233-.041.45-.125.648-.083.198-.206.37-.37.515-.163.145-.363.259-.6.342-.236.083-.51.125-.82.125-.353 0-.673-.057-.96-.172a2.433 2.433 0 0 1-.73-.443l.21-.34a.305.305 0 0 1 .095-.1.267.267 0 0 1 .145-.035c.06 0 .124.023.19.07.067.047.148.098.243.155a1.572 1.572 0 0 0 .853.225c.173 0 .324-.022.454-.068a.956.956 0 0 0 .325-.182.723.723 0 0 0 .193-.265.824.824 0 0 0 .062-.32.53.53 0 0 0-.112-.348.95.95 0 0 0-.298-.235 2.424 2.424 0 0 0-.422-.17c-.158-.048-.32-.099-.485-.152a5.465 5.465 0 0 1-.485-.183 1.705 1.705 0 0 1-.423-.257 1.167 1.167 0 0 1-.297-.383 1.237 1.237 0 0 1-.113-.552 1.348 1.348 0 0 1 .47-1.027c.154-.136.342-.243.565-.323.224-.08.479-.12.765-.12.334 0 .633.052.898.157.265.106.494.25.687.433l-.2.325zm6.935 4.23c-.126 0-.206-.062-.24-.185l-.08-.615a2.666 2.666 0 0 1-.742.633 1.902 1.902 0 0 1-.958.237c-.29 0-.553-.056-.79-.168a1.638 1.638 0 0 1-.605-.492 2.346 2.346 0 0 1-.385-.81 4.17 4.17 0 0 1-.135-1.115c0-.373.05-.72.15-1.043.1-.321.245-.6.433-.837s.417-.422.687-.558a2.03 2.03 0 0 1 .92-.202c.31 0 .575.052.795.158.22.105.417.252.59.442v-2.81h.89V25h-.53zm-1.725-.65c.29 0 .545-.067.763-.2.218-.133.42-.322.602-.565v-2.45a1.408 1.408 0 0 0-.537-.463 1.551 1.551 0 0 0-.648-.132c-.473 0-.836.168-1.09.505-.253.337-.38.817-.38 1.44 0 .33.029.612.085.848.057.235.14.428.25.58.11.151.245.262.405.332.16.07.344.105.55.105zm5.8-4.495c.37 0 .705.062 1.003.185.298.123.552.298.76.525.208.227.368.5.48.822.112.322.167.681.167 1.078 0 .4-.055.76-.167 1.08-.112.32-.272.593-.48.82-.208.227-.462.4-.76.523a2.633 2.633 0 0 1-1.003.182c-.37 0-.704-.06-1.002-.183a2.111 2.111 0 0 1-.763-.522c-.21-.227-.371-.5-.485-.82a3.22 3.22 0 0 1-.17-1.08c0-.397.057-.756.17-1.078.114-.321.275-.595.485-.822.21-.227.465-.402.763-.525a2.602 2.602 0 0 1 1.002-.185zm0 4.52c.5 0 .874-.167 1.12-.503.247-.335.37-.802.37-1.402 0-.603-.123-1.073-.37-1.41-.246-.337-.62-.505-1.12-.505-.253 0-.473.043-.66.13a1.235 1.235 0 0 0-.467.375 1.666 1.666 0 0 0-.28.603 3.23 3.23 0 0 0-.093.807c0 .3.031.568.093.805.062.237.155.436.28.598.125.161.28.285.467.372.187.087.407.13.66.13zm3.51.625v-5.065h.53c.127 0 .207.062.24.185l.07.55c.22-.243.466-.44.738-.59.272-.15.586-.225.942-.225.277 0 .521.046.733.137.212.092.388.222.53.39.142.169.25.371.322.608.074.237.11.498.11.785V25h-.89v-3.225c0-.383-.087-.68-.262-.892-.175-.212-.443-.318-.803-.318-.263 0-.509.063-.737.19-.228.127-.44.298-.633.515V25h-.89zm7.565-5.145c.304 0 .584.05.84.152a1.885 1.885 0 0 1 1.103 1.15c.105.282.157.603.157.963 0 .14-.015.233-.045.28-.03.047-.086.07-.17.07h-3.37c.007.32.05.598.13.835s.19.434.33.593c.14.158.307.276.5.355.194.078.41.117.65.117.224 0 .416-.026.578-.078a2.748 2.748 0 0 0 .71-.335.388.388 0 0 1 .202-.077c.074 0 .13.028.17.085l.25.325a1.69 1.69 0 0 1-.395.348 2.46 2.46 0 0 1-.492.242 3.313 3.313 0 0 1-1.097.19c-.35 0-.673-.06-.968-.178a2.123 2.123 0 0 1-.765-.52 2.386 2.386 0 0 1-.503-.847 3.446 3.446 0 0 1-.18-1.16c0-.353.055-.683.163-.99.108-.307.264-.572.467-.797.204-.226.452-.402.745-.53.294-.129.624-.193.99-.193zm.02.655c-.43 0-.768.124-1.015.372-.246.249-.4.593-.46 1.033h2.755c0-.207-.028-.396-.085-.567a1.265 1.265 0 0 0-.25-.445 1.119 1.119 0 0 0-.402-.29 1.357 1.357 0 0 0-.543-.103zm2.955 3.875a.562.562 0 0 1 .163-.398.563.563 0 0 1 .187-.122.628.628 0 0 1 .24-.045c.1 0 .19.018.268.055a.534.534 0 0 1 .195.152.69.69 0 0 1 .117.226c.027.085.04.177.04.277 0 .15-.021.306-.065.467a2.497 2.497 0 0 1-.185.48 2.866 2.866 0 0 1-.7.878l-.15-.145a.185.185 0 0 1-.065-.14c0-.043.024-.088.07-.135.034-.037.076-.086.128-.147.052-.062.104-.133.157-.213.054-.08.103-.168.148-.265s.077-.2.097-.31h-.065a.59.59 0 0 1-.235-.045.539.539 0 0 1-.182-.127.581.581 0 0 1-.12-.195.695.695 0 0 1-.043-.248zm5.845.695c-.4 0-.707-.112-.922-.335-.215-.223-.323-.545-.323-.965v-3.1h-.61a.2.2 0 0 1-.135-.047c-.036-.032-.055-.081-.055-.148v-.355l.83-.105.205-1.565a.19.19 0 0 1 .065-.123.207.207 0 0 1 .14-.047h.45v1.745h1.45v.645h-1.45v3.04c0 .213.052.372.155.475a.541.541 0 0 0 .4.155.706.706 0 0 0 .243-.038 1.04 1.04 0 0 0 .177-.082c.05-.03.093-.057.128-.082a.167.167 0 0 1 .092-.038c.047 0 .089.028.125.085l.26.425a1.658 1.658 0 0 1-.555.337c-.216.082-.44.123-.67.123zm2.195-.08v-5.065h.51c.097 0 .164.018.2.055.037.037.062.1.075.19l.06.79c.174-.353.388-.63.643-.828a1.42 1.42 0 0 1 .897-.297 1.325 1.325 0 0 1 .695.18l-.115.665c-.023.083-.075.125-.155.125a.778.778 0 0 1-.215-.048 1.356 1.356 0 0 0-.405-.047c-.31 0-.569.09-.777.27-.208.18-.383.442-.523.785V25h-.89zm5.515 1.495a.466.466 0 0 1-.112.16c-.045.04-.114.06-.208.06h-.66l.925-2.01-2.09-4.77h.77c.077 0 .137.02.18.058a.36.36 0 0 1 .095.127l1.355 3.19c.03.073.056.147.078.22.022.073.04.148.057.225l.07-.225a3.68 3.68 0 0 1 .08-.225l1.315-3.185a.284.284 0 0 1 .103-.133.263.263 0 0 1 .157-.052h.71l-2.825 6.56zm6.555-6.56V25h-.89v-5.065h.89zm.2-1.59a.566.566 0 0 1-.052.242.698.698 0 0 1-.14.2.65.65 0 0 1-.203.138.608.608 0 0 1-.487 0 .66.66 0 0 1-.338-.338.626.626 0 0 1 .137-.695.66.66 0 0 1 .2-.137.608.608 0 0 1 .487 0 .65.65 0 0 1 .344.343.6.6 0 0 1 .052.247zm2.905 6.735c-.4 0-.707-.112-.922-.335-.215-.223-.323-.545-.323-.965v-3.1h-.61a.2.2 0 0 1-.135-.047c-.036-.032-.055-.081-.055-.148v-.355l.83-.105.205-1.565a.19.19 0 0 1 .065-.123.207.207 0 0 1 .14-.047h.45v1.745h1.45v.645h-1.45v3.04c0 .213.052.372.155.475a.541.541 0 0 0 .4.155.706.706 0 0 0 .243-.038 1.04 1.04 0 0 0 .177-.082c.05-.03.093-.057.128-.082a.167.167 0 0 1 .092-.038c.047 0 .089.028.125.085l.26.425a1.658 1.658 0 0 1-.555.337c-.216.082-.44.123-.67.123zm4.125-.08v-5.065h.53c.127 0 .207.062.24.185l.07.55c.22-.243.466-.44.738-.59.272-.15.586-.225.942-.225.277 0 .521.046.733.137.212.092.388.222.53.39.142.169.25.371.322.608.074.237.11.498.11.785V25h-.89v-3.225c0-.383-.087-.68-.262-.892-.175-.212-.443-.318-.803-.318-.263 0-.509.063-.737.19-.228.127-.44.298-.633.515V25h-.89zm7.61-5.145c.37 0 .705.062 1.003.185.298.123.552.298.76.525.208.227.368.5.48.822.112.322.167.681.167 1.078 0 .4-.055.76-.167 1.08-.112.32-.272.593-.48.82-.208.227-.462.4-.76.523a2.633 2.633 0 0 1-1.003.182c-.37 0-.704-.06-1.002-.183a2.111 2.111 0 0 1-.763-.522c-.21-.227-.371-.5-.485-.82a3.22 3.22 0 0 1-.17-1.08c0-.397.057-.756.17-1.078.114-.321.275-.595.485-.822.21-.227.465-.402.763-.525a2.602 2.602 0 0 1 1.002-.185zm0 4.52c.5 0 .874-.167 1.12-.503.247-.335.37-.802.37-1.402 0-.603-.123-1.073-.37-1.41-.246-.337-.62-.505-1.12-.505-.253 0-.473.043-.66.13a1.235 1.235 0 0 0-.467.375 1.666 1.666 0 0 0-.28.603 3.23 3.23 0 0 0-.093.807c0 .3.031.568.093.805.062.237.155.436.28.598.125.161.28.285.467.372.187.087.407.13.66.13zm2.85-4.44h.7a.275.275 0 0 1 .275.185l.97 3.26c.027.12.052.236.075.348.024.111.044.224.06.337a5.92 5.92 0 0 1 .09-.338l.105-.347 1.07-3.28a.264.264 0 0 1 .088-.125.244.244 0 0 1 .157-.05h.385c.067 0 .122.017.165.05a.258.258 0 0 1 .09.125l1.045 3.28c.037.117.07.232.098.345l.082.335a5.15 5.15 0 0 1 .15-.68l.99-3.26a.267.267 0 0 1 .26-.185h.67L171.797 25h-.705c-.086 0-.146-.057-.18-.17l-1.12-3.435a1.93 1.93 0 0 1-.065-.232 53.65 53.65 0 0 0-.05-.233l-.05.235c-.016.08-.038.158-.065.235l-1.135 3.43c-.036.113-.105.17-.205.17h-.67l-1.64-5.065zm9.74-2.1v2.86a12.625 12.625 0 0 1-.067 1.317c-.015.152-.033.315-.053.488h-.605c-.02-.173-.037-.336-.052-.488a15.03 15.03 0 0 1-.06-.877c-.005-.143-.008-.29-.008-.44v-2.86h.845zm-1.06 6.615a.635.635 0 0 1 .178-.445.612.612 0 0 1 .442-.185.641.641 0 0 1 .445.185.635.635 0 0 1 .18.445.63.63 0 0 1-.18.445.635.635 0 0 1-.445.18.635.635 0 0 1-.245-.047.58.58 0 0 1-.197-.133.636.636 0 0 1-.178-.445z"/>
        </g>
        <g>
            <g transform="translate(231.24 273)">
                <use fill="#000" filter="url(#e)" xlink:href="#f"/>
                <use fill="#FFF" xlink:href="#f"/>
                <path fill="#ECEEFA" d="M.367 0H16.36v169H.367z"/>
                <path fill="#0058FF" d="M142.243 101.645V61.678a2 2 0 0 1 2-2h.649a2 2 0 0 1 2 2v39.967a2 2 0 0 1-2 2h-.65a2 2 0 0 1-2-2z"/>
                <path fill="#FF3B88" d="M151.54 101.645V72.67a2 2 0 0 1 2-2h.65a2 2 0 0 1 2 2v28.975a2 2 0 0 1-2 2h-.65a2 2 0 0 1-2-2z"/>
                <path fill="#0058FF" d="M160.838 101.645V68.548a2 2 0 0 1 2-2h.649a2 2 0 0 1 2 2v33.097a2 2 0 0 1-2 2h-.649a2 2 0 0 1-2-2z"/>
                <path fill="#FF3B88" d="M170.136 101.645v-37.22a2 2 0 0 1 2-2h.649a2 2 0 0 1 2 2v37.22a2 2 0 0 1-2 2h-.65a2 2 0 0 1-2-2z"/>
                <path fill="#A0A5C2" fill-rule="nonzero" d="M70.289 80.462c-.27 0-.526-.045-.768-.135a1.846 1.846 0 0 1-1.075-1.042 2.227 2.227 0 0 1-.162-.878c0-.313.058-.606.175-.88a2.17 2.17 0 0 1 .49-.715c.21-.203.46-.363.75-.48.29-.116.608-.175.955-.175.343 0 .655.057.935.17.28.114.52.272.72.475.2.204.354.447.462.73.109.284.163.597.163.94a2.891 2.891 0 0 1-.225 1.13c-.073.177-.161.353-.263.528a7.873 7.873 0 0 1-.347.542l-1.745 2.52a.457.457 0 0 1-.185.153.629.629 0 0 1-.275.057h-.82l2.18-2.855c.073-.096.142-.188.205-.275.063-.086.123-.173.18-.26-.183.147-.39.259-.62.335-.23.077-.473.115-.73.115zm1.79-2.095c0-.223-.036-.425-.108-.607a1.34 1.34 0 0 0-.297-.463 1.3 1.3 0 0 0-.453-.292 1.575 1.575 0 0 0-.577-.103c-.22 0-.421.036-.603.108a1.307 1.307 0 0 0-.763.752 1.56 1.56 0 0 0-.104.58c0 .227.032.43.097.608s.159.33.28.452c.122.124.27.217.445.28.175.064.371.095.588.095.24 0 .452-.039.637-.117a1.338 1.338 0 0 0 .758-.763c.067-.17.1-.346.1-.53zm6.765 1.455c0 .627-.068 1.17-.203 1.628-.135.458-.319.837-.552 1.137-.233.3-.51.524-.828.67-.318.147-.659.22-1.022.22-.367 0-.708-.073-1.023-.22a2.231 2.231 0 0 1-.822-.67c-.233-.3-.417-.679-.55-1.137-.133-.458-.2-1-.2-1.628 0-.626.067-1.17.2-1.63.133-.46.317-.84.55-1.142.233-.302.507-.526.822-.673.315-.146.656-.22 1.023-.22.363 0 .704.074 1.022.22.319.147.595.371.828.673.233.302.417.682.552 1.142.135.46.203 1.004.203 1.63zm-.925 0c0-.546-.046-1.005-.138-1.377-.091-.372-.215-.67-.37-.898a1.397 1.397 0 0 0-.537-.487 1.442 1.442 0 0 0-1.27 0 1.38 1.38 0 0 0-.535.487c-.153.227-.276.526-.368.898-.091.372-.137.83-.137 1.377s.046 1.005.137 1.375c.092.37.215.669.368.895.153.227.332.39.535.488a1.442 1.442 0 0 0 1.27 0c.203-.098.382-.26.537-.488.155-.226.279-.525.37-.895.092-.37.138-.828.138-1.375zm4.76-1.855c0 .28-.043.531-.13.753a1.689 1.689 0 0 1-.348.56 1.475 1.475 0 0 1-.507.347c-.193.08-.395.12-.605.12-.227 0-.436-.04-.628-.12a1.456 1.456 0 0 1-.502-.347 1.588 1.588 0 0 1-.335-.56 2.207 2.207 0 0 1-.12-.753c0-.286.04-.541.12-.765a1.61 1.61 0 0 1 .335-.565c.143-.153.31-.27.502-.35.192-.08.401-.12.628-.12.223 0 .432.04.627.12.195.08.364.197.505.35.142.154.254.342.335.565.082.224.123.479.123.765zm-.695 0c0-.22-.023-.406-.07-.56a1.073 1.073 0 0 0-.193-.377.713.713 0 0 0-.285-.213.927.927 0 0 0-.347-.065.927.927 0 0 0-.348.065.694.694 0 0 0-.282.213c-.08.098-.143.224-.188.377a2.01 2.01 0 0 0-.067.56c0 .217.022.401.067.553.045.152.108.275.188.37a.69.69 0 0 0 .282.205.96.96 0 0 0 .348.062.96.96 0 0 0 .347-.062.709.709 0 0 0 .285-.205 1.02 1.02 0 0 0 .193-.37c.047-.152.07-.336.07-.553zm3.2-1.55c.043-.056.089-.1.137-.132a.347.347 0 0 1 .193-.048h.64l-5.235 7.02a.401.401 0 0 1-.12.105.327.327 0 0 1-.165.04h-.66l5.21-6.985zm1.455 5.295c0 .28-.043.53-.13.75-.087.22-.203.406-.348.558a1.481 1.481 0 0 1-.505.347c-.191.08-.392.12-.602.12-.227 0-.436-.04-.628-.12a1.456 1.456 0 0 1-.502-.347 1.591 1.591 0 0 1-.335-.558c-.08-.22-.12-.47-.12-.75 0-.286.04-.542.12-.767.08-.225.192-.414.335-.568.143-.153.31-.27.502-.35.192-.08.401-.12.628-.12.223 0 .432.04.625.12.193.08.362.197.505.35.143.154.255.343.335.568.08.225.12.48.12.767zm-.69 0c0-.22-.023-.407-.07-.562a1.044 1.044 0 0 0-.193-.378.722.722 0 0 0-.285-.21.927.927 0 0 0-.347-.065.927.927 0 0 0-.348.065.703.703 0 0 0-.282.21 1.04 1.04 0 0 0-.188.378 2.038 2.038 0 0 0-.067.562c0 .217.022.4.067.55.045.15.108.273.188.368a.69.69 0 0 0 .282.205.96.96 0 0 0 .348.062.96.96 0 0 0 .347-.062.709.709 0 0 0 .285-.205c.082-.095.146-.218.193-.368.047-.15.07-.333.07-.55z"/>
                <path stroke="#FF3B88" stroke-linecap="round" stroke-width="3" d="M61.575 94.785c8.563 8.828 22.695 9.074 31.563.548 8.868-8.525 9.114-22.594.55-31.423-8.563-8.828-22.694-9.074-31.563-.548"/>
                <path stroke="#0058FF" stroke-linecap="round" stroke-width="3" d="M77.632 101.57c12.328 0 22.321-9.95 22.321-22.222 0-12.274-9.993-22.223-22.321-22.223-12.328 0-22.322 9.95-22.322 22.223"/>
                <path fill="#B7C5D9" fill-rule="nonzero" d="M281.368 13.744c-.346 0-.666-.098-.96-.295a2.067 2.067 0 0 1-.695-.795c-.17-.333-.255-.7-.255-1.1 0-.4.085-.767.255-1.1.17-.333.402-.598.695-.795.294-.197.614-.295.96-.295.347 0 .667.098.96.295.294.197.525.462.695.795.17.333.255.7.255 1.1 0 .4-.085.767-.255 1.1-.17.333-.401.598-.695.795a1.689 1.689 0 0 1-.96.295zm-1.05-2.78a1.338 1.338 0 0 0-.135 1.55c.124.207.29.372.5.495.21.123.439.185.685.185.247 0 .475-.062.685-.185.21-.123.377-.288.5-.495.124-.207.185-.433.185-.68 0-.133-.133-.22-.4-.26a5.934 5.934 0 0 0-.77-.02h-.2a1.31 1.31 0 0 1-.66-.165.838.838 0 0 1-.39-.425zm4.33 4.97v1.64a.53.53 0 0 1-.16.39.53.53 0 0 1-.39.16h-5.46a.53.53 0 0 1-.39-.16.53.53 0 0 1-.16-.39v-1.64a1.642 1.642 0 0 1 1.64-1.64h1.25l-.12.11a.142.142 0 0 0-.04.105c0 .043.014.082.04.115l.26.24a.273.273 0 0 1 .07.12.147.147 0 0 1-.01.12l-.5 1.23a.303.303 0 0 0-.015.13c.004.053.019.093.045.12l.58.85c.02.033.047.05.08.05.034 0 .064-.017.09-.05l.57-.85c.027-.027.042-.067.045-.12a.303.303 0 0 0-.015-.13l-.5-1.23a.147.147 0 0 1-.01-.12.273.273 0 0 1 .07-.12l.26-.24a.158.158 0 0 0 .05-.115.128.128 0 0 0-.05-.105l-.12-.11h1.25a1.642 1.642 0 0 1 1.64 1.64z"/>
                <ellipse cx="9.316" cy="9.274" fill="#0058FF" rx="4.14" ry="4.122"/>
                <g>
                    <path fill="#0058FF" d="M241.693 102.705c12.29 0 22.254-9.842 22.254-21.983 0-12.142-9.963-21.984-22.254-21.984-12.29 0-22.254 9.842-22.254 21.984h22.254v21.983z"/>
                    <path fill="#FF3B88" d="M219.596 82.53h20.291v20.61c-11.908-1.607-18.672-8.477-20.29-20.61z"/>
                </g>
                <ellipse cx="8.798" cy="33.491" fill="#BFC3D6" rx="2.588" ry="2.576"/>
                <ellipse cx="8.798" cy="44.826" fill="#BFC3D6" rx="2.588" ry="2.576"/>
                <ellipse cx="8.798" cy="57.192" fill="#BFC3D6" rx="2.588" ry="2.576"/>
                <ellipse cx="8.798" cy="69.558" fill="#BFC3D6" rx="2.588" ry="2.576"/>
            </g>
        </g>
    </g>
</svg>
