<?xml version="1.0" encoding="UTF-8"?>
<svg width="230px" height="170px" viewBox="0 0 230 170" version="1.1" xmlns="http://www.w3.org/2000/svg" xmlns:xlink="http://www.w3.org/1999/xlink">
    <!-- Generator: Sketch 54.1 (76490) - https://sketchapp.com -->
    <title>enterprise</title>
    <desc>Created with Sketch.</desc>
    <defs>
        <polygon id="path-1" points="0.10576078 0.874155448 169.788357 0.874155448 169.788357 46.0990678 0.10576078 46.0990678"></polygon>
    </defs>
    <g id="enterprise" stroke="none" stroke-width="1" fill="none" fill-rule="evenodd">
        <g id="Group-66">
            <g id="Group-47" transform="translate(0.000000, 8.000000)">
                <g id="Group-55" transform="translate(0.925373, 0.000000)">
                    <path d="M83.8356824,134.574519 C111.268298,120.928454 183.528574,152.87583 212.090556,131.243573 C228.517083,118.802458 165.440965,128.789656 194.201229,79.6363918 C206.831118,58.0510449 126.299642,60.774708 136.468157,52.5524836 C148.016071,43.2148825 185.261261,48.4835076 179.489035,43.1644291 C144.619353,11.0321888 63.2560203,-8.01243364 49.8015824,3.26774441 C38.2089459,12.9869913 70.6835232,39.1712624 56.6662616,56.3969764 C42.649,73.6226904 -11.5565266,73.0235007 37.7883939,85.3431738 C54.6329609,89.5486636 56.1291644,96.8335732 59.2405162,102.710892 C69.7561153,122.574776 59.4265337,146.716592 83.8356824,134.574519 Z" id="Oval-Copy-25" fill="#ECEEFA" transform="translate(116.160733, 69.500000) scale(-1, 1) translate(-116.160733, -69.500000) "></path>
                    <ellipse id="Oval-Copy-22" fill="#EDF1F4" cx="114.642181" cy="146.258065" rx="93.0796807" ry="7.25806452"></ellipse>
                    <g id="Group-54" transform="translate(0.000000, 16.426667)">
                        <g id="Group-52" transform="translate(132.447506, 31.826667)">
                            <path d="M35.2976202,51.7584896 C33.823678,53.4250911 28.6338716,56.9778519 24.8658814,59.2469098 C22.7141345,60.5419963 21.0246404,61.4198015 20.7533134,61.2878719 C20.7533134,61.2878719 20.7513515,61.2853576 20.7461358,61.2834595 C20.0104195,60.9249194 19.9122115,60.5684837 18.9849266,60.5654228 C18.9849266,60.5654228 15.2594285,58.7631632 13.4889593,57.4131234 C11.7184984,56.0655915 6.41014042,53.719551 5.25072042,52.0511533 C4.09194329,50.38025 10.2702581,48.0119389 22.8931255,35.9859415 C30.1042492,29.1169817 32.8356,33.5303697 33.9433937,33.7697623 C36.4189614,34.2970544 38.4154764,36.262258 39.8298004,37.6267961 C39.9597977,37.7513626 40.0878811,37.8878351 40.2199069,38.0349788 C42.1782662,40.2759175 37.4670159,49.3060991 35.2976202,51.7584896" id="Fill-41" fill="#0058FF" transform="translate(22.899482, 46.727645) rotate(-26.000000) translate(-22.899482, -46.727645) "></path>
                            <path d="M26.0695793,60.2176973 C23.9790319,61.5540383 22.3386916,62.459855 22.0751025,62.32382 C22.0751025,62.32382 22.0731962,62.3212268 22.0681294,62.3192699 C21.9222524,62.2010849 19.5445943,60.315802 17.334454,58.207953 C15.1274807,56.1014078 14.5630428,55.2756207 14.5312479,55.2250714 C14.7200138,55.3058881 23.5623363,59.1209876 23.6985461,55.5631722 C23.8377942,51.967857 24.6170219,39.366462 25.8569166,40.5437088 L26.0695793,60.2176973 Z" id="Fill-42" fill="#004BD9" transform="translate(20.300414, 51.401855) rotate(-26.000000) translate(-20.300414, -51.401855) "></path>
                            <path d="M41.3491493,24.3809254 C41.1314604,24.6362954 41.3526753,25.4435789 41.3540145,25.8471738 C41.3553536,26.2507687 40.2613214,25.8435668 40.2613214,25.8435668 C40.2613214,25.8435668 38.0443688,29.4214879 37.2564131,29.0152964 C36.9780208,28.8712691 36.5767147,28.5812172 36.1667135,28.2534765 C35.4179188,27.6578585 34.6374981,26.9397409 34.4955139,26.7654082 C34.2760839,26.496042 31.7258424,21.8717537 31.3700591,19.9888309 C31.3607102,19.9385866 31.3519735,19.8883443 31.3450669,19.8362251 C31.0657362,17.9334692 32.0463317,14.7782811 33.4923365,14.2595793 C34.9762469,13.7265662 39.5649806,13.3833152 39.695517,13.4283105 C39.8266677,13.4739355 42.3648816,14.2888674 42.4964759,14.4681871 C42.6280722,14.6481346 43.8658929,18.9096922 43.8658929,18.9096922 C43.8658929,18.9096922 41.5668424,24.1268109 41.3491493,24.3809254" id="Fill-46" fill="#FFC493" transform="translate(37.581685, 21.235899) rotate(-26.000000) translate(-37.581685, -21.235899) "></path>
                            <path d="M41.6227273,18.6469214 C41.6227273,18.6469214 36.0202198,15.0114622 34.3491774,15.2167873 C32.6781349,15.4221124 31.3089056,17.3151631 31.3089056,17.3151631 C31.3089056,17.3151631 31.3846284,15.6809485 31.6172284,15.1988604 C31.8498284,14.7167722 35.6281758,12.3749504 35.6281758,12.3749504 C35.6281758,12.3749504 40.0086819,14.9545456 40.2047763,15.2010753 C40.4008706,15.447605 41.4999054,17.4194798 41.4999054,17.4194798 L41.7860346,18.1580714 L41.6227273,18.6469214 Z" id="Fill-47" fill="#DB9F6D" transform="translate(36.547470, 15.510936) rotate(-26.000000) translate(-36.547470, -15.510936) "></path>
                            <path d="M38.6392241,30.6725549 C37.9503329,30.5344022 36.5767893,30.4110478 35.1706529,30.5858131 C34.4601229,30.6734652 33.7411479,30.8399108 33.099657,31.1177857 C32.973577,30.9797262 32.8512616,30.8516788 32.7271156,30.7342134 C31.3764745,29.4539072 29.4692371,27.6100143 27.1056569,27.1157548 C28.155494,26.2045392 32.188702,23.4679275 33.7430234,22.7836652 C33.7500243,22.8319223 33.758889,22.8795973 33.7677478,22.9255077 C33.8758606,23.4587913 34.1893524,24.2262759 34.5782675,25.046361 L34.5782734,25.0481256 C35.478825,26.9386941 36.7863773,29.1023635 36.9411895,29.2781639 C37.0853884,29.4415766 37.8780449,30.1147632 38.6392241,30.6725549" id="Fill-48" fill="#FFC493" transform="translate(32.872440, 26.950725) rotate(-26.000000) translate(-32.872440, -26.950725) "></path>
                            <path d="M27.0944728,27.713898 C27.215572,27.7305434 28.817589,25.5951621 29.1896755,25.9344237 C29.5623662,26.2743121 35.5731691,31.7657949 35.4874681,32.0723038 C35.4029714,32.3788167 33.6793337,34.1588928 33.2755435,34.2469106 C32.8717512,34.3343037 27.0977175,28.6917686 27.0960962,28.2031457 L27.0944728,27.713898 Z" id="Fill-49" fill="#FF3B88" transform="translate(31.291424, 30.072900) rotate(-26.000000) translate(-31.291424, -30.072900) "></path>
                            <path d="M11.6649849,56.0503844 C11.6649849,56.0503844 7.34931372,59.4590468 10.3027822,61.2699648 C10.3027822,61.2699648 24.1963133,65.8823802 24.5231031,66.4859504 C24.5231031,66.4859504 27.442924,66.8922815 27.0586637,64.653597 C26.6750641,62.4154879 11.6649849,56.0503844 11.6649849,56.0503844" id="Fill-50" fill="#FF3B88" transform="translate(18.181416, 61.282578) rotate(-26.000000) translate(-18.181416, -61.282578) "></path>
                            <path d="M29.5871966,18.3308492 C29.5871966,18.3308492 29.2093338,16.5667872 28.4732075,16.9646008 C27.7364198,17.3611674 27.338604,19.6859978 28.0287962,20.1028363 C28.7183331,20.5202952 28.9718978,21.4691431 28.2210352,21.5855549 C27.4708279,21.7013464 26.8696928,21.5810941 26.6391194,21.8168689 C26.4085481,22.0532661 26.7877743,23.2378198 25.7222539,22.6130846 C24.6560761,21.9883473 19.2839732,20.9037128 21.2631857,15.814143 C23.2424003,10.7251956 23.1116372,7.16925634 20.7946333,7.51703422 C20.7946333,7.51703422 23.8516021,5.7493714 25.7371459,8.48136026 C27.6240063,11.2139759 34.501341,9.75521638 30.6763277,7.25336123 C26.8513165,4.75212856 24.4759454,5.33687211 24.4759454,5.33687211 C24.4759454,5.33687211 31.9090879,1.62849924 38.0578443,6.80403329 C44.2066007,11.9795673 40.9809466,20.3534938 40.4491674,20.3367993 C39.9173882,20.3201048 36.6536892,17.2281404 35.2739601,16.3938429 C33.8948904,15.5601702 31.7084124,16.6192315 30.6498689,18.0971988 C29.5913254,19.575166 29.464282,18.9230281 29.464282,18.9230281 L29.5871966,18.3308492 Z" id="Fill-51" fill="#06356D" transform="translate(31.281385, 13.421672) rotate(-26.000000) translate(-31.281385, -13.421672) "></path>
                            <path d="M38.6430564,29.0445927 C37.9290025,28.8908304 36.5053276,28.7537333 35.0479479,28.9488298 C35.0479479,28.9488298 35.2994592,25.2962719 34.4325321,22.7785107 C35.3664191,24.8848805 36.7222224,27.2954536 36.8827267,27.4913027 C37.0322274,27.6733513 37.8539696,28.4232584 38.6430564,29.0445927" id="Fill-53" fill="#DB9F6D" transform="translate(36.537794, 25.911552) rotate(-26.000000) translate(-36.537794, -25.911552) "></path>
                        </g>
                        <g id="Group-27" transform="translate(0.051727, 0.000000)">
                            <path d="M38.4811167,37.7844206 L24.0113171,37.2728272 C22.4808908,37.2191482 21.7537652,39.0409466 22.9379412,39.9633485 L34.6019593,49.0416667 L38.4811167,37.7844206 Z" id="Fill-1" fill="#004ADE"></path>
                            <path d="M137.288526,25.5016667 L119.97045,5.55325351 C118.584816,3.95841592 116.570841,2.98935793 114.410331,2.87793315 L58.0799875,0.00339877613 C56.1656561,-0.094519975 54.954692,1.94376575 56.0156044,3.47670068 L67.8286585,20.5314459 L137.288526,25.5016667 Z" id="Fill-3" fill="#004ADE"></path>
                            <path d="M126.426566,94.5834299 C106.310247,98.0122578 77.9041581,100.320561 37.7939651,100.018487 C37.7939651,100.018487 22.5919334,54.5625792 43.3805233,27.7235656 C43.3805233,27.7235656 93.2922121,24.325515 135.272048,42.0874819 L126.426566,94.5834299 Z" id="Fill-5" fill="#0057FF"></path>
                            <g id="Group-9" transform="translate(54.612939, 19.616667)" fill="#D7D7D8">
                                <path d="M92.4712626,8.15340594 L92.4677473,8.15455025 C92.4677473,8.15455025 80.4691598,22.7822082 80.882783,46.2839557 C80.882783,46.2839557 121.311227,52.7263959 159.397368,39.8655458 C140.458582,23.3783914 115.970449,13.7421943 92.4712626,8.15340594 M13.2559785,0.984331639 C13.2559785,0.984331639 125.762656,-6.74087517 172.814929,54.0160283 C172.814929,54.0160283 173.515628,90.4942008 6.4950557,89.2240216 C6.4950557,89.2240216 -11.9000444,33.7435111 13.2559785,0.984331639" id="Fill-7"></path>
                            </g>
                            <g id="Group-12" transform="translate(57.637655, 62.773333)">
                                <mask id="mask-2" fill="white">
                                    <use xlink:href="#path-1"></use>
                                </mask>
                                <g id="Clip-11"></g>
                                <path d="M89.6158097,42.3345935 C90.3690615,42.24931 91.1140874,42.1628741 91.8520627,42.0741332 C91.8661641,42.0741332 91.8814407,42.0718282 91.894367,42.0706757 C92.6358676,41.9819348 93.3703174,41.8931939 94.0965414,41.8021481 C94.102417,41.8021481 94.1082926,41.8009956 94.1141682,41.8009956 C170.198474,32.3518189 169.788357,10.6079945 169.788357,10.6079945 C167.11966,7.14594707 164.238266,3.90748061 161.18178,0.874155448 C161.164153,0.891442635 132.189273,20.550317 67.7962341,17.7094559 L38.464337,33.869634 C39.7614245,33.8611825 40.3112582,33.8611825 40.1138381,33.869634 C39.8177079,33.8823113 20.0874976,35.0509251 0.10576078,35.0705173 C0.765002978,38.0623532 1.40309302,40.5517082 1.91074477,42.4025897 L1.91074477,42.4037422 C2.0376577,42.8670388 2.15516968,43.2796264 2.2632807,43.661097 C2.27973238,43.716416 2.29618405,43.7740399 2.31146061,43.8282065 C2.35494004,43.9768763 2.393719,44.1128688 2.43367307,44.2477089 C2.45482523,44.3180101 2.47480226,44.3871589 2.49360418,44.4540027 C2.52768265,44.5669456 2.55823577,44.6695163 2.58878888,44.7720869 C2.61111616,44.8458456 2.63226831,44.9161468 2.65224535,44.9852956 C2.6792731,45.072884 2.70395062,45.1535575 2.72745301,45.2319261 C2.74625493,45.29416 2.76388173,45.3506314 2.78150852,45.4071029 C2.80148556,45.4739467 2.8214626,45.5373331 2.83908939,45.5938046 C2.85671619,45.650276 2.87081763,45.6940702 2.88491907,45.7401694 C2.89667026,45.7793537 2.90959658,45.8196905 2.91899754,45.8508074 C2.93662434,45.9038214 2.94837553,45.9407008 2.95895161,45.9741227 C2.96365209,45.9879524 2.96835257,46.0017822 2.97187793,46.0121545 C2.98245401,46.0478813 2.98950473,46.066321 2.98950473,46.066321 C4.26921017,46.0766933 5.53833953,46.0836082 6.79924306,46.0893706 C7.20113403,46.0905231 7.59597427,46.0916756 7.99433988,46.092828 C8.84630172,46.095133 9.69943868,46.0985904 10.5419996,46.0985904 C11.0473011,46.0997429 11.5455519,46.0985904 12.0485031,46.0974379 C12.7723769,46.0974379 13.4986009,46.0974379 14.2165991,46.095133 C14.7665552,46.0939805 15.3094605,46.0905231 15.8547161,46.0882181 C16.5198339,46.0859132 17.1861268,46.0836082 17.845369,46.0789983 C18.4070763,46.0755408 18.9617328,46.0709309 19.5187396,46.066321 C20.1521291,46.0605586 20.7855187,46.0571012 21.4130327,46.0513388 C21.9829658,46.0455764 22.5470233,46.0386615 23.1122559,46.0317466 C23.7174426,46.0248318 24.3226293,46.0179169 24.9231155,46.011002 C25.4906983,46.0029347 26.0535807,45.9937148 26.6176382,45.984495 C27.2063732,45.9764276 27.7962833,45.9672078 28.381493,45.957988 C28.9537763,45.9476157 29.5213592,45.9360909 30.0877669,45.9257186 C30.648299,45.9153462 31.2088312,45.9049739 31.7646628,45.8934491 C32.3439969,45.8807719 32.9186305,45.8680946 33.493264,45.8554173 C34.0291187,45.8427401 34.562623,45.8300628 35.0937772,45.8173855 C35.6825122,45.8024033 36.268897,45.7874211 36.8517564,45.7712863 C37.3547076,45.7586091 37.8541335,45.7447793 38.3523843,45.7297971 C38.9516954,45.7136624 39.5474812,45.6963752 40.1409166,45.6767831 C40.6168402,45.6629533 41.0904134,45.6479711 41.5628116,45.6329888 C42.1703485,45.6133967 42.7755352,45.5926521 43.3771965,45.5730599 C43.8202167,45.5569252 44.2608866,45.5407905 44.7015565,45.5258083 C45.3220198,45.5027587 45.9401328,45.4797091 46.5547204,45.4555071 C46.9648372,45.4393723 47.3714287,45.4232376 47.7791952,45.4071029 C48.4114097,45.3817484 49.0436241,45.3552414 49.669963,45.3287343 C50.0471764,45.3125996 50.4196894,45.2953124 50.7933775,45.2791777 C51.4443938,45.2492133 52.0954102,45.2204013 52.7405509,45.1915893 C53.0672342,45.1754546 53.3903922,45.1593199 53.7159004,45.1443377 C54.398645,45.1097633 55.0813896,45.0763414 55.7559083,45.0429195 C56.0203103,45.0279373 56.2811869,45.0141075 56.5444137,45.0014303 C57.2694626,44.962246 57.9933364,44.9230617 58.7101594,44.8838774 C58.8970035,44.8735051 59.0814973,44.8619803 59.2695165,44.851608 C60.0544965,44.8078138 60.8371262,44.7628671 61.6115302,44.7156154 C61.6679359,44.7133105 61.7219914,44.7087006 61.7772221,44.7052431 C71.0453918,44.1439858 79.5156552,43.4306012 87.2608697,42.5950538 C87.2749711,42.5939013 87.2878974,42.5927488 87.3019989,42.5904438 C88.0705272,42.5074653 88.8308297,42.4233344 89.5852566,42.3380509 L89.6158097,42.3345935 Z" id="Fill-10" fill="#9FA6C4" mask="url(#mask-2)"></path>
                            </g>
                            <path d="M126.160899,60.0209087 C126.609453,64.8763157 122.927673,69.1668114 117.935389,69.603173 C112.945529,70.0395345 108.535152,66.4578316 108.086598,61.6024246 C107.638044,56.7470176 111.319824,52.4565219 116.310896,52.0201604 C121.301968,51.5837988 125.712345,55.1655017 126.160899,60.0209087" id="Fill-13" fill="#9FA6C4"></path>
                            <path d="M117.935389,67.6415063 C112.944316,68.0778679 108.535152,64.4961649 108.086598,59.6407579 C107.638044,54.7853509 111.319824,50.4948553 116.310896,50.0584937 C121.301968,49.6221321 125.712345,53.2038351 126.160899,58.0592421 C126.609453,62.9146491 122.927673,67.2051447 117.935389,67.6415063 Z" id="Fill-15" fill="#EDF1F4"></path>
                            <path d="M117.718393,64.788839 C114.301603,65.0874724 111.283374,62.6356669 110.976391,59.3118017 C110.669409,55.9891912 113.189759,53.0530475 116.60526,52.7544141 C120.02205,52.4545259 123.040279,54.9075861 123.347261,58.2301966 C123.654244,61.5528071 121.133893,64.4889508 117.718393,64.788839 Z" id="Fill-17" fill="#0057FF"></path>
                            <path d="M101.963166,60.0210088 C102.41172,64.8763705 98.7299403,69.1668262 93.7388681,69.6031837 C88.7477958,70.0395412 84.3374191,66.4566923 83.8888651,61.6013306 C83.4403112,56.7459688 87.1220907,52.4566925 92.113163,52.0203349 C97.1042352,51.5827981 101.514612,55.165647 101.963166,60.0210088" id="Fill-19" fill="#9FA6C4"></path>
                            <path d="M92.729417,67.6415165 C87.7383447,68.0778783 83.3291803,64.494994 82.8806263,59.6407635 C82.4320723,54.7853537 86.1138519,50.4948556 91.1049242,50.0584937 C96.0959965,49.6221319 100.506373,53.2038369 100.954927,58.0592467 C101.403481,62.9146565 97.7217016,67.2051547 92.729417,67.6415165 Z" id="Fill-21" fill="#EDF1F4"></path>
                            <path d="M91.4633385,64.7992169 C88.0466581,64.5721095 85.4657959,61.6887241 85.7001855,58.3611619 C85.9332874,55.0310901 88.8914912,52.5178521 92.3081716,52.7437048 C95.724852,52.9720669 98.3057142,55.8541975 98.0726124,59.1830145 C97.8395106,62.5118315 94.8800188,65.0263243 91.4633385,64.7992169 Z" id="Fill-23" fill="#0057FF"></path>
                            <path d="M126.197898,81.4091667 L99.2031683,97.5512018 C98.8555063,97.759054 98.4586799,97.8733728 98.0513183,97.8837654 L2.55311578,100.044274 C0.0890463064,100.100856 -0.760794283,96.8352663 1.42467732,95.7128643 L26.8449779,82.65628 L126.197898,81.4091667 Z" id="Fill-25" fill="#004ADE"></path>
                        </g>
                    </g>
                </g>
                <path d="M145.594463,44 C141.615222,50.0473816 133.925373,61.0949858 133.925373,83.111203 C161.122344,87.0330363 187.455677,84.8474994 212.925373,76.5545924 C187.458254,57.9255778 165.014617,47.074047 145.594463,44 Z" id="Path-10" fill-opacity="0.43" fill="#004ADE"></path>
            </g>
            <rect id="Rectangle" x="0" y="0" width="230" height="170"></rect>
        </g>
    </g>
</svg>