<svg xmlns="http://www.w3.org/2000/svg" xmlns:xlink="http://www.w3.org/1999/xlink" width="222" height="150" viewBox="0 0 222 150">
    <defs>
        <path id="a" d="M.103.851h165.256v44.05H.103z"/>
    </defs>
    <g fill="none" fill-rule="evenodd">
        <path fill="#ECEEFA" d="M144.612 131.08c-26.717-13.293-97.092 17.825-124.909-3.245-15.998-12.118 45.433-2.39 17.423-50.267-12.3-21.025 66.13-18.372 56.227-26.38-11.247-9.096-47.52-3.964-41.899-9.145 33.96-31.297 113.201-49.847 126.304-38.86 11.29 9.467-20.337 34.97-6.685 51.75 13.651 16.777 66.443 16.194 18.385 28.193-16.405 4.097-17.862 11.192-20.892 16.917-10.241 19.348-.181 42.863-23.954 31.036z"/>
        <ellipse cx="111.652" cy="142.459" fill="#EDF1F4" rx="90.652" ry="7.07"/>
        <path fill="#0058FF" d="M164.295 91.624c-.579 2.089-3.605 7.415-5.934 11.01-1.331 2.053-2.435 3.543-2.729 3.543h-.008c-.797 0-1.035-.27-1.848.123 0 0-4.03.013-6.157-.413-2.125-.424-7.773-.211-9.5-1.177-1.728-.968 2.669-5.68 8.584-21.597 3.38-9.093 7.655-6.395 8.727-6.659 2.392-.595 4.978.273 6.799.864.167.053.337.118.516.19 2.67 1.126 2.402 11.043 1.55 14.116"/>
        <path fill="#004BD9" d="M157.577 102.321c-1.26 2.063-2.309 3.556-2.597 3.55 0 0-.003-.002-.008-.001-.179-.042-3.065-.677-5.9-1.578-2.83-.902-3.677-1.384-3.727-1.415.2-.01 9.57-.445 8.17-3.618-1.414-3.207-6.112-14.572-4.524-14.07l8.586 17.132z"/>
        <path fill="#FFC493" d="M170.234 68.829c-.081.316.457.929.63 1.282.174.352-.958.463-.958.463s-.413 4.079-1.276 4.06c-.305-.008-.78-.09-1.279-.202-.91-.202-1.9-.497-2.098-.59-.307-.141-4.514-3.1-5.63-4.597-.029-.04-.058-.08-.086-.123-1.057-1.547-1.546-4.727-.501-5.799 1.071-1.1 4.941-3.36 5.075-3.376.134-.016 2.704-.387 2.895-.286.192.101 3.095 3.304 3.095 3.304s.215 5.549.133 5.864"/>
        <path fill="#DB9F6D" d="M170.368 62.686s-6.456-.79-7.831.103c-1.376.893-1.766 3.135-1.766 3.135s-.631-1.463-.633-1.984c-.003-.521 2.305-4.185 2.305-4.185s4.936.388 5.213.52c.276.132 2.08 1.39 2.08 1.39l.566.524.066.497z"/>
        <path fill="#FFC493" d="M167.644 74.047c-.662.173-1.917.651-3.073 1.405-.585.38-1.143.833-1.586 1.35a7.16 7.16 0 0 0-.49-.177c-1.729-.544-4.185-1.344-6.465-.767.53-1.246 2.892-5.364 3.96-6.627.027.04.055.077.082.114.323.42.925.958 1.615 1.51l.001.002c1.596 1.27 3.664 2.606 3.874 2.694.196.081 1.178.332 2.082.496"/>
        <path fill="#FF3B88" d="M154.787 76.019c.113-.038.603-2.591 1.074-2.453.471.139 8.077 2.38 8.133 2.685.057.304-.692 2.598-1.008 2.848-.316.249-7.78-2.226-7.99-2.653l-.21-.427zM138.762 104.893s-2.323 4.827 1.036 5.15c0 0 14.13-1.894 14.674-1.505 0 0 2.73-.89 1.437-2.686-1.291-1.796-17.147-.96-17.147-.96"/>
        <path fill="#06356D" d="M160.07 65.094s-1.083-1.383-1.558-.72c-.475.662.169 2.867.951 2.937.782.07 1.409.793.801 1.216-.607.422-1.185.573-1.286.878-.1.305.737 1.18-.462 1.088-1.2-.091-6.366 1.253-6.806-4.048-.44-5.3-2.073-8.357-3.953-7.063 0 0 1.921-2.853 4.738-1.267 2.819 1.587 8.216-2.627 3.8-3.184-4.416-.556-6.246.97-6.246.97s4.923-6.42 12.515-4.515c7.592 1.906 8.344 10.614 7.871 10.826-.473.213-4.65-1.1-6.213-1.242-1.564-.14-3.025 1.72-3.32 3.466-.297 1.746-.686 1.23-.686 1.23l-.145-.572z"/>
        <path fill="#DB9F6D" d="M167.757 74.082c-.69.17-1.995.659-3.187 1.452 0 0-1.34-3.305-3.173-5.14 1.716 1.446 3.932 2.977 4.156 3.08.209.096 1.248.401 2.204.608"/>
        <g>
            <path fill="#004ADE" d="M37.528 52.803l-14.093-.498c-1.49-.053-2.198 1.722-1.045 2.62l11.36 8.843 3.778-10.965zM133.757 40.84l-16.866-19.431c-1.35-1.553-3.31-2.497-5.415-2.606l-54.86-2.8c-1.865-.095-3.045 1.89-2.011 3.383L66.11 35.998l67.647 4.841z"/>
            <path fill="#0057FF" d="M123.179 108.127c-19.592 3.34-47.257 5.588-86.32 5.294 0 0-14.806-44.276 5.44-70.418 0 0 48.61-3.31 89.495 13.991l-8.615 51.133z"/>
            <path fill="#D7D7D8" d="M143.298 43.049h-.004s-11.685 14.249-11.283 37.14c0 0 39.374 6.275 76.467-6.252-18.445-16.059-42.294-25.445-65.18-30.888m-77.15-6.983S175.722 28.54 221.546 87.72c0 0 .683 35.53-161.98 34.294 0 0-17.916-54.04 6.584-85.948"/>
            <g transform="translate(56.184 77.143)">
                <mask id="b" fill="#fff">
                    <use xlink:href="#a"/>
                </mask>
                <path fill="#9FA6C4" d="M87.278 41.235c.734-.083 1.46-.167 2.178-.254.014 0 .029-.002.041-.003.722-.087 1.438-.173 2.145-.262h.017c74.1-9.204 73.7-30.384 73.7-30.384a95.508 95.508 0 0 0-8.382-9.48c-.017.016-28.236 19.165-90.95 16.397L37.462 32.99c1.263-.007 1.799-.007 1.606 0-.288.013-19.504 1.152-38.964 1.17a145.596 145.596 0 0 0 1.758 7.142v.001c.124.452.238.853.343 1.225l.047.163c.043.145.08.277.12.408l.058.201a88.587 88.587 0 0 1 .154.518l.073.24.053.17.056.183.045.142.033.108.039.12.012.037c.01.035.018.053.018.053 1.246.01 2.482.017 3.71.022l1.164.004c.83.002 1.66.005 2.481.005h1.467c.705 0 1.412 0 2.112-.003.535-.001 1.064-.005 1.595-.007.648-.002 1.297-.004 1.939-.009.547-.003 1.087-.008 1.63-.012l1.844-.015c.555-.005 1.105-.012 1.655-.019l1.764-.02 1.65-.026 1.718-.026 1.662-.031a734.799 734.799 0 0 0 9.79-.243c.464-.013.925-.028 1.386-.042l1.767-.059 1.29-.046 1.804-.068 1.193-.047c.616-.025 1.231-.05 1.841-.077.368-.015.73-.032 1.094-.048.634-.03 1.268-.057 1.897-.085.318-.016.633-.032.95-.046l1.986-.099a3425.105 3425.105 0 0 0 2.877-.155l.545-.031c.765-.043 1.527-.087 2.281-.133.055-.002.108-.007.162-.01 9.026-.547 17.275-1.241 24.818-2.055a446.02 446.02 0 0 0 2.264-.25l.03-.004z" mask="url(#b)"/>
            </g>
            <path fill="#9FA6C4" d="M122.92 74.462c.437 4.73-3.149 8.908-8.01 9.333-4.86.425-9.156-3.063-9.593-7.793-.437-4.729 3.15-8.908 8.01-9.333 4.86-.425 9.156 3.064 9.593 7.793"/>
            <path fill="#EDF1F4" d="M114.91 81.885c-4.862.425-9.156-3.064-9.593-7.793-.437-4.73 3.15-8.909 8.01-9.334 4.86-.425 9.156 3.064 9.593 7.793.437 4.73-3.149 8.909-8.01 9.334z"/>
            <path fill="#0057FF" d="M114.698 79.106c-3.328.29-6.267-2.097-6.566-5.335-.3-3.236 2.155-6.096 5.482-6.387 3.327-.292 6.267 2.097 6.566 5.334.299 3.236-2.156 6.096-5.482 6.388z"/>
            <path fill="#9FA6C4" d="M99.354 74.462c.436 4.73-3.15 8.908-8.01 9.333-4.861.425-9.156-3.064-9.593-7.794-.437-4.729 3.149-8.907 8.01-9.332 4.86-.426 9.156 3.064 9.593 7.793"/>
            <path fill="#EDF1F4" d="M90.36 81.885c-4.86.425-9.154-3.065-9.591-7.793-.437-4.73 3.149-8.909 8.01-9.334 4.86-.425 9.156 3.064 9.593 7.793.437 4.73-3.15 8.909-8.011 9.334z"/>
            <path fill="#0057FF" d="M89.128 79.116c-3.328-.221-5.841-3.03-5.613-6.27.227-3.244 3.108-5.692 6.436-5.472 3.327.222 5.84 3.03 5.614 6.272-.227 3.242-3.11 5.691-6.437 5.47z"/>
            <path fill="#004ADE" d="M122.956 95.295l-26.29 15.722a2.3 2.3 0 0 1-1.122.324l-93.007 2.105c-2.4.055-3.228-3.126-1.1-4.22L26.196 96.51l96.761-1.214z"/>
        </g>
    </g>
</svg>
