<svg xmlns="http://www.w3.org/2000/svg" xmlns:xlink="http://www.w3.org/1999/xlink" width="64" height="50" viewBox="0 0 64 50">
    <defs>
        <path id="a" d="M.844 0h63v50h-63z"/>
    </defs>
    <g fill="none" fill-rule="evenodd">
        <mask id="b" fill="#fff">
            <use xlink:href="#a"/>
        </mask>
        <path fill="#FFF" d="M58.193 47.749l-2.072-2.232v2.232h2.072zm-49.549-.004V45.51l-2.076 2.236h2.076zm43.503-7.376v7.377h3.254c.004-.04.01-.074.01-.107 0-.959.002-1.917-.003-2.876a.348.348 0 0 0-.08-.192c-.609-.778-1.23-1.544-1.828-2.33-.46-.605-.893-1.233-1.353-1.872zM9.343 47.744h3.269v-7.391c-.029.038-.044.056-.057.075a52.36 52.36 0 0 1-3.108 4.118.414.414 0 0 0-.107.288c.005.91.003 1.82.003 2.73v.18zm15.91.002h14.485v-1.805H25.253v1.805zm26.182 0c.002-.048.005-.086.005-.125 0-2.745 0-5.49-.002-8.235a.425.425 0 0 0-.067-.216 54.088 54.088 0 0 1-3.359-6.107c-.02-.043-.043-.085-.082-.163v14.846h3.505zM16.833 32.9c-.037.068-.059.104-.076.141a54.246 54.246 0 0 1-3.364 6.122.507.507 0 0 0-.073.258c-.003 2.72-.003 5.441-.003 8.162v.165h3.516V32.9zm27.497-10.18l-.014.006v25.022h2.906v-.153c0-5.392 0-10.785-.002-16.177a.594.594 0 0 0-.047-.225 57.993 57.993 0 0 1-2.502-7.204c-.116-.422-.228-.845-.34-1.268zm-23.657-.928c-.01.003-.018.003-.018.006l-.175.696a58.287 58.287 0 0 1-2.87 8.64.933.933 0 0 0-.07.352c-.004 5.355-.004 10.709-.004 16.063v.195h3.137V21.791zm4.575 17.895h14.487V28.339H25.248v11.347zm.006-17.595h14.483V8.834H25.254v13.257zM.844 47.768c.063-.004.126-.011.189-.012 1.074 0 2.148-.002 3.223.003a.432.432 0 0 0 .352-.146c.5-.523 1.02-1.025 1.52-1.548a50.362 50.362 0 0 0 5.166-6.389 51.72 51.72 0 0 0 3.65-6.246 55.695 55.695 0 0 0 4.003-10.838 54.243 54.243 0 0 0 1.22-6.031c.2-1.443.34-2.894.506-4.341.008-.073.006-.147.006-.22 0-2.873.002-5.746-.003-8.619-.001-.321-.047-.643-.071-.964-.005-.068-.017-.138-.009-.204.036-.273.078-.545.12-.836h1.421V.136h1.639v1.233h1.463v1.215h14.5V1.376h1.42V0h1.63v1.37h1.514v.236c0 4.2-.007 8.398.008 12.598.002.558.106 1.118.18 1.674.213 1.59.503 3.166.848 4.732a56.808 56.808 0 0 0 3.342 10.375 51.868 51.868 0 0 0 6.063 10.481 49.945 49.945 0 0 0 4.1 4.823c.462.478.93.948 1.401 1.417.037.037.113.048.171.048 1.074.003 2.149.002 3.223.002h.193c.005.05.011.084.011.117v2.04c0 .03-.007.058-.011.087H.844v-2.232z" mask="url(#b)"/>
    </g>
</svg>
