<svg xmlns="http://www.w3.org/2000/svg" xmlns:xlink="http://www.w3.org/1999/xlink" width="27" height="77" viewBox="0 0 27 77">
    <defs>
        <path id="a" d="M.307.07h13.32V68H.308z"/>
    </defs>
    <g fill="none" fill-rule="evenodd">
        <path fill="#FFF" d="M26.918 60c0 6.627-4.478 12-10 12-5.523 0-10-5.373-10-12s4.477-12 10-12c5.522 0 10 5.373 10 12"/>
        <path fill="#FFF" d="M11.11 70c.01.51-.04 1.006-.183 1.45-.717 2.242-3.046 2.056-3.763 2.43-.717.373.358 1.12.358 1.12h6.093s.538-.187.18-1.308c-.169-.526-.359-.747 0-2.988M6.47 36.395s-2.92-.346-2.5-.74c0 0-.42 0 .421-.396 0 0 .421-1.975 0-2.765-.42-.79-2.105-.395-2.105-.395l-1.263 1.185s-.421 1.975.42 3.16C2.287 37.63 6.919 40 6.919 40l-.449-3.605z"/>
        <path fill="#FFF" d="M.918 10l4.875 63.966L6.918 74l-5.08-64z"/>
        <path fill="#FFF" d="M2.697 11.833l-1.517.166c-.13.015-.245-.13-.255-.324l-.007-.13c-.01-.194.089-.363.22-.378l1.516-.166c.132-.015.246.13.256.324l.007.13c.01.194-.09.363-.22.378M0 10.5l3-.073L.996 0zM15.219 20s1.959 4.011 1.67 4.583c-.173.342-.406.326-.82.234 0 0 .849 1.182-.004 1.526 0 0-.024 2.33-.384 3.294s-.763-.297-.763-.297l.3-9.34z"/>
        <g transform="translate(4.918 9)">
            <mask id="b" fill="#fff">
                <use xlink:href="#a"/>
            </mask>
            <path fill="#FFF" d="M9.038 27.783s-.338 1.535-.02 2.76c.32 1.224.551 2.036.551 2.036s.531-2.449-.53-4.796M7.581 59.74c.005.818.736 1.91.4 3.842-.4 2.305-.187 2.532 0 3.074.4 1.152-.2 1.344-.2 1.344h-6.8s-1.2-.768-.4-1.152c.8-.385 3.4-.192 4.2-2.498.8-2.305-1-5.954-1-5.954-3.2-1.153-2-13.062-1.6-13.447.4-.384-.4-6.915-.4-6.915s-2 0-.8-1.537c1.2-1.536.4-5.762.4-5.762l-.286-1.16s.286-2.298-.114-4.219a8.56 8.56 0 0 1-.164-1.109 1.974 1.974 0 0 1 .687-1.642c.924-.798 2.78-2.439 3.077-3.012.4-.768 0-3.073 0-3.073s-1.6.384-1.6 0-.4-.768-.4-1.153c0-.384.4-.384.4-.384s-.419-.174-.4-.384c.018-.191.4-.384 0-.768s-.857-.447-.4-.769c.323-.227.4-1.92.4-1.92-1.2 0-1.4-.577-1.4-.577s2.4-3.842 4-4.61c0 0-.522-1.048-2-2.305-1.339-1.14.4-4.226 3.6-3.458 3.2.769 8.4 2.69 6.4 9.22-2 6.532-2.4 5.38-2.4 5.38s-1.2 2.304-.4 4.225c.208.5 2.633 8.75 2.394 11.164-.444 4.472-.748 7.284-1.221 8.621 0 0-4 15.513-3.973 20.938" mask="url(#b)"/>
        </g>
    </g>
</svg>
