<svg xmlns="http://www.w3.org/2000/svg" width="22" height="71" viewBox="0 0 22 71">
    <path fill="#FFF" fill-rule="nonzero" d="M21.18 1.898s.889-.924.816-1.257c-.068-.341-1.988.755-3.272 1.419-1.279.66-2.233.922-2.579 1.78-.356.864-1.313 3.15-1.313 3.15s-.392-.2-.422-.531c-.034-.333-.433-.762-.952-.631-.526.138-.495.735-.75.864-.265.125-.757.693-.52 1.194.224.493.325.922.485 1.055.151.131.1.656-.101.822-.197.167-.386.131-.714-.028-.332-.175-.86-.465-1.019-.632-.167-.163-.593-1.515-.553-1.85.03-.333.188-.56.188-.56s1.113-.13 1.243-.334c.141-.202.23-.596.165-.728-.07-.138-.129-.234-.416-.234-.288 0-1.083.033-1.354.132-.252.102-1.204.163-1.334.262-.134.105-.134.473-.035.7.101.227.065.37.294.37.229 0 .42.095.42.095L9.43 7.982S8.163 5.859 6.418 4.273C4.679 2.686.36-.12.1.004c-.26.139.07 1.324.07 1.324S-.16 1.69.1 2.519c.256.824 1.77 1.623 1.77 1.623s.099.799.52 1.228c.424.421 1.44.921 1.44.921s.267 1.26.815 1.55c.557.299 1.309.532 1.309.532s0 .958.496 1.185c.492.234 1.269.203 1.269.203s-.647 1.054-.188 1.49c.456.437 1.04.437 1.04.437s-.095.852.301.991c.39.124.657-.139.657-.139s-.134.858.295 1.06c.422.203.787-.263.787-.263s.063.626.517.59c.459-.028.625-.202.625-.202s.554.603.393.962c-.164.369-.758 1.298-.758 1.298s-.745.03-.716.626c.037.596.456.698.522.922.066.234-.134 1.128-.422 1.267-.299.124-.882.493-.912.748-.036.27-.92.534-.885.937.034.394.85.923.951 1.388.096.458.365.85.878.982.526.139.759.64.66 1.2-.103.561.417 1.484 1.016 1.58.579.102.647.799.394 1.226-.272.426-1.087.694-1.22 1.225-.125.532.133.99.133.99s-.723.399-.912 1.026c-.113.34-.019.582.091.735l-.649.704-.338.663a.969.969 0 0 0-.225.34.802.802 0 0 0-.027.202l-.295.582v.421l-.161.06v1.122h.161v3.349l-1.987.565v6.13l1.657 2.669V71h10.245V47.644L21 44.975v-6.13l-1.973-.558v-3.35h.254v-1.096l-.26-.104v-.407l-.015-.03c.014-.227-.024-.499-.154-.677-.078-.123-.22-.248-.356-.355l-.363-.726-.33-.349-.026-.159-.199-.075-.33-.348v-.348s-.18-.007-.366-.042L15.6 28.864h-.062c-.235-.34-.42-.666-.407-.811.027-.37.388-.466.388-.763 0-.298-.024-1.952.27-2.306.29-.366.615-1.192.584-1.533-.034-.322-.034-.824-.034-.824s.912.664 1.049 1.06c.13.395.165 1.651.392 1.651.226 0 .658-.72.62-1.256-.03-.525-.647-1.184-.456-1.323.199-.132 1.575-.687 1.603-2.115.023-1.426-1.047-1.984-1.9-2.58-.844-.593-1.241-.987-1.149-1.487.103-.492-.675-1.358-.847-1.781-.154-.43-.291-1.789-.291-1.789s1.083 1.456 1.31 1.419c.227-.034 2.514.267 2.514.267s.364.894.565.894c.186 0 .357-.465.388-.727.03-.263.295-.823.096-1.025-.194-.196-.397-.397-.712-.302-.34.105-.34.501-.499.501-.167 0-1.93-.525-2.095-.667-.164-.132-1.076-2.008-1.076-2.008s.367-.264.367-.64c0-.355-.066-1.584-.066-1.584s.745-.492.806-.76c.068-.268.068-.427.068-.427s.659-.202.725-.562c.062-.365.089-.997.456-1.06.355-.064.75-.236.953-.66.198-.43.086-.866.086-.866s.5-.359.586-.753c.092-.394.134-.631.134-.631s1.416-.56 1.479-.929c.062-.36-.265-.59-.265-.59z"/>
</svg>
