<svg xmlns="http://www.w3.org/2000/svg" xmlns:xlink="http://www.w3.org/1999/xlink" width="541" height="548" viewBox="0 0 541 548">
    <defs>
        <path id="b" d="M.495 0h342v198h-342z"/>
        <filter id="a" width="164.6%" height="211.6%" x="-32%" y="-47.2%" filterUnits="objectBoundingBox">
            <feMorphology in="SourceAlpha" operator="dilate" radius="6" result="shadowSpreadOuter1"/>
            <feOffset dx="1" dy="17" in="shadowSpreadOuter1" result="shadowOffsetOuter1"/>
            <feGaussianBlur in="shadowOffsetOuter1" result="shadowBlurOuter1" stdDeviation="28"/>
            <feColorMatrix in="shadowBlurOuter1" values="0 0 0 0 0.00913164146 0 0 0 0 0.091118043 0 0 0 0 0.499716938 0 0 0 0.246612762 0"/>
        </filter>
        <ellipse id="d" cx="24.401" cy="22" rx="23.5" ry="22"/>
        <filter id="c" width="244.7%" height="254.5%" x="-72.3%" y="-59.1%" filterUnits="objectBoundingBox">
            <feOffset dy="8" in="SourceAlpha" result="shadowOffsetOuter1"/>
            <feGaussianBlur in="shadowOffsetOuter1" result="shadowBlurOuter1" stdDeviation="10"/>
            <feColorMatrix in="shadowBlurOuter1" values="0 0 0 0 0.655292471 0 0 0 0 0.741524596 0 0 0 0 0.978204257 0 0 0 1 0"/>
        </filter>
        <path id="f" d="M.231 0h185.29v134H.231z"/>
        <filter id="e" width="185.8%" height="218.7%" x="-42.9%" y="-43.7%" filterUnits="objectBoundingBox">
            <feMorphology in="SourceAlpha" operator="dilate" radius="4" result="shadowSpreadOuter1"/>
            <feOffset dy="21" in="shadowSpreadOuter1" result="shadowOffsetOuter1"/>
            <feGaussianBlur in="shadowOffsetOuter1" result="shadowBlurOuter1" stdDeviation="19"/>
            <feColorMatrix in="shadowBlurOuter1" values="0 0 0 0 0.00784313725 0 0 0 0 0.0901960784 0 0 0 0 0.498039216 0 0 0 0.291302448 0"/>
        </filter>
        <path id="h" d="M.428 0h342.834v198H.428z"/>
        <filter id="g" width="153.4%" height="192.4%" x="-26.7%" y="-37.1%" filterUnits="objectBoundingBox">
            <feMorphology in="SourceAlpha" operator="dilate" radius="5.5" result="shadowSpreadOuter1"/>
            <feOffset dy="18" in="shadowSpreadOuter1" result="shadowOffsetOuter1"/>
            <feGaussianBlur in="shadowOffsetOuter1" result="shadowBlurOuter1" stdDeviation="22"/>
            <feColorMatrix in="shadowBlurOuter1" values="0 0 0 0 0.00784313725 0 0 0 0 0.0901960784 0 0 0 0 0.498039216 0 0 0 0.258085664 0"/>
        </filter>
    </defs>
    <g fill="none" fill-rule="evenodd">
        <path fill="#EDF2FD" d="M467.741 483.83c-11.377 11.226-75.821-2.774-110.927-11.938-87.276-22.78-110.49-39.63-203.48-81.762-188.007-85.18-32.04-156.06-42.654-190.194C89.042 130.363 332.908 37 404.238 37c71.33 0 132.946 312.61 66.033 360.618-16.51 11.844 25.589 58.47-2.53 86.213z"/>
        <g transform="translate(66 51)">
            <use fill="#000" filter="url(#a)" xlink:href="#b"/>
            <use fill="#FFF" xlink:href="#b"/>
            <path fill="#ECEEFA" d="M.495 0h19v198h-19z"/>
            <g transform="translate(151.593 77)">
                <use fill="#000" filter="url(#c)" xlink:href="#d"/>
                <use fill="#0058FF" xlink:href="#d"/>
            </g>
            <path fill="#FFF" fill-rule="nonzero" d="M181.585 98.54c.028.215.037.415.028.602 0 .243-.01.425-.028.546-.01.177-.038.378-.084.602h-4.802v4.816l-.112.014c-.243.047-.42.075-.532.084-.131.01-.332.014-.602.014-.243 0-.423-.005-.54-.014a6.071 6.071 0 0 1-.552-.084l-.07-.014v-4.816h-4.802l-.014-.07a5.904 5.904 0 0 1-.084-.56 9.173 9.173 0 0 1-.028-.616c0-.112.009-.275.028-.49v-.042a6.27 6.27 0 0 1 .084-.546l.014-.07h4.802v-4.802c.298-.056.513-.089.644-.098.26-.019.457-.028.588-.028.13 0 .317.01.56.028l.616.098v4.802h4.802c.046.224.074.439.084.644z"/>
            <path fill="#B7C5D9" fill-rule="nonzero" d="M325.33 14.5c-.347 0-.667-.098-.96-.295a2.067 2.067 0 0 1-.695-.795c-.17-.333-.255-.7-.255-1.1 0-.4.085-.767.255-1.1.17-.333.401-.598.695-.795.293-.197.613-.295.96-.295.346 0 .666.098.96.295.293.197.525.462.695.795.17.333.255.7.255 1.1 0 .4-.085.767-.255 1.1-.17.333-.402.598-.695.795a1.689 1.689 0 0 1-.96.295zm-1.05-2.78a1.338 1.338 0 0 0-.135 1.55c.123.207.29.372.5.495.21.123.438.185.685.185.246 0 .475-.062.685-.185.21-.123.376-.288.5-.495.123-.207.185-.433.185-.68 0-.133-.134-.22-.4-.26a5.934 5.934 0 0 0-.77-.02h-.2a1.31 1.31 0 0 1-.66-.165.838.838 0 0 1-.39-.425zm4.33 4.97v1.64a.53.53 0 0 1-.16.39.53.53 0 0 1-.39.16h-5.46a.53.53 0 0 1-.39-.16.53.53 0 0 1-.16-.39v-1.64a1.642 1.642 0 0 1 1.64-1.64h1.25l-.12.11a.142.142 0 0 0-.04.105c0 .043.013.082.04.115l.26.24a.273.273 0 0 1 .07.12.147.147 0 0 1-.01.12l-.5 1.23a.303.303 0 0 0-.015.13c.003.053.018.093.045.12l.58.85c.02.033.046.05.08.05.033 0 .063-.017.09-.05l.57-.85c.026-.027.041-.067.045-.12a.303.303 0 0 0-.015-.13l-.5-1.23a.147.147 0 0 1-.01-.12.273.273 0 0 1 .07-.12l.26-.24a.158.158 0 0 0 .05-.115.128.128 0 0 0-.05-.105l-.12-.11h1.25a1.642 1.642 0 0 1 1.64 1.64z"/>
            <ellipse cx="9.901" cy="11" fill="#0058FF" rx="5.242" ry="5"/>
            <ellipse cx="9.319" cy="38.5" fill="#BFC3D6" rx="3.495" ry="3.5"/>
            <ellipse cx="9.319" cy="52.5" fill="#BFC3D6" rx="3.495" ry="3.5"/>
            <ellipse cx="9.319" cy="66.5" fill="#BFC3D6" rx="3.495" ry="3.5"/>
            <ellipse cx="9.319" cy="80.5" fill="#BFC3D6" rx="3.495" ry="3.5"/>
            <path fill="#97C3F0" fill-rule="nonzero" d="M182.675 43.017l4.875 5.645c.222.248.283.468.185.66-.099.19-.32.287-.665.287h-22.861l.295-2.772c.123.022.603-.643 1.44-1.995.69-1.082 1.355-2.163 1.995-3.245l.074-.135c.074-.068.197.034.37.304l.553.845c.148.225.32.366.517.423.197.056.363 0 .499-.17a.672.672 0 0 1 .554-.253c.234 0 .45.085.646.254.197.169.45.22.757.152.308-.068.573-.226.794-.473l1.478-1.59c.246-.247.529-.377.849-.388.32-.011.603.107.85.355l1.994 2.13.96.98c.246.248.523.366.831.355.308-.011.56-.152.757-.423.296-.405.517-.698.665-.879.222-.293.48-.44.776-.44.295 0 .566.125.812.373zm-3.145-4.713c-.973 0-1.799-.318-2.478-.955-.678-.638-1.03-1.428-1.056-2.371-.026-.944.32-1.759 1.037-2.445a3.502 3.502 0 0 1 2.555-1.01c.986.011 1.818.354 2.497 1.028.679.674 1.005 1.501.98 2.482 0 .93-.34 1.709-1.019 2.334-.678.625-1.517.937-2.516.937zM190.986 27c.427 0 .786.137 1.075.41.289.274.434.612.434 1.017v23.182c0 .38-.145.707-.434.98-.29.274-.635.411-1.037.411h-30.059c-.402 0-.748-.137-1.037-.41-.289-.274-.433-.6-.433-.98V28.426c0-.405.144-.743.433-1.017.29-.273.635-.41 1.037-.41h30.02zm-.849 22.424V30.576c0-.36-.14-.669-.42-.927a1.43 1.43 0 0 0-1.005-.388h-25.435c-.39 0-.725.13-1.005.388-.28.258-.42.567-.42.927v18.848c0 .36.14.669.42.927.28.259.615.388 1.005.388h25.435c.39 0 .725-.13 1.005-.388.28-.258.42-.567.42-.927z"/>
            <path fill="#141414" fill-rule="nonzero" d="M178.956 41.783c5.41 3.59 9.475 6.291 12.198 8.102.04.02.056.04.052.06-.005.02-.03.035-.077.046-.366.067-.634.113-.804.14l-5.544.96a.354.354 0 0 0-.211.128c-1.07 1.521-2.219 3.163-3.445 4.926a.266.266 0 0 0-.054.052c-.022.027-.043.033-.061.018-.019-.014-.028-.043-.029-.086l-2.163-14.249c-.017-.11-.02-.167-.009-.17a.491.491 0 0 1 .147.073z"/>
            <path fill="#141414" d="M186.49 56.826l-4.469-6.879a1.574 1.574 0 0 1 .464-2.179 1.578 1.578 0 0 1 2.182.465l4.469 6.878c.474.73.267 1.704-.462 2.178l-.002.001a1.578 1.578 0 0 1-2.182-.464z"/>
        </g>
        <g transform="translate(309 145)">
            <g transform="translate(.88)">
                <use fill="#000" filter="url(#e)" xlink:href="#f"/>
                <use fill="#FFF" xlink:href="#f"/>
            </g>
            <path fill="#EDF1F4" d="M60.242 12h.33a1 1 0 0 1 1 1v23a1 1 0 0 1-1 1h-.33a1 1 0 0 1-1-1V13a1 1 0 0 1 1-1zM6.824 9h44.264v6H6.824z"/>
            <rect width="118.978" height="8" x="62.071" y="118.5" stroke="#EDF1F4" rx="2"/>
            <path stroke="#EDF1F4" d="M143.61 4.5h37.44v4h-37.44z"/>
            <path fill="#EDF1F4" d="M6.824 24h34.945v7H6.824zM6.824 36h34.945v7H6.824zM6.824 49h34.945v7H6.824zM6.824 62h34.945v7H6.824z"/>
            <path fill="#97C3F0" fill-rule="nonzero" d="M84.886 20.484l1.584 2.004c.072.088.092.166.06.234s-.104.102-.216.102h-7.428l.096-.984c.04.008.196-.228.468-.708.224-.384.44-.768.648-1.152l.024-.048c.024-.024.064.012.12.108l.18.3c.048.08.104.13.168.15.064.02.118 0 .162-.06a.211.211 0 0 1 .18-.09c.076 0 .146.03.21.09s.146.078.246.054.186-.08.258-.168l.48-.564a.385.385 0 0 1 .276-.138.345.345 0 0 1 .276.126l.648.756.312.348c.08.088.17.13.27.126.1-.004.182-.054.246-.15a7.64 7.64 0 0 1 .216-.312c.072-.104.156-.156.252-.156s.184.044.264.132zm-.972-1.5c-.304 0-.562-.104-.774-.312a1.083 1.083 0 0 1-.33-.774c-.008-.308.1-.574.324-.798a1.07 1.07 0 0 1 .798-.33c.308.004.568.116.78.336.212.22.314.49.306.81 0 .304-.106.558-.318.762a1.09 1.09 0 0 1-.786.306zm3.576-3.564c.136 0 .25.046.342.138a.464.464 0 0 1 .138.342v7.8a.45.45 0 0 1-.138.33.45.45 0 0 1-.33.138h-9.564a.45.45 0 0 1-.33-.138.45.45 0 0 1-.138-.33v-7.8c0-.136.046-.25.138-.342a.45.45 0 0 1 .33-.138h9.552zm-.132 7.728V16.44a.45.45 0 0 0-.138-.33.45.45 0 0 0-.33-.138h-8.352a.45.45 0 0 0-.33.138.45.45 0 0 0-.138.33v6.708a.45.45 0 0 0 .138.33.45.45 0 0 0 .33.138h8.352a.45.45 0 0 0 .33-.138.45.45 0 0 0 .138-.33zM84.886 40.484l1.584 2.004c.072.088.092.166.06.234s-.104.102-.216.102h-7.428l.096-.984c.04.008.196-.228.468-.708.224-.384.44-.768.648-1.152l.024-.048c.024-.024.064.012.12.108l.18.3c.048.08.104.13.168.15.064.02.118 0 .162-.06a.211.211 0 0 1 .18-.09c.076 0 .146.03.21.09s.146.078.246.054.186-.08.258-.168l.48-.564a.385.385 0 0 1 .276-.138.345.345 0 0 1 .276.126l.648.756.312.348c.08.088.17.13.27.126.1-.004.182-.054.246-.15a7.64 7.64 0 0 1 .216-.312c.072-.104.156-.156.252-.156s.184.044.264.132zm-.972-1.5c-.304 0-.562-.104-.774-.312a1.083 1.083 0 0 1-.33-.774c-.008-.308.1-.574.324-.798a1.07 1.07 0 0 1 .798-.33c.308.004.568.116.78.336.212.22.314.49.306.81 0 .304-.106.558-.318.762a1.09 1.09 0 0 1-.786.306zm3.576-3.564c.136 0 .25.046.342.138a.464.464 0 0 1 .138.342v7.8a.45.45 0 0 1-.138.33.45.45 0 0 1-.33.138h-9.564a.45.45 0 0 1-.33-.138.45.45 0 0 1-.138-.33v-7.8c0-.136.046-.25.138-.342a.45.45 0 0 1 .33-.138h9.552zm-.132 7.728V36.44a.45.45 0 0 0-.138-.33.45.45 0 0 0-.33-.138h-8.352a.45.45 0 0 0-.33.138.45.45 0 0 0-.138.33v6.708a.45.45 0 0 0 .138.33.45.45 0 0 0 .33.138h8.352a.45.45 0 0 0 .33-.138.45.45 0 0 0 .138-.33zM84.886 60.484l1.584 2.004c.072.088.092.166.06.234s-.104.102-.216.102h-7.428l.096-.984c.04.008.196-.228.468-.708.224-.384.44-.768.648-1.152l.024-.048c.024-.024.064.012.12.108l.18.3c.048.08.104.13.168.15.064.02.118 0 .162-.06a.211.211 0 0 1 .18-.09c.076 0 .146.03.21.09s.146.078.246.054.186-.08.258-.168l.48-.564a.385.385 0 0 1 .276-.138.345.345 0 0 1 .276.126l.648.756.312.348c.08.088.17.13.27.126.1-.004.182-.054.246-.15a7.64 7.64 0 0 1 .216-.312c.072-.104.156-.156.252-.156s.184.044.264.132zm-.972-1.5c-.304 0-.562-.104-.774-.312a1.083 1.083 0 0 1-.33-.774c-.008-.308.1-.574.324-.798a1.07 1.07 0 0 1 .798-.33c.308.004.568.116.78.336.212.22.314.49.306.81 0 .304-.106.558-.318.762a1.09 1.09 0 0 1-.786.306zm3.576-3.564c.136 0 .25.046.342.138a.464.464 0 0 1 .138.342v7.8a.45.45 0 0 1-.138.33.45.45 0 0 1-.33.138h-9.564a.45.45 0 0 1-.33-.138.45.45 0 0 1-.138-.33v-7.8c0-.136.046-.25.138-.342a.45.45 0 0 1 .33-.138h9.552zm-.132 7.728V56.44a.45.45 0 0 0-.138-.33.45.45 0 0 0-.33-.138h-8.352a.45.45 0 0 0-.33.138.45.45 0 0 0-.138.33v6.708a.45.45 0 0 0 .138.33.45.45 0 0 0 .33.138h8.352a.45.45 0 0 0 .33-.138.45.45 0 0 0 .138-.33zM84.886 80.484l1.584 2.004c.072.088.092.166.06.234s-.104.102-.216.102h-7.428l.096-.984c.04.008.196-.228.468-.708.224-.384.44-.768.648-1.152l.024-.048c.024-.024.064.012.12.108l.18.3c.048.08.104.13.168.15.064.02.118 0 .162-.06a.211.211 0 0 1 .18-.09c.076 0 .146.03.21.09s.146.078.246.054.186-.08.258-.168l.48-.564a.385.385 0 0 1 .276-.138.345.345 0 0 1 .276.126l.648.756.312.348c.08.088.17.13.27.126.1-.004.182-.054.246-.15a7.64 7.64 0 0 1 .216-.312c.072-.104.156-.156.252-.156s.184.044.264.132zm-.972-1.5c-.304 0-.562-.104-.774-.312a1.083 1.083 0 0 1-.33-.774c-.008-.308.1-.574.324-.798a1.07 1.07 0 0 1 .798-.33c.308.004.568.116.78.336.212.22.314.49.306.81 0 .304-.106.558-.318.762a1.09 1.09 0 0 1-.786.306zm3.576-3.564c.136 0 .25.046.342.138a.464.464 0 0 1 .138.342v7.8a.45.45 0 0 1-.138.33.45.45 0 0 1-.33.138h-9.564a.45.45 0 0 1-.33-.138.45.45 0 0 1-.138-.33v-7.8c0-.136.046-.25.138-.342a.45.45 0 0 1 .33-.138h9.552zm-.132 7.728V76.44a.45.45 0 0 0-.138-.33.45.45 0 0 0-.33-.138h-8.352a.45.45 0 0 0-.33.138.45.45 0 0 0-.138.33v6.708a.45.45 0 0 0 .138.33.45.45 0 0 0 .33.138h8.352a.45.45 0 0 0 .33-.138.45.45 0 0 0 .138-.33zM112.842 20.484l1.584 2.004c.072.088.092.166.06.234s-.104.102-.216.102h-7.428l.096-.984c.04.008.196-.228.468-.708.224-.384.44-.768.648-1.152l.024-.048c.024-.024.064.012.12.108l.18.3c.048.08.104.13.168.15.064.02.118 0 .162-.06a.211.211 0 0 1 .18-.09c.076 0 .146.03.21.09s.146.078.246.054.186-.08.258-.168l.48-.564a.385.385 0 0 1 .276-.138.345.345 0 0 1 .276.126l.648.756.312.348c.08.088.17.13.27.126.1-.004.182-.054.246-.15.096-.144.168-.248.216-.312.072-.104.156-.156.252-.156s.184.044.264.132zm-.972-1.5c-.304 0-.562-.104-.774-.312a1.083 1.083 0 0 1-.33-.774c-.008-.308.1-.574.324-.798a1.07 1.07 0 0 1 .798-.33c.308.004.568.116.78.336.212.22.314.49.306.81 0 .304-.106.558-.318.762a1.09 1.09 0 0 1-.786.306zm3.576-3.564c.136 0 .25.046.342.138a.464.464 0 0 1 .138.342v7.8a.45.45 0 0 1-.138.33.45.45 0 0 1-.33.138h-9.564a.45.45 0 0 1-.33-.138.45.45 0 0 1-.138-.33v-7.8c0-.136.046-.25.138-.342a.45.45 0 0 1 .33-.138h9.552zm-.132 7.728V16.44a.45.45 0 0 0-.138-.33.45.45 0 0 0-.33-.138h-8.352a.45.45 0 0 0-.33.138.45.45 0 0 0-.138.33v6.708a.45.45 0 0 0 .138.33.45.45 0 0 0 .33.138h8.352a.45.45 0 0 0 .33-.138.45.45 0 0 0 .138-.33zM112.842 40.484l1.584 2.004c.072.088.092.166.06.234s-.104.102-.216.102h-7.428l.096-.984c.04.008.196-.228.468-.708.224-.384.44-.768.648-1.152l.024-.048c.024-.024.064.012.12.108l.18.3c.048.08.104.13.168.15.064.02.118 0 .162-.06a.211.211 0 0 1 .18-.09c.076 0 .146.03.21.09s.146.078.246.054.186-.08.258-.168l.48-.564a.385.385 0 0 1 .276-.138.345.345 0 0 1 .276.126l.648.756.312.348c.08.088.17.13.27.126.1-.004.182-.054.246-.15.096-.144.168-.248.216-.312.072-.104.156-.156.252-.156s.184.044.264.132zm-.972-1.5c-.304 0-.562-.104-.774-.312a1.083 1.083 0 0 1-.33-.774c-.008-.308.1-.574.324-.798a1.07 1.07 0 0 1 .798-.33c.308.004.568.116.78.336.212.22.314.49.306.81 0 .304-.106.558-.318.762a1.09 1.09 0 0 1-.786.306zm3.576-3.564c.136 0 .25.046.342.138a.464.464 0 0 1 .138.342v7.8a.45.45 0 0 1-.138.33.45.45 0 0 1-.33.138h-9.564a.45.45 0 0 1-.33-.138.45.45 0 0 1-.138-.33v-7.8c0-.136.046-.25.138-.342a.45.45 0 0 1 .33-.138h9.552zm-.132 7.728V36.44a.45.45 0 0 0-.138-.33.45.45 0 0 0-.33-.138h-8.352a.45.45 0 0 0-.33.138.45.45 0 0 0-.138.33v6.708a.45.45 0 0 0 .138.33.45.45 0 0 0 .33.138h8.352a.45.45 0 0 0 .33-.138.45.45 0 0 0 .138-.33zM112.842 60.484l1.584 2.004c.072.088.092.166.06.234s-.104.102-.216.102h-7.428l.096-.984c.04.008.196-.228.468-.708.224-.384.44-.768.648-1.152l.024-.048c.024-.024.064.012.12.108l.18.3c.048.08.104.13.168.15.064.02.118 0 .162-.06a.211.211 0 0 1 .18-.09c.076 0 .146.03.21.09s.146.078.246.054.186-.08.258-.168l.48-.564a.385.385 0 0 1 .276-.138.345.345 0 0 1 .276.126l.648.756.312.348c.08.088.17.13.27.126.1-.004.182-.054.246-.15.096-.144.168-.248.216-.312.072-.104.156-.156.252-.156s.184.044.264.132zm-.972-1.5c-.304 0-.562-.104-.774-.312a1.083 1.083 0 0 1-.33-.774c-.008-.308.1-.574.324-.798a1.07 1.07 0 0 1 .798-.33c.308.004.568.116.78.336.212.22.314.49.306.81 0 .304-.106.558-.318.762a1.09 1.09 0 0 1-.786.306zm3.576-3.564c.136 0 .25.046.342.138a.464.464 0 0 1 .138.342v7.8a.45.45 0 0 1-.138.33.45.45 0 0 1-.33.138h-9.564a.45.45 0 0 1-.33-.138.45.45 0 0 1-.138-.33v-7.8c0-.136.046-.25.138-.342a.45.45 0 0 1 .33-.138h9.552zm-.132 7.728V56.44a.45.45 0 0 0-.138-.33.45.45 0 0 0-.33-.138h-8.352a.45.45 0 0 0-.33.138.45.45 0 0 0-.138.33v6.708a.45.45 0 0 0 .138.33.45.45 0 0 0 .33.138h8.352a.45.45 0 0 0 .33-.138.45.45 0 0 0 .138-.33zM112.842 80.484l1.584 2.004c.072.088.092.166.06.234s-.104.102-.216.102h-7.428l.096-.984c.04.008.196-.228.468-.708.224-.384.44-.768.648-1.152l.024-.048c.024-.024.064.012.12.108l.18.3c.048.08.104.13.168.15.064.02.118 0 .162-.06a.211.211 0 0 1 .18-.09c.076 0 .146.03.21.09s.146.078.246.054.186-.08.258-.168l.48-.564a.385.385 0 0 1 .276-.138.345.345 0 0 1 .276.126l.648.756.312.348c.08.088.17.13.27.126.1-.004.182-.054.246-.15.096-.144.168-.248.216-.312.072-.104.156-.156.252-.156s.184.044.264.132zm-.972-1.5c-.304 0-.562-.104-.774-.312a1.083 1.083 0 0 1-.33-.774c-.008-.308.1-.574.324-.798a1.07 1.07 0 0 1 .798-.33c.308.004.568.116.78.336.212.22.314.49.306.81 0 .304-.106.558-.318.762a1.09 1.09 0 0 1-.786.306zm3.576-3.564c.136 0 .25.046.342.138a.464.464 0 0 1 .138.342v7.8a.45.45 0 0 1-.138.33.45.45 0 0 1-.33.138h-9.564a.45.45 0 0 1-.33-.138.45.45 0 0 1-.138-.33v-7.8c0-.136.046-.25.138-.342a.45.45 0 0 1 .33-.138h9.552zm-.132 7.728V76.44a.45.45 0 0 0-.138-.33.45.45 0 0 0-.33-.138h-8.352a.45.45 0 0 0-.33.138.45.45 0 0 0-.138.33v6.708a.45.45 0 0 0 .138.33.45.45 0 0 0 .33.138h8.352a.45.45 0 0 0 .33-.138.45.45 0 0 0 .138-.33zM140.798 20.484l1.584 2.004c.072.088.092.166.06.234s-.104.102-.216.102h-7.428l.096-.984c.04.008.196-.228.468-.708.224-.384.44-.768.648-1.152l.024-.048c.024-.024.064.012.12.108l.18.3c.048.08.104.13.168.15.064.02.118 0 .162-.06a.211.211 0 0 1 .18-.09c.076 0 .146.03.21.09s.146.078.246.054.186-.08.258-.168l.48-.564a.385.385 0 0 1 .276-.138.345.345 0 0 1 .276.126l.648.756.312.348c.08.088.17.13.27.126.1-.004.182-.054.246-.15.096-.144.168-.248.216-.312.072-.104.156-.156.252-.156s.184.044.264.132zm-.972-1.5c-.304 0-.562-.104-.774-.312a1.083 1.083 0 0 1-.33-.774c-.008-.308.1-.574.324-.798a1.07 1.07 0 0 1 .798-.33c.308.004.568.116.78.336.212.22.314.49.306.81 0 .304-.106.558-.318.762a1.09 1.09 0 0 1-.786.306zm3.576-3.564c.136 0 .25.046.342.138a.464.464 0 0 1 .138.342v7.8a.45.45 0 0 1-.138.33.45.45 0 0 1-.33.138h-9.564a.45.45 0 0 1-.33-.138.45.45 0 0 1-.138-.33v-7.8c0-.136.046-.25.138-.342a.45.45 0 0 1 .33-.138h9.552zm-.132 7.728V16.44a.45.45 0 0 0-.138-.33.45.45 0 0 0-.33-.138h-8.352a.45.45 0 0 0-.33.138.45.45 0 0 0-.138.33v6.708a.45.45 0 0 0 .138.33.45.45 0 0 0 .33.138h8.352a.45.45 0 0 0 .33-.138.45.45 0 0 0 .138-.33zM140.798 40.484l1.584 2.004c.072.088.092.166.06.234s-.104.102-.216.102h-7.428l.096-.984c.04.008.196-.228.468-.708.224-.384.44-.768.648-1.152l.024-.048c.024-.024.064.012.12.108l.18.3c.048.08.104.13.168.15.064.02.118 0 .162-.06a.211.211 0 0 1 .18-.09c.076 0 .146.03.21.09s.146.078.246.054.186-.08.258-.168l.48-.564a.385.385 0 0 1 .276-.138.345.345 0 0 1 .276.126l.648.756.312.348c.08.088.17.13.27.126.1-.004.182-.054.246-.15.096-.144.168-.248.216-.312.072-.104.156-.156.252-.156s.184.044.264.132zm-.972-1.5c-.304 0-.562-.104-.774-.312a1.083 1.083 0 0 1-.33-.774c-.008-.308.1-.574.324-.798a1.07 1.07 0 0 1 .798-.33c.308.004.568.116.78.336.212.22.314.49.306.81 0 .304-.106.558-.318.762a1.09 1.09 0 0 1-.786.306zm3.576-3.564c.136 0 .25.046.342.138a.464.464 0 0 1 .138.342v7.8a.45.45 0 0 1-.138.33.45.45 0 0 1-.33.138h-9.564a.45.45 0 0 1-.33-.138.45.45 0 0 1-.138-.33v-7.8c0-.136.046-.25.138-.342a.45.45 0 0 1 .33-.138h9.552zm-.132 7.728V36.44a.45.45 0 0 0-.138-.33.45.45 0 0 0-.33-.138h-8.352a.45.45 0 0 0-.33.138.45.45 0 0 0-.138.33v6.708a.45.45 0 0 0 .138.33.45.45 0 0 0 .33.138h8.352a.45.45 0 0 0 .33-.138.45.45 0 0 0 .138-.33zM140.798 60.484l1.584 2.004c.072.088.092.166.06.234s-.104.102-.216.102h-7.428l.096-.984c.04.008.196-.228.468-.708.224-.384.44-.768.648-1.152l.024-.048c.024-.024.064.012.12.108l.18.3c.048.08.104.13.168.15.064.02.118 0 .162-.06a.211.211 0 0 1 .18-.09c.076 0 .146.03.21.09s.146.078.246.054.186-.08.258-.168l.48-.564a.385.385 0 0 1 .276-.138.345.345 0 0 1 .276.126l.648.756.312.348c.08.088.17.13.27.126.1-.004.182-.054.246-.15.096-.144.168-.248.216-.312.072-.104.156-.156.252-.156s.184.044.264.132zm-.972-1.5c-.304 0-.562-.104-.774-.312a1.083 1.083 0 0 1-.33-.774c-.008-.308.1-.574.324-.798a1.07 1.07 0 0 1 .798-.33c.308.004.568.116.78.336.212.22.314.49.306.81 0 .304-.106.558-.318.762a1.09 1.09 0 0 1-.786.306zm3.576-3.564c.136 0 .25.046.342.138a.464.464 0 0 1 .138.342v7.8a.45.45 0 0 1-.138.33.45.45 0 0 1-.33.138h-9.564a.45.45 0 0 1-.33-.138.45.45 0 0 1-.138-.33v-7.8c0-.136.046-.25.138-.342a.45.45 0 0 1 .33-.138h9.552zm-.132 7.728V56.44a.45.45 0 0 0-.138-.33.45.45 0 0 0-.33-.138h-8.352a.45.45 0 0 0-.33.138.45.45 0 0 0-.138.33v6.708a.45.45 0 0 0 .138.33.45.45 0 0 0 .33.138h8.352a.45.45 0 0 0 .33-.138.45.45 0 0 0 .138-.33zM140.798 80.484l1.584 2.004c.072.088.092.166.06.234s-.104.102-.216.102h-7.428l.096-.984c.04.008.196-.228.468-.708.224-.384.44-.768.648-1.152l.024-.048c.024-.024.064.012.12.108l.18.3c.048.08.104.13.168.15.064.02.118 0 .162-.06a.211.211 0 0 1 .18-.09c.076 0 .146.03.21.09s.146.078.246.054.186-.08.258-.168l.48-.564a.385.385 0 0 1 .276-.138.345.345 0 0 1 .276.126l.648.756.312.348c.08.088.17.13.27.126.1-.004.182-.054.246-.15.096-.144.168-.248.216-.312.072-.104.156-.156.252-.156s.184.044.264.132zm-.972-1.5c-.304 0-.562-.104-.774-.312a1.083 1.083 0 0 1-.33-.774c-.008-.308.1-.574.324-.798a1.07 1.07 0 0 1 .798-.33c.308.004.568.116.78.336.212.22.314.49.306.81 0 .304-.106.558-.318.762a1.09 1.09 0 0 1-.786.306zm3.576-3.564c.136 0 .25.046.342.138a.464.464 0 0 1 .138.342v7.8a.45.45 0 0 1-.138.33.45.45 0 0 1-.33.138h-9.564a.45.45 0 0 1-.33-.138.45.45 0 0 1-.138-.33v-7.8c0-.136.046-.25.138-.342a.45.45 0 0 1 .33-.138h9.552zm-.132 7.728V76.44a.45.45 0 0 0-.138-.33.45.45 0 0 0-.33-.138h-8.352a.45.45 0 0 0-.33.138.45.45 0 0 0-.138.33v6.708a.45.45 0 0 0 .138.33.45.45 0 0 0 .33.138h8.352a.45.45 0 0 0 .33-.138.45.45 0 0 0 .138-.33zM168.754 20.484l1.584 2.004c.072.088.092.166.06.234s-.104.102-.216.102h-7.428l.096-.984c.04.008.196-.228.468-.708.224-.384.44-.768.648-1.152l.024-.048c.024-.024.064.012.12.108l.18.3c.048.08.104.13.168.15.064.02.118 0 .162-.06a.211.211 0 0 1 .18-.09c.076 0 .146.03.21.09s.146.078.246.054.186-.08.258-.168l.48-.564a.385.385 0 0 1 .276-.138.345.345 0 0 1 .276.126l.648.756.312.348c.08.088.17.13.27.126.1-.004.182-.054.246-.15.096-.144.168-.248.216-.312.072-.104.156-.156.252-.156s.184.044.264.132zm-.972-1.5c-.304 0-.562-.104-.774-.312a1.083 1.083 0 0 1-.33-.774c-.008-.308.1-.574.324-.798a1.07 1.07 0 0 1 .798-.33c.308.004.568.116.78.336.212.22.314.49.306.81 0 .304-.106.558-.318.762a1.09 1.09 0 0 1-.786.306zm3.576-3.564c.136 0 .25.046.342.138a.464.464 0 0 1 .138.342v7.8a.45.45 0 0 1-.138.33.45.45 0 0 1-.33.138h-9.564a.45.45 0 0 1-.33-.138.45.45 0 0 1-.138-.33v-7.8c0-.136.046-.25.138-.342a.45.45 0 0 1 .33-.138h9.552zm-.132 7.728V16.44a.45.45 0 0 0-.138-.33.45.45 0 0 0-.33-.138h-8.352a.45.45 0 0 0-.33.138.45.45 0 0 0-.138.33v6.708a.45.45 0 0 0 .138.33.45.45 0 0 0 .33.138h8.352a.45.45 0 0 0 .33-.138.45.45 0 0 0 .138-.33zM168.754 40.484l1.584 2.004c.072.088.092.166.06.234s-.104.102-.216.102h-7.428l.096-.984c.04.008.196-.228.468-.708.224-.384.44-.768.648-1.152l.024-.048c.024-.024.064.012.12.108l.18.3c.048.08.104.13.168.15.064.02.118 0 .162-.06a.211.211 0 0 1 .18-.09c.076 0 .146.03.21.09s.146.078.246.054.186-.08.258-.168l.48-.564a.385.385 0 0 1 .276-.138.345.345 0 0 1 .276.126l.648.756.312.348c.08.088.17.13.27.126.1-.004.182-.054.246-.15.096-.144.168-.248.216-.312.072-.104.156-.156.252-.156s.184.044.264.132zm-.972-1.5c-.304 0-.562-.104-.774-.312a1.083 1.083 0 0 1-.33-.774c-.008-.308.1-.574.324-.798a1.07 1.07 0 0 1 .798-.33c.308.004.568.116.78.336.212.22.314.49.306.81 0 .304-.106.558-.318.762a1.09 1.09 0 0 1-.786.306zm3.576-3.564c.136 0 .25.046.342.138a.464.464 0 0 1 .138.342v7.8a.45.45 0 0 1-.138.33.45.45 0 0 1-.33.138h-9.564a.45.45 0 0 1-.33-.138.45.45 0 0 1-.138-.33v-7.8c0-.136.046-.25.138-.342a.45.45 0 0 1 .33-.138h9.552zm-.132 7.728V36.44a.45.45 0 0 0-.138-.33.45.45 0 0 0-.33-.138h-8.352a.45.45 0 0 0-.33.138.45.45 0 0 0-.138.33v6.708a.45.45 0 0 0 .138.33.45.45 0 0 0 .33.138h8.352a.45.45 0 0 0 .33-.138.45.45 0 0 0 .138-.33zM168.754 60.484l1.584 2.004c.072.088.092.166.06.234s-.104.102-.216.102h-7.428l.096-.984c.04.008.196-.228.468-.708.224-.384.44-.768.648-1.152l.024-.048c.024-.024.064.012.12.108l.18.3c.048.08.104.13.168.15.064.02.118 0 .162-.06a.211.211 0 0 1 .18-.09c.076 0 .146.03.21.09s.146.078.246.054.186-.08.258-.168l.48-.564a.385.385 0 0 1 .276-.138.345.345 0 0 1 .276.126l.648.756.312.348c.08.088.17.13.27.126.1-.004.182-.054.246-.15.096-.144.168-.248.216-.312.072-.104.156-.156.252-.156s.184.044.264.132zm-.972-1.5c-.304 0-.562-.104-.774-.312a1.083 1.083 0 0 1-.33-.774c-.008-.308.1-.574.324-.798a1.07 1.07 0 0 1 .798-.33c.308.004.568.116.78.336.212.22.314.49.306.81 0 .304-.106.558-.318.762a1.09 1.09 0 0 1-.786.306zm3.576-3.564c.136 0 .25.046.342.138a.464.464 0 0 1 .138.342v7.8a.45.45 0 0 1-.138.33.45.45 0 0 1-.33.138h-9.564a.45.45 0 0 1-.33-.138.45.45 0 0 1-.138-.33v-7.8c0-.136.046-.25.138-.342a.45.45 0 0 1 .33-.138h9.552zm-.132 7.728V56.44a.45.45 0 0 0-.138-.33.45.45 0 0 0-.33-.138h-8.352a.45.45 0 0 0-.33.138.45.45 0 0 0-.138.33v6.708a.45.45 0 0 0 .138.33.45.45 0 0 0 .33.138h8.352a.45.45 0 0 0 .33-.138.45.45 0 0 0 .138-.33zM168.754 80.484l1.584 2.004c.072.088.092.166.06.234s-.104.102-.216.102h-7.428l.096-.984c.04.008.196-.228.468-.708.224-.384.44-.768.648-1.152l.024-.048c.024-.024.064.012.12.108l.18.3c.048.08.104.13.168.15.064.02.118 0 .162-.06a.211.211 0 0 1 .18-.09c.076 0 .146.03.21.09s.146.078.246.054.186-.08.258-.168l.48-.564a.385.385 0 0 1 .276-.138.345.345 0 0 1 .276.126l.648.756.312.348c.08.088.17.13.27.126.1-.004.182-.054.246-.15.096-.144.168-.248.216-.312.072-.104.156-.156.252-.156s.184.044.264.132zm-.972-1.5c-.304 0-.562-.104-.774-.312a1.083 1.083 0 0 1-.33-.774c-.008-.308.1-.574.324-.798a1.07 1.07 0 0 1 .798-.33c.308.004.568.116.78.336.212.22.314.49.306.81 0 .304-.106.558-.318.762a1.09 1.09 0 0 1-.786.306zm3.576-3.564c.136 0 .25.046.342.138a.464.464 0 0 1 .138.342v7.8a.45.45 0 0 1-.138.33.45.45 0 0 1-.33.138h-9.564a.45.45 0 0 1-.33-.138.45.45 0 0 1-.138-.33v-7.8c0-.136.046-.25.138-.342a.45.45 0 0 1 .33-.138h9.552zm-.132 7.728V76.44a.45.45 0 0 0-.138-.33.45.45 0 0 0-.33-.138h-8.352a.45.45 0 0 0-.33.138.45.45 0 0 0-.138.33v6.708a.45.45 0 0 0 .138.33.45.45 0 0 0 .33.138h8.352a.45.45 0 0 0 .33-.138.45.45 0 0 0 .138-.33z"/>
            <g fill="#141414">
                <path fill-rule="nonzero" d="M86.955 22.901l6.099 4.351c.02.01.028.021.026.032-.003.011-.016.02-.039.025-.183.036-.317.061-.402.075l-2.772.516a.175.175 0 0 0-.105.069c-.535.816-1.11 1.698-1.723 2.645a.138.138 0 0 0-.026.028c-.012.015-.022.018-.031.01-.01-.008-.014-.024-.015-.047l-1.081-7.652c-.009-.06-.01-.09-.005-.091.006-.002.03.012.074.04z"/>
                <path d="M90.786 31.378l-2.136-3.82a.857.857 0 0 1 .284-1.137.756.756 0 0 1 1.069.266l2.136 3.82a.857.857 0 0 1-.283 1.137.756.756 0 0 1-1.07-.266z"/>
            </g>
        </g>
        <g transform="translate(127 277)">
            <g transform="translate(.593)">
                <use fill="#000" filter="url(#g)" xlink:href="#h"/>
                <use fill="#FFF" xlink:href="#h"/>
            </g>
            <path fill="#ECEEFA" d="M1.021 0H19.68v198H1.021z"/>
            <path fill="#B7C5D9" fill-rule="nonzero" d="M326.593 14.5c-.346 0-.666-.098-.96-.295a2.067 2.067 0 0 1-.695-.795c-.17-.333-.255-.7-.255-1.1 0-.4.085-.767.255-1.1.17-.333.402-.598.695-.795.294-.197.614-.295.96-.295.347 0 .667.098.96.295.294.197.525.462.695.795.17.333.255.7.255 1.1 0 .4-.085.767-.255 1.1-.17.333-.401.598-.695.795a1.689 1.689 0 0 1-.96.295zm-1.05-2.78a1.338 1.338 0 0 0-.135 1.55c.124.207.29.372.5.495.21.123.439.185.685.185.247 0 .475-.062.685-.185.21-.123.377-.288.5-.495.124-.207.185-.433.185-.68 0-.133-.133-.22-.4-.26a5.934 5.934 0 0 0-.77-.02h-.2a1.31 1.31 0 0 1-.66-.165.838.838 0 0 1-.39-.425zm4.33 4.97v1.64a.53.53 0 0 1-.16.39.53.53 0 0 1-.39.16h-5.46a.53.53 0 0 1-.39-.16.53.53 0 0 1-.16-.39v-1.64a1.642 1.642 0 0 1 1.64-1.64h1.25l-.12.11a.142.142 0 0 0-.04.105c0 .043.014.082.04.115l.26.24a.273.273 0 0 1 .07.12.147.147 0 0 1-.01.12l-.5 1.23a.303.303 0 0 0-.015.13c.004.053.019.093.045.12l.58.85c.02.033.047.05.08.05.034 0 .064-.017.09-.05l.57-.85c.027-.027.042-.067.045-.12a.303.303 0 0 0-.015-.13l-.5-1.23a.147.147 0 0 1-.01-.12.273.273 0 0 1 .07-.12l.26-.24a.158.158 0 0 0 .05-.115.128.128 0 0 0-.05-.105l-.12-.11h1.25a1.642 1.642 0 0 1 1.64 1.64z"/>
            <circle cx="10.593" cy="11" r="5" fill="#0058FF"/>
            <circle cx="10.093" cy="38.5" r="3.5" fill="#BFC3D6"/>
            <circle cx="10.093" cy="52.5" r="3.5" fill="#BFC3D6"/>
            <circle cx="10.093" cy="66.5" r="3.5" fill="#BFC3D6"/>
            <circle cx="10.093" cy="80.5" r="3.5" fill="#BFC3D6"/>
            <rect width="51.253" height="5" x="231.637" y="80" fill="#ECEEFA" rx="2"/>
            <rect width="51.253" height="4" x="231.637" y="98" fill="#ECEEFA" rx="2"/>
            <rect width="51.253" height="5" x="231.637" y="115" fill="#ECEEFA" rx="2"/>
            <g>
                <path fill="#FFD81D" d="M141.593 72h63v91h-63z"/>
                <g transform="translate(145.593 79)">
                    <ellipse cx="34.667" cy="17.5" fill="#FFFEFE" rx="17.333" ry="17.5"/>
                    <ellipse cx="10.978" cy="40.25" fill="#FF8D31" rx="10.978" ry="11.083"/>
                    <path fill="#0058FF" d="M18.489 57.167H52V77H18.489z"/>
                </g>
            </g>
            <path fill="#141414" fill-rule="nonzero" d="M121.506 37.835h.805c.086 0 .158.022.215.065a.319.319 0 0 1 .115.165l1.48 4.98c.026.09.05.187.072.29.022.103.043.212.063.325.023-.113.046-.222.07-.327.023-.106.05-.201.08-.288l1.685-4.98c.02-.057.059-.11.117-.157a.322.322 0 0 1 .213-.073h.28c.086 0 .157.022.212.065a.355.355 0 0 1 .118.165l1.675 4.98c.06.173.113.372.16.595l.055-.315c.016-.1.038-.193.065-.28l1.485-4.98a.313.313 0 0 1 .112-.16.33.33 0 0 1 .213-.07h.755L129.316 45h-.87l-1.815-5.465a3.024 3.024 0 0 1-.1-.36l-.048.193c-.015.061-.03.117-.047.167L124.61 45h-.87l-2.235-7.165zM132.356 45v-7.365h.89v2.98c.216-.23.456-.414.72-.553.263-.138.566-.207.91-.207.276 0 .52.046.732.138.212.091.388.221.53.39.142.168.25.37.323.607.073.237.11.498.11.785V45h-.89v-3.225c0-.383-.088-.68-.263-.892-.175-.212-.442-.318-.802-.318-.264 0-.51.063-.738.19-.228.127-.44.298-.632.515V45h-.89zm9.28 0h-.395a.471.471 0 0 1-.21-.04c-.054-.027-.089-.083-.105-.17l-.1-.47c-.134.12-.264.227-.39.322a2.073 2.073 0 0 1-.848.388c-.158.033-.334.05-.527.05a1.8 1.8 0 0 1-.553-.082 1.178 1.178 0 0 1-.75-.665 1.459 1.459 0 0 1-.112-.598c0-.2.055-.392.165-.578.11-.185.287-.349.532-.492.245-.143.566-.26.963-.352a7.333 7.333 0 0 1 1.455-.158v-.395c0-.393-.085-.69-.253-.892-.168-.202-.417-.303-.747-.303-.217 0-.4.027-.548.083a2.072 2.072 0 0 0-.385.184 6.9 6.9 0 0 0-.28.185.404.404 0 0 1-.232.083.267.267 0 0 1-.158-.047.362.362 0 0 1-.107-.118l-.16-.285c.28-.27.581-.472.905-.605.323-.133.681-.2 1.075-.2.283 0 .535.047.755.14a1.548 1.548 0 0 1 .895.995c.076.237.115.497.115.78V45zm-2.31-.545a1.697 1.697 0 0 0 .798-.182c.114-.059.224-.13.33-.213.104-.083.207-.178.307-.285V42.72c-.41.013-.759.046-1.045.098-.287.051-.52.119-.7.202a.975.975 0 0 0-.393.295.635.635 0 0 0-.122.38c0 .133.021.248.065.345a.654.654 0 0 0 .435.373c.1.028.208.042.325.042zm5.195.625c-.4 0-.708-.112-.923-.335-.215-.223-.322-.545-.322-.965v-3.1h-.61a.2.2 0 0 1-.135-.047c-.037-.032-.055-.081-.055-.148v-.355l.83-.105.205-1.565a.19.19 0 0 1 .065-.123.207.207 0 0 1 .14-.047h.45v1.745h1.45v.645h-1.45v3.04c0 .213.051.372.155.475a.541.541 0 0 0 .4.155.706.706 0 0 0 .242-.038 1.04 1.04 0 0 0 .178-.082c.05-.03.092-.057.127-.082a.167.167 0 0 1 .093-.038c.046 0 .088.028.125.085l.26.425a1.658 1.658 0 0 1-.555.338c-.217.081-.44.122-.67.122zm7.69-.08c-.127 0-.207-.062-.24-.185l-.08-.615a2.666 2.666 0 0 1-.743.633 1.902 1.902 0 0 1-.957.237c-.29 0-.554-.056-.79-.167a1.638 1.638 0 0 1-.605-.493 2.346 2.346 0 0 1-.385-.81 4.17 4.17 0 0 1-.135-1.115c0-.373.05-.72.15-1.042.1-.322.244-.601.432-.838s.418-.422.688-.557a2.03 2.03 0 0 1 .92-.203c.31 0 .575.052.795.157.22.106.416.253.59.443v-2.81h.89V45h-.53zm-1.725-.65c.29 0 .544-.067.762-.2.218-.133.42-.322.603-.565v-2.45a1.408 1.408 0 0 0-.538-.462 1.551 1.551 0 0 0-.647-.133c-.474 0-.837.168-1.09.505-.254.337-.38.817-.38 1.44 0 .33.028.612.085.848.056.235.14.428.25.58.11.151.245.262.405.332.16.07.343.105.55.105zm5.8-4.495c.37 0 .704.062 1.002.185.298.123.552.298.76.525.208.227.368.5.48.823.112.321.168.68.168 1.077 0 .4-.056.76-.168 1.08-.112.32-.272.593-.48.82-.208.227-.462.4-.76.523a2.633 2.633 0 0 1-1.002.182c-.37 0-.705-.06-1.003-.182a2.111 2.111 0 0 1-.762-.523c-.21-.227-.372-.5-.485-.82a3.22 3.22 0 0 1-.17-1.08c0-.397.056-.756.17-1.078.113-.321.275-.595.485-.822.21-.227.464-.402.762-.525a2.602 2.602 0 0 1 1.003-.185zm0 4.52c.5 0 .873-.167 1.12-.502.246-.336.37-.803.37-1.403 0-.603-.124-1.073-.37-1.41-.247-.337-.62-.505-1.12-.505-.254 0-.474.043-.66.13a1.235 1.235 0 0 0-.468.375 1.666 1.666 0 0 0-.28.602 3.23 3.23 0 0 0-.092.808c0 .3.03.568.092.805.062.237.155.436.28.598.125.161.28.285.468.372.186.087.406.13.66.13zm6.925 2.12a.466.466 0 0 1-.113.16c-.045.04-.114.06-.207.06h-.66l.925-2.01-2.09-4.77h.77c.076 0 .136.02.18.057a.36.36 0 0 1 .095.128l1.355 3.19c.03.073.055.147.077.22.022.073.04.148.058.225.023-.077.046-.152.07-.225a3.68 3.68 0 0 1 .08-.225l1.315-3.185a.284.284 0 0 1 .102-.133.263.263 0 0 1 .158-.052h.71l-2.825 6.56zm5.555-6.64c.37 0 .704.062 1.002.185.298.123.552.298.76.525.208.227.368.5.48.823.112.321.168.68.168 1.077 0 .4-.056.76-.168 1.08-.112.32-.272.593-.48.82-.208.227-.462.4-.76.523a2.633 2.633 0 0 1-1.002.182c-.37 0-.705-.06-1.003-.182a2.111 2.111 0 0 1-.762-.523c-.21-.227-.372-.5-.485-.82a3.22 3.22 0 0 1-.17-1.08c0-.397.056-.756.17-1.078.113-.321.275-.595.485-.822.21-.227.464-.402.762-.525a2.602 2.602 0 0 1 1.003-.185zm0 4.52c.5 0 .873-.167 1.12-.502.246-.336.37-.803.37-1.403 0-.603-.124-1.073-.37-1.41-.247-.337-.62-.505-1.12-.505-.254 0-.474.043-.66.13a1.235 1.235 0 0 0-.468.375 1.666 1.666 0 0 0-.28.602 3.23 3.23 0 0 0-.092.808c0 .3.03.568.092.805.062.237.155.436.28.598.125.161.28.285.468.372.186.087.406.13.66.13zm4.28-4.44v3.23c0 .383.088.68.265.89.176.21.443.315.8.315.26 0 .505-.062.735-.185.23-.123.441-.295.635-.515v-3.735h.89V45h-.53c-.127 0-.207-.062-.24-.185l-.07-.545c-.22.243-.467.44-.74.587a1.94 1.94 0 0 1-.94.223c-.277 0-.521-.046-.733-.137a1.452 1.452 0 0 1-.532-.388 1.646 1.646 0 0 1-.323-.605 2.7 2.7 0 0 1-.107-.785v-3.23h.89zm6.06 0h.7a.275.275 0 0 1 .275.185l.97 3.26.075.347c.023.112.043.225.06.338a5.92 5.92 0 0 1 .09-.337l.105-.348 1.07-3.28a.264.264 0 0 1 .087-.125.244.244 0 0 1 .158-.05h.385c.066 0 .121.017.165.05a.258.258 0 0 1 .09.125l1.045 3.28c.036.117.069.232.097.345l.083.335a5.15 5.15 0 0 1 .15-.68l.99-3.26a.267.267 0 0 1 .26-.185h.67L184.99 45h-.705c-.087 0-.147-.057-.18-.17l-1.12-3.435a1.93 1.93 0 0 1-.065-.233 53.65 53.65 0 0 0-.05-.232l-.05.235c-.017.08-.039.158-.065.235l-1.135 3.43c-.037.113-.105.17-.205.17h-.67l-1.64-5.065zM191.146 45h-.395a.471.471 0 0 1-.21-.04c-.054-.027-.089-.083-.105-.17l-.1-.47c-.134.12-.264.227-.39.322a2.073 2.073 0 0 1-.847.388c-.16.033-.335.05-.528.05a1.8 1.8 0 0 1-.553-.082 1.178 1.178 0 0 1-.75-.665 1.459 1.459 0 0 1-.112-.598c0-.2.055-.392.165-.578.11-.185.287-.349.532-.492.245-.143.566-.26.963-.352a7.333 7.333 0 0 1 1.455-.158v-.395c0-.393-.085-.69-.253-.892-.168-.202-.417-.303-.747-.303-.217 0-.4.027-.548.083a2.072 2.072 0 0 0-.385.184 6.9 6.9 0 0 0-.28.185.404.404 0 0 1-.232.083.267.267 0 0 1-.158-.047.362.362 0 0 1-.107-.118l-.16-.285c.28-.27.581-.472.905-.605.323-.133.681-.2 1.075-.2.283 0 .535.047.755.14a1.548 1.548 0 0 1 .895.995c.076.237.115.497.115.78V45zm-2.31-.545a1.697 1.697 0 0 0 .798-.182c.114-.059.224-.13.33-.213.104-.083.207-.178.307-.285V42.72c-.41.013-.759.046-1.045.098-.287.051-.52.119-.7.202a.975.975 0 0 0-.393.295.635.635 0 0 0-.122.38c0 .133.021.248.065.345a.654.654 0 0 0 .435.373c.1.028.208.042.325.042zm3.66.545v-5.065h.53c.126 0 .206.062.24.185l.07.55c.22-.243.465-.44.737-.59.272-.15.586-.225.943-.225.276 0 .52.046.732.138.212.091.388.221.53.39.142.168.25.37.323.607.073.237.11.498.11.785V45h-.89v-3.225c0-.383-.088-.68-.263-.892-.175-.212-.442-.318-.802-.318-.264 0-.51.063-.738.19-.228.127-.44.298-.632.515V45h-.89zm7.095.08c-.4 0-.708-.112-.923-.335-.215-.223-.322-.545-.322-.965v-3.1h-.61a.2.2 0 0 1-.135-.047c-.037-.032-.055-.081-.055-.148v-.355l.83-.105.205-1.565a.19.19 0 0 1 .065-.123.207.207 0 0 1 .14-.047h.45v1.745h1.45v.645h-1.45v3.04c0 .213.051.372.155.475a.541.541 0 0 0 .4.155.706.706 0 0 0 .242-.038 1.04 1.04 0 0 0 .178-.082c.05-.03.092-.057.127-.082a.167.167 0 0 1 .093-.038c.046 0 .088.028.125.085l.26.425a1.658 1.658 0 0 1-.555.338c-.217.081-.44.122-.67.122zm5.66 0c-.4 0-.708-.112-.923-.335-.215-.223-.322-.545-.322-.965v-3.1h-.61a.2.2 0 0 1-.135-.047c-.037-.032-.055-.081-.055-.148v-.355l.83-.105.205-1.565a.19.19 0 0 1 .065-.123.207.207 0 0 1 .14-.047h.45v1.745h1.45v.645h-1.45v3.04c0 .213.051.372.155.475a.541.541 0 0 0 .4.155.706.706 0 0 0 .242-.038 1.04 1.04 0 0 0 .178-.082c.05-.03.092-.057.127-.082a.167.167 0 0 1 .093-.038c.046 0 .088.028.125.085l.26.425a1.658 1.658 0 0 1-.555.338c-.217.081-.44.122-.67.122zm4.245-5.225c.37 0 .704.062 1.002.185.298.123.552.298.76.525.208.227.368.5.48.823.112.321.168.68.168 1.077 0 .4-.056.76-.168 1.08-.112.32-.272.593-.48.82-.208.227-.462.4-.76.523a2.633 2.633 0 0 1-1.002.182c-.37 0-.705-.06-1.003-.182a2.111 2.111 0 0 1-.762-.523c-.21-.227-.372-.5-.485-.82a3.22 3.22 0 0 1-.17-1.08c0-.397.056-.756.17-1.078.113-.321.275-.595.485-.822.21-.227.464-.402.762-.525a2.602 2.602 0 0 1 1.003-.185zm0 4.52c.5 0 .873-.167 1.12-.502.246-.336.37-.803.37-1.403 0-.603-.124-1.073-.37-1.41-.247-.337-.62-.505-1.12-.505-.254 0-.474.043-.66.13a1.235 1.235 0 0 0-.468.375 1.666 1.666 0 0 0-.28.602 3.23 3.23 0 0 0-.092.808c0 .3.03.568.092.805.062.237.155.436.28.598.125.161.28.285.468.372.186.087.406.13.66.13zM218.5 45c-.127 0-.207-.062-.24-.185l-.08-.615a2.666 2.666 0 0 1-.743.633 1.902 1.902 0 0 1-.957.237c-.29 0-.554-.056-.79-.167a1.638 1.638 0 0 1-.605-.493 2.346 2.346 0 0 1-.385-.81 4.17 4.17 0 0 1-.135-1.115c0-.373.05-.72.15-1.042.1-.322.244-.601.432-.838s.418-.422.688-.557a2.03 2.03 0 0 1 .92-.203c.31 0 .575.052.795.157.22.106.416.253.59.443v-2.81h.89V45h-.53zm-1.725-.65c.29 0 .544-.067.762-.2.218-.133.42-.322.603-.565v-2.45a1.408 1.408 0 0 0-.538-.462 1.551 1.551 0 0 0-.647-.133c-.474 0-.837.168-1.09.505-.254.337-.38.817-.38 1.44 0 .33.028.612.085.848.056.235.14.428.25.58.11.151.245.262.405.332.16.07.343.105.55.105zm5.8-4.495c.37 0 .704.062 1.002.185.298.123.552.298.76.525.208.227.368.5.48.823.112.321.168.68.168 1.077 0 .4-.056.76-.168 1.08-.112.32-.272.593-.48.82-.208.227-.462.4-.76.523a2.633 2.633 0 0 1-1.002.182c-.37 0-.705-.06-1.003-.182a2.111 2.111 0 0 1-.762-.523c-.21-.227-.372-.5-.485-.82a3.22 3.22 0 0 1-.17-1.08c0-.397.056-.756.17-1.078.113-.321.275-.595.485-.822.21-.227.464-.402.762-.525a2.602 2.602 0 0 1 1.003-.185zm0 4.52c.5 0 .873-.167 1.12-.502.246-.336.37-.803.37-1.403 0-.603-.124-1.073-.37-1.41-.247-.337-.62-.505-1.12-.505-.254 0-.474.043-.66.13a1.235 1.235 0 0 0-.468.375 1.666 1.666 0 0 0-.28.602 3.23 3.23 0 0 0-.092.808c0 .3.03.568.092.805.062.237.155.436.28.598.125.161.28.285.468.372.186.087.406.13.66.13zm-115.89 7.56h.7a.275.275 0 0 1 .275.185l.97 3.26.075.347c.023.112.043.225.06.338a5.92 5.92 0 0 1 .09-.337l.105-.348 1.07-3.28a.264.264 0 0 1 .087-.125.244.244 0 0 1 .158-.05h.385c.066 0 .121.017.165.05a.258.258 0 0 1 .09.125l1.045 3.28c.036.117.069.232.097.345l.083.335a5.15 5.15 0 0 1 .15-.68l.99-3.26a.267.267 0 0 1 .26-.185h.67L112.57 57h-.705c-.087 0-.147-.057-.18-.17l-1.12-3.435a1.93 1.93 0 0 1-.065-.233 53.648 53.648 0 0 0-.05-.232l-.05.235c-.017.08-.039.158-.065.235l-1.135 3.43c-.037.113-.105.17-.205.17h-.67l-1.64-5.065zm8.32 5.065v-7.365h.89v2.98c.216-.23.456-.414.72-.553.263-.138.566-.207.91-.207.276 0 .52.046.732.138.212.091.388.221.53.39.142.168.25.37.323.607.073.237.11.498.11.785V57h-.89v-3.225c0-.383-.088-.68-.263-.892-.175-.212-.442-.318-.802-.318-.264 0-.51.063-.738.19-.228.127-.44.298-.632.515V57h-.89zm7.565-5.145c.303 0 .583.05.84.153a1.885 1.885 0 0 1 1.102 1.15c.105.281.158.602.158.962 0 .14-.015.233-.045.28-.03.047-.087.07-.17.07h-3.37c.006.32.05.598.13.835s.19.434.33.593c.14.158.306.276.5.354.193.079.41.118.65.118.223 0 .415-.026.577-.078a2.748 2.748 0 0 0 .71-.334.388.388 0 0 1 .203-.078c.073 0 .13.028.17.085l.25.325a1.69 1.69 0 0 1-.395.348 2.46 2.46 0 0 1-.493.242 3.313 3.313 0 0 1-1.097.19c-.35 0-.673-.06-.968-.178a2.123 2.123 0 0 1-.765-.52 2.386 2.386 0 0 1-.502-.847 3.446 3.446 0 0 1-.18-1.16c0-.353.054-.683.162-.99.108-.307.264-.572.468-.797.203-.226.451-.402.745-.53.293-.129.623-.193.99-.193zm.02.655c-.43 0-.769.124-1.015.373-.247.248-.4.592-.46 1.032h2.755c0-.207-.029-.396-.085-.568a1.265 1.265 0 0 0-.25-.444 1.119 1.119 0 0 0-.403-.29 1.357 1.357 0 0 0-.542-.103zm3.215 4.49v-5.065h.53c.126 0 .206.062.24.185l.07.55c.22-.243.465-.44.737-.59.272-.15.586-.225.943-.225.276 0 .52.046.732.138.212.091.388.221.53.39.142.168.25.37.323.607.073.237.11.498.11.785V57h-.89v-3.225c0-.383-.088-.68-.263-.892-.175-.212-.442-.318-.802-.318-.264 0-.51.063-.738.19-.228.127-.44.298-.632.515V57h-.89zm7.49 1.715v-6.78h.53c.126 0 .206.062.24.185l.075.6c.216-.263.464-.475.742-.635.278-.16.6-.24.963-.24.29 0 .553.056.79.168.236.111.438.276.605.495.166.218.295.489.385.812.09.323.135.695.135 1.115 0 .373-.05.72-.15 1.042-.1.322-.244.6-.43.836-.187.235-.416.42-.688.554a2.034 2.034 0 0 1-.917.203c-.314 0-.581-.052-.803-.155a1.808 1.808 0 0 1-.587-.44v2.24h-.89zm2.255-6.15c-.29 0-.545.067-.763.2-.218.133-.42.322-.602.565v2.45c.163.22.342.375.537.465.195.09.413.135.653.135.47 0 .831-.168 1.085-.505.253-.337.38-.817.38-1.44 0-.33-.03-.613-.088-.85a1.662 1.662 0 0 0-.252-.583.982.982 0 0 0-.405-.332 1.347 1.347 0 0 0-.545-.105zm5.27-.71c.303 0 .583.05.84.153a1.885 1.885 0 0 1 1.102 1.15c.105.281.158.602.158.962 0 .14-.015.233-.045.28-.03.047-.087.07-.17.07h-3.37c.006.32.05.598.13.835s.19.434.33.593c.14.158.306.276.5.354.193.079.41.118.65.118.223 0 .415-.026.577-.078a2.748 2.748 0 0 0 .71-.334.388.388 0 0 1 .203-.078c.073 0 .13.028.17.085l.25.325a1.69 1.69 0 0 1-.395.348 2.46 2.46 0 0 1-.493.242 3.313 3.313 0 0 1-1.098.19c-.35 0-.672-.06-.967-.178a2.123 2.123 0 0 1-.765-.52 2.386 2.386 0 0 1-.502-.847 3.446 3.446 0 0 1-.18-1.16c0-.353.054-.683.162-.99.108-.307.264-.572.468-.797.203-.226.451-.402.745-.53.293-.129.623-.193.99-.193zm.02.655c-.43 0-.769.124-1.015.373-.247.248-.4.592-.46 1.032h2.755c0-.207-.029-.396-.085-.568a1.265 1.265 0 0 0-.25-.444 1.119 1.119 0 0 0-.403-.29 1.357 1.357 0 0 0-.542-.103zm5.265-.655c.37 0 .704.062 1.002.185.298.123.552.298.76.525.208.227.368.5.48.823.112.321.168.68.168 1.077 0 .4-.056.76-.168 1.08-.112.32-.272.593-.48.82-.208.227-.462.4-.76.523a2.633 2.633 0 0 1-1.002.182c-.37 0-.705-.06-1.003-.182a2.111 2.111 0 0 1-.762-.523c-.21-.227-.372-.5-.485-.82a3.22 3.22 0 0 1-.17-1.08c0-.397.056-.756.17-1.078.113-.321.275-.595.485-.822.21-.227.464-.402.762-.525a2.602 2.602 0 0 1 1.003-.185zm0 4.52c.5 0 .873-.167 1.12-.502.246-.336.37-.803.37-1.403 0-.603-.124-1.073-.37-1.41-.247-.337-.62-.505-1.12-.505-.254 0-.474.043-.66.13a1.235 1.235 0 0 0-.468.375 1.666 1.666 0 0 0-.28.602 3.23 3.23 0 0 0-.092.808c0 .3.03.568.092.805.062.237.155.436.28.598.125.161.28.285.468.372.186.087.406.13.66.13zm3.51 2.34v-6.78h.53c.126 0 .206.062.24.185l.075.6c.216-.263.464-.475.742-.635.278-.16.6-.24.963-.24.29 0 .553.056.79.168.236.111.438.276.605.495.166.218.295.489.385.812.09.323.135.695.135 1.115 0 .373-.05.72-.15 1.042-.1.322-.244.6-.43.836-.187.235-.416.42-.688.554a2.034 2.034 0 0 1-.917.203c-.314 0-.581-.052-.803-.155a1.808 1.808 0 0 1-.587-.44v2.24h-.89zm2.255-6.15c-.29 0-.545.067-.763.2-.218.133-.42.322-.602.565v2.45c.163.22.342.375.537.465.195.09.413.135.653.135.47 0 .831-.168 1.085-.505.253-.337.38-.817.38-1.44 0-.33-.03-.613-.088-.85a1.662 1.662 0 0 0-.252-.583.982.982 0 0 0-.405-.332 1.347 1.347 0 0 0-.545-.105zm4.255-2.93V57h-.89v-7.365h.89zm3.575 2.22c.303 0 .583.05.84.153a1.885 1.885 0 0 1 1.102 1.15c.105.281.158.602.158.962 0 .14-.015.233-.045.28-.03.047-.087.07-.17.07h-3.37c.006.32.05.598.13.835s.19.434.33.593c.14.158.306.276.5.354.193.079.41.118.65.118.223 0 .415-.026.577-.078a2.748 2.748 0 0 0 .71-.334.388.388 0 0 1 .203-.078c.073 0 .13.028.17.085l.25.325a1.69 1.69 0 0 1-.395.348 2.46 2.46 0 0 1-.493.242 3.313 3.313 0 0 1-1.097.19c-.35 0-.673-.06-.968-.178a2.123 2.123 0 0 1-.765-.52 2.386 2.386 0 0 1-.502-.847 3.446 3.446 0 0 1-.18-1.16c0-.353.054-.683.162-.99.108-.307.264-.572.468-.797.203-.226.451-.402.745-.53.293-.129.623-.193.99-.193zm.02.655c-.43 0-.769.124-1.015.373-.247.248-.4.592-.46 1.032H161c0-.207-.029-.396-.085-.568a1.265 1.265 0 0 0-.25-.444 1.119 1.119 0 0 0-.403-.29 1.357 1.357 0 0 0-.542-.103zm8.045.26a.197.197 0 0 1-.185.11.348.348 0 0 1-.17-.055 3.92 3.92 0 0 0-.233-.123 2.184 2.184 0 0 0-.327-.124 1.562 1.562 0 0 0-.45-.058c-.15 0-.285.02-.405.057a.973.973 0 0 0-.308.158.697.697 0 0 0-.195.233.624.624 0 0 0-.067.287c0 .13.037.238.112.325a.978.978 0 0 0 .298.225c.123.063.263.12.42.167.156.049.317.1.482.155.165.056.326.116.483.183.156.067.296.15.42.25.123.1.222.222.297.367.075.146.113.32.113.523 0 .233-.042.45-.125.647-.084.199-.207.37-.37.515-.164.146-.364.26-.6.343-.237.083-.51.125-.82.125-.354 0-.674-.057-.96-.172a2.433 2.433 0 0 1-.73-.443l.21-.34a.305.305 0 0 1 .095-.1.267.267 0 0 1 .145-.035c.06 0 .123.023.19.07.066.047.147.098.242.155a1.572 1.572 0 0 0 .852.225c.174 0 .326-.022.456-.067a.956.956 0 0 0 .325-.183.723.723 0 0 0 .192-.265.824.824 0 0 0 .063-.32.53.53 0 0 0-.113-.347.95.95 0 0 0-.297-.236 2.424 2.424 0 0 0-.423-.17c-.158-.048-.32-.099-.485-.152a5.466 5.466 0 0 1-.485-.183 1.705 1.705 0 0 1-.422-.257 1.167 1.167 0 0 1-.298-.383 1.237 1.237 0 0 1-.112-.552 1.348 1.348 0 0 1 .47-1.028c.153-.135.341-.242.565-.322.223-.08.478-.12.765-.12.333 0 .632.052.897.158.265.105.494.249.688.432l-.2.325zm4.895.065a.397.397 0 0 1-.08.085.19.19 0 0 1-.115.03.286.286 0 0 1-.163-.063 2.368 2.368 0 0 0-.222-.137 1.545 1.545 0 0 0-.8-.2c-.247 0-.465.044-.655.132a1.27 1.27 0 0 0-.478.383 1.731 1.731 0 0 0-.29.605 3.002 3.002 0 0 0-.097.795c0 .307.035.58.105.817.07.239.168.439.295.6.126.162.28.285.462.37.182.086.386.128.613.128.216 0 .395-.026.535-.078.14-.051.256-.109.35-.172.093-.063.17-.12.23-.172a.277.277 0 0 1 .18-.078c.076 0 .133.028.17.085l.25.325c-.22.27-.495.467-.825.593-.33.125-.679.187-1.045.187-.317 0-.611-.058-.883-.175a2.012 2.012 0 0 1-.707-.508 2.408 2.408 0 0 1-.473-.817 3.286 3.286 0 0 1-.172-1.105c0-.377.052-.725.157-1.045.105-.32.258-.596.46-.828.202-.231.45-.412.748-.542a2.52 2.52 0 0 1 1.02-.195c.353 0 .666.057.94.173.273.115.515.277.725.487l-.235.32zM177.596 57h-.395a.471.471 0 0 1-.21-.04c-.054-.027-.089-.083-.105-.17l-.1-.47c-.134.12-.264.227-.39.322a2.073 2.073 0 0 1-.847.388c-.16.033-.335.05-.528.05a1.8 1.8 0 0 1-.553-.082 1.178 1.178 0 0 1-.75-.665 1.459 1.459 0 0 1-.112-.598c0-.2.055-.392.165-.578.11-.185.287-.349.532-.492.245-.143.566-.26.963-.352a7.333 7.333 0 0 1 1.455-.158v-.395c0-.393-.085-.69-.253-.892-.168-.202-.417-.303-.747-.303-.217 0-.4.027-.548.083a2.072 2.072 0 0 0-.385.184 6.9 6.9 0 0 0-.28.185.404.404 0 0 1-.232.083.267.267 0 0 1-.158-.047.362.362 0 0 1-.107-.118l-.16-.285c.28-.27.581-.472.905-.605.323-.133.681-.2 1.075-.2.283 0 .535.047.755.14a1.548 1.548 0 0 1 .895.995c.076.237.115.497.115.78V57zm-2.31-.545a1.697 1.697 0 0 0 .797-.182c.115-.059.225-.13.33-.213.105-.083.208-.178.308-.285V54.72c-.41.013-.759.046-1.045.098-.287.051-.52.119-.7.202a.975.975 0 0 0-.393.295.635.635 0 0 0-.122.38c0 .133.021.248.065.345a.654.654 0 0 0 .435.373c.1.028.208.042.325.042zm3.66.545v-5.065h.53c.126 0 .206.062.24.185l.07.55c.22-.243.465-.44.737-.59.272-.15.586-.225.943-.225.276 0 .52.046.732.138.212.091.388.221.53.39.142.168.25.37.323.607.073.237.11.498.11.785V57h-.89v-3.225c0-.383-.088-.68-.263-.892-.175-.212-.442-.318-.802-.318-.264 0-.51.063-.738.19-.228.127-.44.298-.632.515V57h-.89zm8.975 1.495a.466.466 0 0 1-.113.16c-.045.04-.114.06-.207.06h-.66l.925-2.01-2.09-4.77h.77c.076 0 .136.02.18.057a.36.36 0 0 1 .095.128l1.355 3.19c.03.073.055.147.077.22.022.073.04.148.058.225.023-.077.046-.152.07-.225a3.68 3.68 0 0 1 .08-.225l1.315-3.185a.284.284 0 0 1 .102-.133.263.263 0 0 1 .158-.052h.71l-2.825 6.56zm5.555-6.64c.37 0 .704.062 1.002.185.298.123.552.298.76.525.208.227.368.5.48.823.112.321.168.68.168 1.077 0 .4-.056.76-.168 1.08-.112.32-.272.593-.48.82-.208.227-.462.4-.76.523a2.633 2.633 0 0 1-1.002.182c-.37 0-.705-.06-1.003-.182a2.111 2.111 0 0 1-.762-.523c-.21-.227-.372-.5-.485-.82a3.22 3.22 0 0 1-.17-1.08c0-.397.056-.756.17-1.078.113-.321.275-.595.485-.822.21-.227.464-.402.762-.525a2.602 2.602 0 0 1 1.003-.185zm0 4.52c.5 0 .873-.167 1.12-.502.246-.336.37-.803.37-1.403 0-.603-.124-1.073-.37-1.41-.247-.337-.62-.505-1.12-.505-.254 0-.474.043-.66.13a1.235 1.235 0 0 0-.468.375 1.666 1.666 0 0 0-.28.602 3.23 3.23 0 0 0-.092.808c0 .3.03.568.092.805.062.237.155.436.28.598.125.161.28.285.468.372.186.087.406.13.66.13zm4.28-4.44v3.23c0 .383.088.68.265.89.176.21.443.315.8.315.26 0 .505-.062.735-.185.23-.123.441-.295.635-.515v-3.735h.89V57h-.53c-.127 0-.207-.062-.24-.185l-.07-.545c-.22.243-.467.44-.74.587a1.94 1.94 0 0 1-.94.223c-.277 0-.521-.046-.733-.137a1.452 1.452 0 0 1-.532-.388 1.646 1.646 0 0 1-.323-.605 2.7 2.7 0 0 1-.107-.785v-3.23h.89zm4.79 5.065v-5.065h.51c.096 0 .163.018.2.055.036.037.061.1.075.19l.06.79c.173-.353.387-.63.642-.828a1.42 1.42 0 0 1 .898-.297 1.325 1.325 0 0 1 .695.18l-.115.665c-.024.083-.075.125-.155.125a.778.778 0 0 1-.215-.047 1.356 1.356 0 0 0-.405-.048c-.31 0-.57.09-.778.27-.208.18-.382.442-.522.785V57h-.89zm5.96 1.715v-6.78h.53c.126 0 .206.062.24.185l.075.6c.216-.263.464-.475.742-.635.278-.16.6-.24.963-.24.29 0 .553.056.79.168.236.111.438.276.605.495.166.218.295.489.385.812.09.323.135.695.135 1.115 0 .373-.05.72-.15 1.042-.1.322-.244.6-.43.836-.187.235-.416.42-.688.554a2.034 2.034 0 0 1-.917.203c-.314 0-.581-.052-.803-.155a1.808 1.808 0 0 1-.587-.44v2.24h-.89zm2.255-6.15c-.29 0-.545.067-.763.2-.218.133-.42.322-.602.565v2.45c.163.22.342.375.537.465.195.09.413.135.653.135.47 0 .831-.168 1.085-.505.253-.337.38-.817.38-1.44 0-.33-.03-.613-.088-.85a1.662 1.662 0 0 0-.252-.583.982.982 0 0 0-.405-.332 1.347 1.347 0 0 0-.545-.105zm5.315-.71c.37 0 .704.062 1.002.185.298.123.552.298.76.525.208.227.368.5.48.823.112.321.168.68.168 1.077 0 .4-.056.76-.168 1.08-.112.32-.272.593-.48.82-.208.227-.462.4-.76.523a2.633 2.633 0 0 1-1.002.182c-.37 0-.705-.06-1.003-.182a2.111 2.111 0 0 1-.762-.523c-.21-.227-.372-.5-.485-.82a3.22 3.22 0 0 1-.17-1.08c0-.397.056-.756.17-1.078.113-.321.275-.595.485-.822.21-.227.464-.402.762-.525a2.602 2.602 0 0 1 1.003-.185zm0 4.52c.5 0 .873-.167 1.12-.502.246-.336.37-.803.37-1.403 0-.603-.124-1.073-.37-1.41-.247-.337-.62-.505-1.12-.505-.254 0-.474.043-.66.13a1.235 1.235 0 0 0-.468.375 1.666 1.666 0 0 0-.28.602 3.23 3.23 0 0 0-.092.808c0 .3.03.568.092.805.062.237.155.436.28.598.125.161.28.285.468.372.186.087.406.13.66.13zm6.41-3.605a.197.197 0 0 1-.185.11.348.348 0 0 1-.17-.055 3.92 3.92 0 0 0-.233-.123 2.184 2.184 0 0 0-.327-.124 1.562 1.562 0 0 0-.45-.058c-.15 0-.285.02-.405.057a.973.973 0 0 0-.308.158.697.697 0 0 0-.195.233.624.624 0 0 0-.067.287c0 .13.037.238.112.325a.978.978 0 0 0 .298.225c.123.063.263.12.42.167.156.049.317.1.482.155.165.056.326.116.483.183.156.067.296.15.42.25.123.1.222.222.297.367.075.146.113.32.113.523 0 .233-.042.45-.125.647-.084.199-.207.37-.37.515-.164.146-.364.26-.6.343-.237.083-.51.125-.82.125-.354 0-.674-.057-.96-.172a2.433 2.433 0 0 1-.73-.443l.21-.34a.305.305 0 0 1 .095-.1.267.267 0 0 1 .145-.035c.06 0 .123.023.19.07.066.047.147.098.242.155a1.572 1.572 0 0 0 .852.225c.174 0 .326-.022.456-.067a.956.956 0 0 0 .325-.183.723.723 0 0 0 .192-.265.824.824 0 0 0 .063-.32.53.53 0 0 0-.113-.347.95.95 0 0 0-.297-.236 2.424 2.424 0 0 0-.423-.17c-.158-.048-.32-.099-.485-.152a5.466 5.466 0 0 1-.485-.183 1.705 1.705 0 0 1-.422-.257 1.167 1.167 0 0 1-.298-.383 1.237 1.237 0 0 1-.112-.552 1.348 1.348 0 0 1 .47-1.028c.153-.135.341-.242.565-.322.223-.08.478-.12.765-.12.333 0 .632.052.897.158.265.105.494.249.688.432l-.2.325zm2.975 4.31c-.4 0-.708-.112-.923-.335-.215-.223-.322-.545-.322-.965v-3.1h-.61a.2.2 0 0 1-.135-.047c-.037-.032-.055-.081-.055-.148v-.355l.83-.105.205-1.565a.19.19 0 0 1 .065-.123.207.207 0 0 1 .14-.047h.45v1.745h1.45v.645h-1.45v3.04c0 .213.051.372.155.475a.541.541 0 0 0 .4.155.706.706 0 0 0 .242-.038 1.04 1.04 0 0 0 .178-.082c.05-.03.092-.057.127-.082a.167.167 0 0 1 .093-.038c.046 0 .088.028.125.085l.26.425a1.658 1.658 0 0 1-.555.338c-.217.081-.44.122-.67.122zm4.2-5.225c.303 0 .583.05.84.153a1.885 1.885 0 0 1 1.102 1.15c.105.281.158.602.158.962 0 .14-.015.233-.045.28-.03.047-.087.07-.17.07h-3.37c.006.32.05.598.13.835s.19.434.33.593c.14.158.306.276.5.354.193.079.41.118.65.118.223 0 .415-.026.577-.078a2.748 2.748 0 0 0 .71-.334.388.388 0 0 1 .203-.078c.073 0 .13.028.17.085l.25.325a1.69 1.69 0 0 1-.395.348 2.46 2.46 0 0 1-.493.242 3.313 3.313 0 0 1-1.097.19c-.35 0-.673-.06-.968-.178a2.123 2.123 0 0 1-.765-.52 2.386 2.386 0 0 1-.502-.847 3.446 3.446 0 0 1-.18-1.16c0-.353.054-.683.162-.99.108-.307.264-.572.468-.797.203-.226.451-.402.745-.53.293-.129.623-.193.99-.193zm.02.655c-.43 0-.769.124-1.015.373-.247.248-.4.592-.46 1.032h2.755c0-.207-.029-.396-.085-.568a1.265 1.265 0 0 0-.25-.444 1.119 1.119 0 0 0-.403-.29 1.357 1.357 0 0 0-.542-.103zm3.215 4.49v-5.065h.51c.096 0 .163.018.2.055.036.037.061.1.075.19l.06.79c.173-.353.387-.63.642-.828a1.42 1.42 0 0 1 .898-.297 1.325 1.325 0 0 1 .695.18l-.115.665c-.024.083-.075.125-.155.125a.778.778 0 0 1-.215-.047 1.356 1.356 0 0 0-.405-.048c-.31 0-.57.09-.778.27-.208.18-.382.442-.522.785V57h-.89zm3.47-6.525c.103-.097.217-.188.342-.275a2.557 2.557 0 0 1 .89-.388 2.556 2.556 0 0 1 1.29.058c.225.077.42.185.583.325.163.14.291.31.385.51.093.2.14.425.14.675 0 .253-.038.472-.113.655-.075.183-.17.344-.285.483-.115.138-.24.258-.377.36-.137.101-.265.197-.383.287-.118.09-.22.18-.305.27a.523.523 0 0 0-.147.3l-.09.765h-.61l-.06-.83v-.055c0-.14.037-.264.112-.373.075-.108.17-.21.285-.304.115-.096.238-.19.37-.285.132-.096.255-.2.37-.316.115-.115.21-.245.285-.392.075-.147.113-.32.113-.52a.88.88 0 0 0-.315-.688 1.017 1.017 0 0 0-.343-.187 1.343 1.343 0 0 0-.422-.065 1.61 1.61 0 0 0-.523.075 1.96 1.96 0 0 0-.61.33c-.062.05-.112.075-.152.075a.218.218 0 0 1-.195-.115l-.235-.375zm.98 5.975a.635.635 0 0 1 .177-.445.612.612 0 0 1 .443-.185.641.641 0 0 1 .445.185.635.635 0 0 1 .18.445.63.63 0 0 1-.18.445.635.635 0 0 1-.445.18.635.635 0 0 1-.245-.047.58.58 0 0 1-.198-.133.636.636 0 0 1-.177-.445z"/>
            <path fill="#A0A5C2" fill-rule="nonzero" d="M214.165 85.65v-8.31h10v8.31h-10zm3.72-5.67v2.98a234.463 234.463 0 0 0 2.78-1.49c-.707-.387-1.633-.883-2.78-1.49zm-2.51-1.98v.78h1.99V78h-1.99zm7.6.8v-.79h-1.99v.79h1.99zm-7.61 6.19h2v-.78h-2v.78zm7.62-.79h-1.99v.79h1.99v-.79zm-4.81-5.4h1.97v-.79h-1.97v.79zm0 6.19h1.98v-.79h-1.98v.79zM222.955 100.67c0 .06-.023.103-.07.13l-3.56 2.06-.03.01c-.007.007-.013.007-.02 0-.007-.007-.01-.017-.01-.03v-.06c0-1.807-.003-3.163-.01-4.07 0-.053.027-.093.08-.12.48-.28 1.206-.7 2.18-1.26l1.4-.81c.02-.007.033.003.04.03v4.12zm-3.98-2.1a.17.17 0 0 1 .08.07.25.25 0 0 1 .02.11v4.08c0 .013-.008.022-.025.025-.017.003-.038-.002-.065-.015l-3.52-2.03c-.06-.033-.09-.077-.09-.13.007-.913.01-2.283.01-4.11v-.04c0-.013.018-.012.055.005.037.017.077.038.12.065.043.027.105.06.185.1 1.133.66 2.21 1.283 3.23 1.87zm3.46-2.08l-.42.24c-1.227.707-2.147 1.24-2.76 1.6-.033.02-.062.028-.085.025a.383.383 0 0 1-.085-.025l-3.49-2.02a.995.995 0 0 1-.065-.035c-.017-.01.017-.045.1-.105s.185-.123.305-.19l.45-.27 2.71-1.56a.132.132 0 0 1 .14 0l3.57 2.06c.007 0 .015.005.025.015.01.01-.122.098-.395.265zM219.165 111.5c.907 0 1.746.227 2.52.68a5.062 5.062 0 0 1 1.8 1.8c.453.773.68 1.613.68 2.52s-.227 1.747-.68 2.52a5.062 5.062 0 0 1-1.8 1.8 4.896 4.896 0 0 1-2.52.68 4.896 4.896 0 0 1-2.52-.68 5.062 5.062 0 0 1-1.8-1.8 4.896 4.896 0 0 1-.68-2.52c0-.907.227-1.747.68-2.52a5.062 5.062 0 0 1 1.8-1.8 4.896 4.896 0 0 1 2.52-.68zm0 9.33c.787 0 1.513-.197 2.18-.59a4.373 4.373 0 0 0 1.56-1.56c.393-.667.59-1.392.59-2.175 0-.783-.197-1.512-.59-2.185a4.373 4.373 0 0 0-1.56-1.56 4.248 4.248 0 0 0-2.18-.59c-.78 0-1.507.197-2.18.59a4.373 4.373 0 0 0-1.56 1.56c-.394.673-.59 1.4-.59 2.18 0 .78.196 1.507.59 2.18a4.373 4.373 0 0 0 1.56 1.56c.673.393 1.4.59 2.18.59zm2.51-4.67c.093 0 .173.033.24.1s.1.147.1.24c0 .513-.13.993-.39 1.44a2.875 2.875 0 0 1-1.02 1.02c-.447.26-.927.39-1.44.39-.514 0-.993-.13-1.44-.39a2.875 2.875 0 0 1-1.02-1.02 2.815 2.815 0 0 1-.39-1.44c0-.093.033-.173.1-.24a.327.327 0 0 1 .24-.1c.093 0 .173.033.24.1s.1.147.1.24c0 .393.097.757.29 1.09.193.333.457.597.79.79.333.193.697.29 1.09.29.393 0 .757-.097 1.09-.29.333-.193.597-.457.79-.79.193-.333.29-.697.29-1.09 0-.093.033-.173.1-.24a.327.327 0 0 1 .24-.1zm-3.03-1.2a.471.471 0 0 1-.145.345.471.471 0 0 1-.345.145.471.471 0 0 1-.345-.145.471.471 0 0 1-.145-.345c0-.133.048-.248.145-.345a.471.471 0 0 1 .345-.145c.133 0 .248.048.345.145a.471.471 0 0 1 .145.345zm1.77-.42c.12.067.198.165.235.295a.45.45 0 0 1-.045.365.5.5 0 0 1-.295.23.45.45 0 0 1-.37-.04.476.476 0 0 1-.23-.295.466.466 0 0 1 .05-.375.471.471 0 0 1 .655-.18z"/>
        </g>
    </g>
</svg>
