<svg xmlns="http://www.w3.org/2000/svg" width="1439" height="570" viewBox="0 0 1439 570">
    <defs>
        <filter id="a" width="169.2%" height="221%" x="-34.6%" y="-60.5%" filterUnits="objectBoundingBox">
            <feOffset dy="50" in="SourceAlpha" result="shadowOffsetOuter1"/>
            <feGaussianBlur in="shadowOffsetOuter1" result="shadowBlurOuter1" stdDeviation="9.5"/>
            <feColorMatrix in="shadowBlurOuter1" result="shadowMatrixOuter1" values="0 0 0 0 0.181795704 0 0 0 0 0.329565382 0 0 0 0 0.54432398 0 0 0 0.0899286685 0"/>
            <feMerge>
                <feMergeNode in="shadowMatrixOuter1"/>
                <feMergeNode in="SourceGraphic"/>
            </feMerge>
        </filter>
        <linearGradient id="b" x1="0%" y1="47.884%" y2="47.884%">
            <stop offset="0%" stop-color="#5074AC"/>
            <stop offset="100%" stop-color="#2C3D84"/>
        </linearGradient>
    </defs>
    <g fill="none" fill-rule="evenodd">
        <g transform="translate(882 143)">
            <path stroke="#EDF1F4" stroke-width="2" d="M0 227.032L310.683 425 557 278.885V82.618L405.116 0z"/>
            <ellipse cx="451.887" cy="172.5" fill="#2AD6B0" rx="77.607" ry="34.5"/>
            <ellipse cx="339.407" cy="236" fill="#0058FF" rx="64.345" ry="28"/>
            <ellipse cx="215.138" cy="287" fill="#9D32FF" rx="60.907" ry="27"/>
            <path fill="#004BD9" d="M323.504 262.308l-34.997-17.25a4.608 4.608 0 0 1-.13-8.2 15.913 15.913 0 0 1 15.645.382l42.752 25.54-7.395.18a100 100 0 0 1-9.182-.2l-6.693-.452z"/>
            <ellipse cx="462.202" cy="195" fill="#20A98A" rx="9.332" ry="5"/>
            <path fill="#20A98A" d="M520.96 188l-46.804-25.364a4.921 4.921 0 0 1-.005-8.651 16.422 16.422 0 0 1 15.877.107l39.466 22.143a22.589 22.589 0 0 1-7.73 11.142l-.804.623z"/>
            <path fill="#EA3187" d="M173.255 268.051c-4.622 2.402 36.266-22.23 74.78 42.949 5.224-2.135 8.801-2.868 10.327-4.237-9.09-22.831-27.95-47.767-65.496-44.467-4.368.802-14.99 3.354-19.611 5.755z"/>
            <path fill="#004BD9" d="M374.054 259l-37.442-20.398a4.902 4.902 0 0 1 .013-8.616 16.564 16.564 0 0 1 15.857.052l38.499 21.156a93.99 93.99 0 0 1-16.614 7.697l-.313.109z"/>
        </g>
        <g filter="url(#a)" transform="matrix(-1 0 0 1 1388 206)">
            <path fill="url(#b)" d="M95.017 3.645l6.067-3.353.056.03-6.123 3.323" transform="translate(1.87 7.896)"/>
            <path fill="#212121" fill-opacity=".786" d="M54.959 109.822L30.626 96.337l-2.635-1.458-2.212-1.227-1.995-1.105-1.845-1.02-1.727-.959-1.633-.905-1.556-.862-1.48-.82-1.416-.783-1.348-.75-1.289-.714-1.229-.681-1.17-.647-1.109-.615-.634-.352a10.495 10.495 0 0 1-3.247-2.792 10.92 10.92 0 0 1-.703-1.052 10.516 10.516 0 0 1-.53-1.043 9.805 9.805 0 0 1-.817-3.91V69.5c0-.42.029-.839.087-1.25.396 2.255 2.154 4.456 5.281 6.187l57.306 31.693-.84.456C77.232 113.83 253.378 208.756 258 208.756c4.718 0 9.432-.982 13.015-2.95l105.938-58.152c2.272-1.249 3.828-2.75 4.667-4.344.483 1.729.732 3.535.724 5.375a9.776 9.776 0 0 1-2.774 6.742 9.577 9.577 0 0 1-.968.884 9.94 9.94 0 0 1-1.4.947l-.142.081-.723.393-.926.504-.984.535-1.044.57-1.104.6-1.16.634-1.219.662-1.277.698-2.738 1.49-1.464.798-1.534.834-1.611.88-1.7.924-1.803.982-1.937 1.056-2.127 1.159-82.694 45.043c-.696.383-1.435.728-2.21 1.036-1.357.54-2.817.964-4.342 1.276-.405.083-.815.158-1.226.224-1.356.22-2.749.35-4.149.395-.363.013-.725.02-1.09.02h-.094a33.542 33.542 0 0 1-4.309-.291 29.17 29.17 0 0 1-4.349-.911 22.673 22.673 0 0 1-3.43-1.307c-.322-.156-190.558-105.55-190.863-105.719l.005-.002z"/>
            <path fill="#F8F7F6" d="M5.738 74.928C-1.44 70.963-1.41 64.522 5.8 60.614L112.306 2.9c7.212-3.908 18.983-3.861 26.157.104l236.545 130.564c7.176 3.968 7.163 10.434-.027 14.377L269.127 205.94c-7.19 3.94-18.945 3.918-26.122-.047L5.738 74.928zm18.574 3.16l198.626 109.976 121.538-67.306-199.657-109.99-120.507 67.32z"/>
            <path fill="#EEF4FF" d="M24.312 78.089l120.507-67.322 199.657 109.99-121.538 67.307L24.312 78.09" opacity=".812"/>
            <path fill="#E5E6E3" d="M322.667 170.057c7.135-3.913 7.135-10.317 0-14.228-7.135-3.916-18.815-3.916-25.95 0-7.137 3.911-7.137 10.315 0 14.228 7.135 3.911 18.815 3.911 25.95 0"/>
            <path fill="#2C3D84" d="M58.495 45.4a1.066 1.066 0 0 1 .4-1.469l14.973-8.51 9.018-5.127a1.104 1.104 0 0 1 1.497.392 1.07 1.07 0 0 1-.4 1.471l-5.248 2.983-18.748 10.655-.545.144c-.378 0-.744-.191-.947-.538zM87.488 30.148a1.1 1.1 0 0 1-.943-.522c-.3-.5-.12-1.135.4-1.424l5.304-2.936a1.106 1.106 0 0 1 1.484.38c.301.5.124 1.137-.395 1.423l-5.308 2.937-.542.142"/>
        </g>
        <path fill="#EDF2FD" d="M1043.472 326.758c-155.52-96.527-396.28 27.88-527.806 80.708C317.853 486.92 145.964 472.681 0 364.753V16.156c0-87.879 175.293 215.873 529.352 120.125C883.41 40.532 973.202 58.516 1243 216.767c-61.599 35.221-203.177 115.522-199.528 109.99z"/>
    </g>
</svg>
