<svg xmlns="http://www.w3.org/2000/svg" xmlns:xlink="http://www.w3.org/1999/xlink" width="167" height="80" viewBox="0 0 167 80">
    <defs>
        <ellipse id="a" cx="42" cy="40" rx="41.553" ry="40"/>
    </defs>
    <g fill="none" fill-rule="evenodd">
        <g transform="translate(46)">
            <mask id="b" fill="#fff">
                <use xlink:href="#a"/>
            </mask>
            <use fill="#9D32FF" xlink:href="#a"/>
            <rect width="56.298" height="11.183" x="38.872" y="5.161" fill="#7C2AC8" mask="url(#b)" rx="5.591"/>
            <rect width="51.83" height="5.161" x="54.957" y="37.849" fill="#7C2AC8" mask="url(#b)" rx="2.581"/>
            <rect width="50.043" height="10.323" x="-18.319" y="52.473" fill="#7C2AC8" mask="url(#b)" rx="5.161"/>
        </g>
        <path fill="#EA3187" d="M46.122 38C5.798 39.682-8.085 43.215 4.474 48.6c18.838 8.078 98.937 12.875 144.06 2.357 30.083-7.012 23.41-11.331-20.02-12.957v2.832c0 1.347-.05 2.47-.15 3.368 13.155-.9 18.485-.393 15.992 1.525-1.886 1.45-28.643 6.178-56.46 6.666-27.323.478-55.67-3.256-62.435-4.891-9.102-2.2-2.215-3.3 20.661-3.3V38z"/>
    </g>
</svg>
