<svg xmlns="http://www.w3.org/2000/svg" xmlns:xlink="http://www.w3.org/1999/xlink" width="166" height="151" viewBox="0 0 166 151">
    <defs>
        <path id="a" d="M.566.643h9.443v8.42H.566z"/>
        <path id="c" d="M.54.643h9.443v8.42H.54z"/>
    </defs>
    <g fill="none" fill-rule="evenodd">
        <path fill="#ECEEFA" d="M53.369 118.84c26.833-13.707 71.516 21.731 99.453 0 27.937-21.73 4.732-31.527-20.258-55.177-34.107-32.277-1.741-29.908-12.59-39.046-11.483-9.674-80.004-26.312-93.714-9.008-13.71 17.303 32.025 43.9-14.395 71.316-31.346 18.513 10.564 47.722 41.504 31.916z"/>
        <g transform="translate(34.728 .082)">
            <ellipse cx="55.424" cy="144.814" fill="#EDF1F4" rx="55.424" ry="5.186"/>
            <path fill="#EDF1F4" d="M81.435 72.016s3.653 2.498 3.653 4.714v23.004h3.025V76.263s.44-1.652.88-1.91c.44-.257-5.92-5.736-5.92-5.736l-2.456 1.145.818 2.254z"/>
            <path fill="#D8D8D8" d="M83.136 70.07c.039-.11 6.634-6.277 6.98-6.24.348.037 3.703 1.411 3.857 4.272.154 2.86.559 6.204-4.252 8.952 0 0-.53.483-.838.297-.309-.186-5.747-7.28-5.747-7.28"/>
            <path fill="#A0A5C2" d="M85.656 69.668l2.45 2.938s3.192-2.38 2.486-4.403c-.705-2.022-2.417-.836-2.417-.836l-2.52 2.301z"/>
            <path fill="#0058FF" d="M94.053 64.86s1.891-1.174 2.11-1.015c.219.158 1.383 3.81 1.236 4.285-.145.476-1.71.603-1.964.38-.254-.221-1.382-3.65-1.382-3.65"/>
            <path fill="#E6E6E6" d="M87.667 70.266L76.87 77.394l-1.293-1.82 11.427-7.579s1.125-.559 1.752.315c.625.873-.084 1.232-.084 1.232l-1.006.724z"/>
            <g transform="translate(85.656 135.638)">
                <mask id="b" fill="#fff">
                    <use xlink:href="#a"/>
                </mask>
                <path fill="#A0A5C2" d="M10.01 4.853c0 2.325-2.114 4.211-4.722 4.211-2.607 0-4.722-1.886-4.722-4.21C.566 2.527 2.681.642 5.288.642c2.608 0 4.721 1.885 4.721 4.21" mask="url(#b)"/>
            </g>
            <path fill="#EDF1F4" d="M92.374 137.483l-1.823 1.454-3.867 3.084H27.712s3.02-2.844 3.08-3.084c.062-.242-1.63-.724-1.63-.724l.72-.979 62.492.249z"/>
            <path fill="#0058FF" d="M89.015 140.426l-3.825 3.191H26.872s2.987-2.944 3.048-3.191h59.095zM92.04 138.032l2.434-2.08s1.26-.769-.591-1.719c-1.852-.949-2.593-8.861-2.593-11.288V99.734h-5.555v34.605s-1.759.633-1.759 1.503v2.155l8.064.035z"/>
            <g transform="translate(18.475 135.638)">
                <mask id="d" fill="#fff">
                    <use xlink:href="#c"/>
                </mask>
                <path fill="#A0A5C2" d="M9.983 4.853c0 2.325-2.113 4.211-4.721 4.211S.54 7.178.54 4.854C.54 2.527 2.654.642 5.262.642c2.608 0 4.721 1.885 4.721 4.21" mask="url(#d)"/>
            </g>
            <path fill="#EDF1F4" d="M29.668 138.032h-3.856s-.768-1.43-3.013-1.43c-2.244 0-3.04 1.43-3.04 1.43h-2.964l1.92-3.192h8.704s3.652 1.137 3.652 3.192h-1.403z"/>
            <path fill="#004BD9" d="M70.54 64.248s-9.85-8.656-11.377-10.387C57.636 52.13 40.991 27.267 40.38 27.129c-.611-.139 2.902 10.25 2.902 10.25l8.093 15.928S62.6 61.825 63.133 62.24c.535.416 6.796 3.186 6.796 3.186l.61-1.178z"/>
            <path fill="#FFC493" d="M45.347 10.41v1.099c0 .02-.002.04-.005.058-.05.422-.632 5.248-.691 5.38-.043.096.277 1.146.499 1.84.1.32-.131.643-.478.674l-.53.046a.55.55 0 0 0-.48.383c-.305 1.035-1.213 4.024-1.581 4.046-.138.01-.967-.338-2.064-.838-2.432-1.111-6.165-2.978-6.493-3.386-.236-.293-.81-1.039-1.353-1.734-.554-.71-1.072-1.366-1.15-1.422-.139-.1-.804-1.323-.975-1.643a.486.486 0 0 1-.055-.163l-.594-3.852a.52.52 0 0 1 .297-.544l3.17-1.52a.57.57 0 0 1 .254-.056c.53.005 2.464.023 2.657 0 .204-.027 2.693.305 3.085.359a.594.594 0 0 1 .102.022c.32.109 2.113.704 2.517.86.364.137 2.477.01 3.227-.04a.566.566 0 0 1 .449.175c.094.101.192.216.192.257"/>
            <path fill="#FFC493" d="M40.308 23.182v.003c-.671-.332-1.2.195-1.57.833-.4.691-.612 1.514-.612 1.514l-7.055-3.346 1.613-4.633c.526.764 1.085 1.584 1.314 1.907.124.176.757.597 1.624 1.12l.002.002c.003 0 .003.003.007.005a92.896 92.896 0 0 0 4.677 2.595"/>
            <path fill="#DB9F6D" d="M40.308 23.159v.002c-.723-.308-1.293.182-1.691.775-.286-.775-3.168-3.05-3.347-3.191 1.448.751 3.493 1.725 5.038 2.414M46.187 11.716s-.402.831-.988.895c-.587.065-7.78-.508-8.645-.127-.864.38-1.284 1.08-1.284 1.08l.636-3.192 4.607.576 5.674.768z"/>
            <path fill="#06356D" d="M36.125 13.937s.12-2.794-.758-2.907c-.878-.111-3.63.15-2.951 1.9.678 1.753.797 2.87 1.275 2.87.48 0 .528 1.38.528 1.38s-.552 2.243-.887 2.31c-.334.067-.797.148-1.416.447-.617.298-8.994-6.26-2.732-12.148 0 0 1.634-7.53 9.18-5.74 9.892 2.349 11.403.224 12.4-2.049 0 0 2.672 12.652-4.847 11.878-7.518-.773-8.157-.96-8.555-.512-.4.447-1.237 2.571-1.237 2.571"/>
            <path fill="#0058FF" d="M29.888 23.164c.954.29 9.924 2.86 10.237 3.189.312.329 12.429 22.431 12.743 25.366.315 2.936-1.494 12.25-2.162 11.996-.67-.254-12.312-1.921-19.274 2.138 0 0-.984.834-1.77 0-.786-.833-1.14-2.718 0-4.603 0 0 .197-2.427-.354-4.24-.55-1.812-4.17-13.517-3.068-19.93 1.101-6.415 2.006-11.96 2.006-11.96s.688-2.246 1.642-1.956z"/>
            <path fill="#004BD9" d="M30.285 37.5l20.94 23.404-1.273 1.3s-7.436-.165-10.242.828c0 0 .717-4.255-1.064-3.9 0 0 3.414-.426 2.655-1.56 0 0-11.964-16.775-11.016-20.072"/>
            <path fill="#06356D" d="M19.933 122.074l-6.497 2.86s2.126 9.584 3.249 9.69c1.123.106 9.987 1.483 10.169.848.182-.636-1.032-1.113-1.76-1.695-.73-.582-2.065-1.906-1.397-2.595.668-.688 2.064-1.536 2.064-1.536l-4.674-7.572h-1.154z"/>
            <path fill="#322FB5" d="M20.154 120.68s5.151 9.188 5.696 9.294c.545.106 2.545.106 2.909 0 .364-.106 19.693-20.235 20.42-20.765.727-.532 5.938-5.79 6.302-6.64.364-.85.97-6.32.727-7.382-.242-1.062-15.875-16.198-15.875-16.198l-2.124 1.806s5.517 15.349 6.486 16.677c.97 1.327-.848.849-.97 1.22-.12.372-.242 1.382-.605 1.7-.364.319-22.966 20.288-22.966 20.288"/>
            <path fill="#06356D" d="M74.306 128.582s.304 3.824 4.81 5.226c4.504 1.401 3.53.992 3.835 1.635.304.642.182 1.46 0 1.518-.183.059-18.447.584-18.752 0-.304-.584-.487-3.211-.304-3.503.182-.293 1.218-2.861 1.522-3.796.304-.934 3.044-1.46 4.262-1.08 1.217.38 4.627 0 4.627 0"/>
            <path fill="#423FE0" d="M63.344 130.692s11.269-.159 12.172 0l.902.16s-5.718-34.134-6.983-35.99c-1.263-1.854-17.997-22.737-18.358-23.797-.362-1.06 0-5.407-.302-6.414-.3-1.007-1.203-1.539-2.046-1.617-.843-.079-15.17 2.254-16.012 2.836-.843.583-5.417 7.261.482 11.29 5.899 4.028 18.419 14.47 20.948 16.642 2.527 2.174 4.815 5.141 4.935 5.672.12.53-.421.69.3 1.22.723.53 3.192 18.656 3.613 23.267.421 4.611.35 6.731.35 6.731"/>
            <path fill="#FF3B88" d="M28.552 23.954s.965-3.355 1.232-3.204c.266.15 9.263 3.156 9.263 3.156s.534.208.4.635c-.133.426-.65 1.789-.65 1.789l-10.245-2.376zM30.028 65.319s-2.266 4.153 1.753 4.095c0 0 16.376-3.95 18.704-2.347 0 0 3.502-1.621.08-4.388-3.424-2.766-17.59-.483-20.537 2.64"/>
            <path fill="#FFC493" d="M77.897 67.82s1.748.916 2.594.814c.846-.102 2.48.117 2.988.007.508-.109 1.24.451 1.24.451s-1.409.967-1.578 1.273c-.17.305.846 3.87 1.579 4.48.733.61 1.184 1.018.79 1.324-.395.305-.62.611-1.241.865-.62.255-4.737.662-5.583 0-.846-.661-3.947-3.615-3.947-3.615s.037-4.717 3.158-5.6"/>
            <path fill="#0058FF" d="M31.343 34.3s3.338-2.699 5.773-1.059c2.435 1.64 17.477 19.957 17.988 20.469.51.513 19.284 11.619 19.598 11.824.314.205-1.492 5.16-2.08 5.467-.59.307-20.386-6.903-22.584-8.85-2.2-1.948-12.961-14.284-13.236-14.592-.275-.307-5.184-6.868-5.46-7.586-.274-.717-2.356-3.622 0-5.672"/>
            <path fill="#FF3B88" d="M73.202 71.206c-.034.11-.303.959 0 1.288.303.33 2.755 1.066 2.76.88.006-.184 1.717-5.44 2.828-6.065.067-.22.438-1.14-.337-1.434-.774-.294-2.386-.558-2.726-.404-.342.154-2.525 5.735-2.525 5.735"/>
        </g>
    </g>
</svg>
