<?xml version="1.0" encoding="UTF-8"?>
<svg width="230px" height="170px" viewBox="0 0 230 170" version="1.1" xmlns="http://www.w3.org/2000/svg" xmlns:xlink="http://www.w3.org/1999/xlink">
    <!-- Generator: Sketch 54.1 (76490) - https://sketchapp.com -->
    <title>pro</title>
    <desc>Created with Sketch.</desc>
    <defs>
        <polygon id="path-1" points="0.638429752 0.723946213 11.2871901 0.723946213 11.2871901 10.2119149 0.638429752 10.2119149"></polygon>
        <polygon id="path-3" points="0.609008264 0.723946213 11.2577686 0.723946213 11.2577686 10.2119149 0.609008264 10.2119149"></polygon>
    </defs>
    <g id="pro" stroke="none" stroke-width="1" fill="none" fill-rule="evenodd">
        <g id="Group-60">
            <g id="Group-57" transform="translate(22.000000, 1.000000)">
                <path d="M59.3688941,133.838743 C89.6579481,118.388407 140.09694,158.331199 171.632956,133.838743 C203.168972,109.346286 176.974214,98.3025346 148.765774,71.647203 C110.265264,35.266465 146.799869,37.9373798 134.554271,27.6371561 C121.591105,16.7333598 44.2445377,-2.01950296 28.7677197,17.4837804 C13.2909017,36.9870637 64.9179055,66.9652831 12.5183579,97.8659543 C-22.8651742,118.732067 24.4439432,151.653832 59.3688941,133.838743 Z" id="Oval-Copy-23" fill="#ECEEFA"></path>
                <g id="Group-50" transform="translate(39.000000, 0.000000)">
                    <ellipse id="Oval" fill="#EDF1F4" cx="62.5" cy="163.156915" rx="62.5" ry="5.84308511"></ellipse>
                    <g id="Group-53" transform="translate(15.151515, 0.000000)">
                        <path d="M76.6804469,81.1377031 C76.6804469,81.1377031 80.7999431,83.9528567 80.7999431,86.4486407 L80.7999431,112.367021 L84.2101098,112.367021 L84.2101098,85.9225726 C84.2101098,85.9225726 84.7058978,84.0622854 85.2026141,83.7720968 C85.6993305,83.4810976 78.5271176,77.3085106 78.5271176,77.3085106 L75.7575758,78.5989582 L76.6804469,81.1377031 Z" id="Fill-1" fill="#EDF1F4"></path>
                        <path d="M78.5984848,78.9457967 C78.64198,78.8205922 86.0787904,71.8730568 86.4702463,71.9150835 C86.8617023,71.9571102 90.6449237,73.5050929 90.8189041,76.7280138 C90.9928846,79.9500592 91.4491568,83.7175759 86.0242083,86.8144168 C86.0242083,86.8144168 85.4263638,87.3581369 85.0784029,87.1488791 C84.730442,86.9396212 78.5984848,78.9457967 78.5984848,78.9457967" id="Fill-3" fill="#D8D8D8"></path>
                        <path d="M81.4393939,78.4926633 L84.2023946,81.8031915 C84.2023946,81.8031915 87.8018474,79.1214007 87.0064381,76.8423305 C86.2110289,74.5640822 84.280376,75.8996354 84.280376,75.8996354 L81.4393939,78.4926633 Z" id="Fill-5" fill="#A0A5C2"></path>
                        <path d="M90.9090909,73.0761901 C90.9090909,73.0761901 93.0416451,71.7526978 93.2886063,71.9315077 C93.534763,72.1103175 94.8475991,76.2236926 94.6826901,76.759374 C94.5185856,77.2965518 92.7544622,77.4394501 92.4672793,77.188817 C92.1809008,76.9389321 90.9090909,73.0761901 90.9090909,73.0761901" id="Fill-7" fill="#0058FF"></path>
                        <path d="M83.7073382,79.1659639 L71.5337152,87.1968085 L70.0757576,85.1477288 L82.9612991,76.6081132 C82.9612991,76.6081132 84.230211,75.9783237 84.9365965,76.9621125 C85.6420598,77.9459012 84.8416125,78.3509423 84.8416125,78.3509423 L83.7073382,79.1659639 Z" id="Fill-9" fill="#E6E6E6"></path>
                        <g id="Group-13" transform="translate(81.439394, 152.819149)">
                            <mask id="mask-2" fill="white">
                                <use xlink:href="#path-1"></use>
                            </mask>
                            <g id="Clip-12"></g>
                            <path d="M11.2871901,5.46777345 C11.2871901,8.08752238 8.90371901,10.2123862 5.96322314,10.2123862 C3.02272727,10.2123862 0.638429752,8.08752238 0.638429752,5.46777345 C0.638429752,2.84802451 3.02272727,0.723946213 5.96322314,0.723946213 C8.90371901,0.723946213 11.2871901,2.84802451 11.2871901,5.46777345" id="Fill-11" fill="#A0A5C2" mask="url(#mask-2)"></path>
                        </g>
                        <path d="M89.0151515,154.897142 L86.9601196,156.535961 L82.5997462,160.010638 L16.0984848,160.010638 C16.0984848,160.010638 19.5048317,156.805789 19.5725311,156.535961 C19.6411212,156.263192 17.7330681,155.71986 17.7330681,155.71986 L18.5454605,154.617021 L89.0151515,154.897142 Z" id="Fill-16" fill="#EDF1F4"></path>
                        <path d="M85.2272727,158.212766 L80.9144305,161.808511 L15.1515152,161.808511 C15.1515152,161.808511 18.5200422,158.491936 18.5878708,158.212766 L85.2272727,158.212766 Z" id="Fill-18" fill="#0058FF"></path>
                        <path d="M88.6393372,155.515957 L91.3836988,153.172672 C91.3836988,153.172672 92.8050161,152.306478 90.716717,151.236375 C88.628418,150.167101 87.7930983,141.25234 87.7930983,138.517816 L87.7930983,112.367021 L81.5291112,112.367021 L81.5291112,151.355736 C81.5291112,151.355736 79.5454545,152.068585 79.5454545,153.049167 L79.5454545,155.476171 L88.6393372,155.515957 Z" id="Fill-20" fill="#0058FF"></path>
                        <g id="Group-24" transform="translate(5.681818, 152.819149)">
                            <mask id="mask-4" fill="white">
                                <use xlink:href="#path-3"></use>
                            </mask>
                            <g id="Clip-23"></g>
                            <path d="M11.2577686,5.46777345 C11.2577686,8.08752238 8.87429752,10.2123862 5.93380165,10.2123862 C2.99330579,10.2123862 0.609008264,8.08752238 0.609008264,5.46777345 C0.609008264,2.84802451 2.99330579,0.723946213 5.93380165,0.723946213 C8.87429752,0.723946213 11.2577686,2.84802451 11.2577686,5.46777345" id="Fill-22" fill="#A0A5C2" mask="url(#mask-4)"></path>
                        </g>
                        <path d="M18.3042075,155.515957 L13.9555858,155.515957 C13.9555858,155.515957 13.0897384,153.90395 10.5586578,153.90395 C8.02757723,153.90395 7.12942209,155.515957 7.12942209,155.515957 L3.78787879,155.515957 L5.95342039,151.920213 L15.7675884,151.920213 C15.7675884,151.920213 19.8863636,153.200415 19.8863636,155.515957 L18.3042075,155.515957 Z" id="Fill-27" fill="#EDF1F4"></path>
                        <path d="M64.3939394,72.3865481 C64.3939394,72.3865481 53.2864715,62.6337458 51.5650968,60.6831853 C49.8428779,58.7326249 31.0723799,30.7212709 30.3834924,30.5653893 C29.6946048,30.4086915 33.6557083,42.1128704 33.6557083,42.1128704 L42.7826245,60.0588428 C42.7826245,60.0588428 55.4392452,69.6557634 56.0420218,70.1242244 C56.6447984,70.5918692 63.7050518,73.712766 63.7050518,73.712766 L64.3939394,72.3865481 Z" id="Fill-36" fill="#004BD9"></path>
                        <path d="M35.9848485,11.7293104 L35.9848485,12.9664253 C35.9848485,12.9885641 35.9820447,13.0115884 35.9792409,13.0319561 C35.9231655,13.507497 35.2661479,18.9447808 35.1997919,19.094439 C35.1511932,19.2015907 35.51288,20.384687 35.7624158,21.1675141 C35.8745667,21.5261623 35.6147504,21.8910094 35.2231567,21.9264314 L34.625953,21.9777934 C34.3689404,22.0034744 34.1539845,22.1726146 34.0838901,22.4099423 C33.7408952,23.5753276 32.7165833,26.9430785 32.3016248,26.9678739 C32.1464827,26.9785005 31.210957,26.5870869 29.9744929,26.0238764 C27.2324026,24.7717072 23.0220695,22.6685233 22.6519714,22.2089222 C22.3865476,21.8786117 21.7379413,21.0382237 21.1267187,20.2553965 C20.5024118,19.4557438 19.9182924,18.7163087 19.8295062,18.652549 C19.6734295,18.5409695 18.9229528,17.1621665 18.7304271,16.8017472 C18.6977164,16.7433008 18.6790245,16.6821978 18.668744,16.6184381 L17.9986422,12.2783521 C17.9612586,12.02597 18.0949051,11.7797868 18.3332258,11.6655507 L21.9089715,9.95378041 C21.9977576,9.91038841 22.0940205,9.89002073 22.1940218,9.89002073 C22.7912255,9.89533404 24.9734958,9.91570171 25.1903209,9.89002073 C25.421165,9.85991199 28.2277421,10.2336146 28.6698037,10.293832 C28.7099911,10.2991453 28.744571,10.3071153 28.7847584,10.319513 C29.1464452,10.4417191 31.1679658,11.1120813 31.6231117,11.2874204 C32.0333972,11.4423918 34.4166046,11.2998181 35.261475,11.2440284 C35.451197,11.2316307 35.6390498,11.3024748 35.7680233,11.4397352 C35.8745667,11.5539713 35.9848485,11.6832617 35.9848485,11.7293104" id="Fill-37" fill="#FFC493"></path>
                        <path d="M30.3030303,26.1187058 L30.3030303,26.1216266 C29.5455536,25.7477595 28.9488364,26.341663 28.5319517,27.0601888 C28.081462,27.8390786 27.8416852,28.7659574 27.8416852,28.7659574 L19.8863636,24.9961309 L21.704671,19.7765957 C22.2986635,20.637269 22.9289858,21.561227 23.1869275,21.9243843 C23.3267973,22.1230012 24.0406782,22.5971504 25.0179502,23.1871594 L25.020675,23.1891066 C25.0233997,23.1891066 25.0233997,23.1920274 25.0279409,23.1949483 C26.5438025,24.1052757 28.6854452,25.2843201 30.3030303,26.1187058" id="Fill-38" fill="#FFC493"></path>
                        <path d="M30.3030303,26.092245 L30.3030303,26.0949622 C29.4871494,25.7471622 28.8444231,26.299657 28.3953951,26.9680851 C28.0725645,26.0949622 24.8237149,23.530843 24.6212121,23.3723404 C26.2539522,24.2191972 28.5607235,25.3160352 30.3030303,26.092245" id="Fill-39" fill="#DB9F6D"></path>
                        <path d="M36.9318182,13.199533 C36.9318182,13.199533 36.4792866,14.1365043 35.8179691,14.2088884 C35.1556804,14.2812724 27.044101,13.6365182 26.0691189,14.0647905 C25.0951078,14.4923926 24.6212121,15.2819149 24.6212121,15.2819149 L25.3388534,11.6861702 L30.5342263,12.3342755 L36.9318182,13.199533 Z" id="Fill-40" fill="#DB9F6D"></path>
                        <path d="M25.5852714,15.7027651 C25.5852714,15.7027651 25.7202306,12.5539558 24.7305302,12.4274765 C23.7408298,12.3018754 20.6376516,12.5952373 21.40242,14.5688425 C22.1671885,16.5424476 22.3012656,17.8019714 22.8411022,17.8019714 C23.3809387,17.8019714 23.4365101,19.3557353 23.4365101,19.3557353 C23.4365101,19.3557353 22.8137575,21.8826877 22.4362247,21.958224 C22.058692,22.0346386 21.5373792,22.1259848 20.8396492,22.4623848 C20.1428014,22.7979065 10.6965434,15.4094033 17.7585231,8.77538464 C17.7585231,8.77538464 19.6012006,0.291605215 28.1098013,2.30912684 C39.2655418,4.95465366 40.9688497,2.56120725 42.0935092,0 C42.0935092,0 45.1067147,14.2544007 36.6281049,13.3830984 C28.1494952,12.511796 27.4297131,12.3018754 26.9798492,12.8060362 C26.5299854,13.3093187 25.5852714,15.7027651 25.5852714,15.7027651" id="Fill-41" fill="#06356D"></path>
                        <path d="M18.5525312,26.0981887 C19.6284747,26.4244655 29.743387,29.319959 30.0956562,29.6906505 C30.4479255,30.061342 44.1116246,54.9634397 44.4665033,58.2706228 C44.821382,61.5778059 42.7808296,72.0716208 42.0275822,71.7854879 C41.2725952,71.4993551 28.1438235,69.6211279 20.2930024,74.1941285 C20.2930024,74.1941285 19.1840065,75.1336692 18.2968098,74.1941285 C17.4104829,73.255442 17.0112444,71.1320801 18.2968098,69.0087183 C18.2968098,69.0087183 18.5194788,66.2738009 17.8984411,64.2315811 C17.2774034,62.1902156 13.1962986,49.0024814 14.438374,41.7765597 C15.6804494,34.5497839 16.7007256,28.3026927 16.7007256,28.3026927 C16.7007256,28.3026927 17.4765878,25.7719118 18.5525312,26.0981887 Z" id="Fill-42" fill="#0058FF"></path>
                        <path d="M18.9996522,42.25 L42.6136364,68.618864 L41.1773115,70.084033 C41.1773115,70.084033 32.7922059,69.8976482 29.6282735,71.0159574 C29.6282735,71.0159574 30.4363775,66.2217705 28.4284446,66.6212861 C28.4284446,66.6212861 32.278124,66.1415331 31.4225382,64.8635847 C31.4225382,64.8635847 17.9313114,45.9651606 18.9996522,42.25" id="Fill-43" fill="#004BD9"></path>
                        <path d="M7.32592763,137.537234 L0,140.7589 C0,140.7589 2.39692538,151.557138 3.66341134,151.676952 C4.9298973,151.795934 14.9257385,153.346859 15.1307033,152.631303 C15.3365632,151.914915 13.9671473,151.378249 13.1454978,150.721768 C12.3238482,150.066119 10.8174907,148.574268 11.571117,147.798805 C12.3238482,147.023342 13.898229,146.068158 13.898229,146.068158 L8.62732028,137.537234 L7.32592763,137.537234 Z" id="Fill-44" fill="#06356D"></path>
                        <path d="M7.57575758,135.965709 C7.57575758,135.965709 13.3841448,146.317761 13.9987511,146.437095 C14.6133575,146.556429 16.8689984,146.556429 17.2790338,146.437095 C17.6890691,146.317761 39.4861543,123.639214 40.3062249,123.041708 C41.1262956,122.442532 47.0025754,116.519206 47.4126107,115.562027 C47.822646,114.604013 48.5060382,108.441184 48.2326814,107.244501 C47.9593245,106.047819 30.3304852,88.9946809 30.3304852,88.9946809 L27.9354858,91.0292075 C27.9354858,91.0292075 34.1565883,108.321849 35.2500158,109.818119 C36.3434434,111.313555 34.2932667,110.774464 34.1565883,111.193386 C34.0199098,111.612308 33.8832314,112.74974 33.4731961,113.108578 C33.0631607,113.467416 7.57575758,135.965709 7.57575758,135.965709" id="Fill-45" fill="#322FB5"></path>
                        <path d="M68.6405202,144.868887 C68.6405202,144.868887 68.9833841,149.177626 74.0644127,150.756701 C79.1445438,152.335777 78.045943,151.875175 78.3897045,152.599109 C78.7325685,153.322126 78.5952434,154.243329 78.3897045,154.309392 C78.1832681,154.375454 57.5871962,154.967264 57.2434347,154.309392 C56.9005707,153.65152 56.6941343,150.691556 56.9005707,150.362162 C57.1061096,150.032767 58.2738217,147.138866 58.6166856,146.085537 C58.9604471,145.033126 62.0498131,144.441316 63.423064,144.868887 C64.7954174,145.296458 68.6405202,144.868887 68.6405202,144.868887" id="Fill-46" fill="#06356D"></path>
                        <path d="M56.2799577,147.246473 C56.2799577,147.246473 68.9869774,147.067414 70.0048523,147.246473 L71.0227273,147.425532 C71.0227273,147.425532 64.5747068,108.96865 63.148617,106.87824 C61.7234145,104.788663 42.8532375,81.2603065 42.44591,80.0660245 C42.0385825,78.8717424 42.44591,73.9746862 42.1060267,72.8403681 C41.7670309,71.7052172 40.7491559,71.1064105 39.7987252,71.0181302 C38.847407,70.9298499 22.6927463,73.557437 21.7423156,74.2137092 C20.7918848,74.8708142 15.633291,82.3946246 22.2854189,86.9335628 C28.9375468,91.4716681 43.0564575,103.23543 45.9077498,105.683958 C48.7581546,108.132486 51.3378952,111.476309 51.4736711,112.074283 C51.6094469,112.670591 50.998012,112.850483 51.8126669,113.447624 C52.6273218,114.044765 55.4111699,134.467488 55.8859416,139.662698 C56.3607133,144.857909 56.2799577,147.246473 56.2799577,147.246473" id="Fill-47" fill="#423FE0"></path>
                        <path d="M17.0454545,26.9880425 C17.0454545,26.9880425 18.1340926,23.2082625 18.4347454,23.3778832 C18.7353982,23.5475039 28.880955,26.9336061 28.880955,26.9336061 C28.880955,26.9336061 29.4822605,27.1679193 29.3319342,27.6491687 C29.1816078,28.1296292 28.5989702,29.6648936 28.5989702,29.6648936 L17.0454545,26.9880425 Z" id="Fill-48" fill="#FF3B88"></path>
                        <path d="M18.7105641,73.5925551 C18.7105641,73.5925551 16.1546918,78.2715418 20.6864365,78.2067807 C20.6864365,78.2067807 39.153142,73.7571562 41.7785439,75.5623707 C41.7785439,75.5623707 45.7276483,73.7355691 41.8683163,70.6180436 C38.0081042,67.5014176 22.0330221,70.0738708 18.7105641,73.5925551" id="Fill-49" fill="#FF3B88"></path>
                        <path d="M72.690199,76.4095745 C72.690199,76.4095745 74.6612787,77.4423759 75.6156438,77.3271757 C76.5691775,77.2127755 78.413064,77.4599759 78.985018,77.3359757 C79.5578033,77.2127755 80.3841438,77.8439764 80.3841438,77.8439764 C80.3841438,77.8439764 78.7946438,78.9335778 78.6034382,79.2775783 C78.413064,79.6215788 79.5578033,83.6375842 80.3841438,84.3255851 C81.2113156,85.013586 81.7192573,85.4727866 81.2744966,85.8167871 C80.8297358,86.1607875 80.5753493,86.505588 79.8753708,86.7919884 C79.1762235,87.0791888 74.5340855,87.5375894 73.5805517,86.7919884 C72.6261867,86.0463874 69.1287879,82.7191829 69.1287879,82.7191829 C69.1287879,82.7191829 69.1711856,77.4039758 72.690199,76.4095745" id="Fill-50" fill="#FFC493"></path>
                        <path d="M20.1925548,38.6455628 C20.1925548,38.6455628 23.9567288,35.6043298 26.702995,37.4519433 C29.4492613,39.2995567 46.411494,59.9366096 46.987324,60.5132841 C47.563154,61.0907639 68.7333753,73.6036334 69.0877323,73.8347864 C69.4420892,74.0659394 67.4045368,79.6482449 66.7409861,79.9945718 C66.0765668,80.3408986 43.753817,72.2175206 41.2741869,70.0227749 C38.7936884,67.8288346 26.6587004,53.9298524 26.3486381,53.5835255 C26.0385758,53.2371987 20.5026172,45.8451341 20.1925548,45.0365012 C19.8824925,44.2278683 17.5348778,40.9554823 20.1925548,38.6455628" id="Fill-51" fill="#0058FF"></path>
                        <path d="M67.3955136,80.2253233 C67.357546,80.3501019 67.0538054,81.3058711 67.3955136,81.6767407 C67.7372218,82.0484769 70.502155,82.8777344 70.5088552,82.6689036 C70.5148109,82.4609394 72.4444573,76.5391564 73.6973874,75.8346774 C73.7733226,75.5859868 74.190966,74.5504979 73.3177116,74.2194881 C72.4444573,73.8884783 70.6272247,73.5903961 70.2430821,73.7636997 C69.8581951,73.9370033 67.3955136,80.2253233 67.3955136,80.2253233" id="Fill-52" fill="#FF3B88"></path>
                    </g>
                </g>
            </g>
            <rect id="Rectangle" x="0" y="0" width="230" height="170"></rect>
        </g>
    </g>
</svg>