<svg xmlns="http://www.w3.org/2000/svg" xmlns:xlink="http://www.w3.org/1999/xlink" width="115" height="69" viewBox="0 0 115 69">
    <defs>
        <path id="a" d="M19.435 6.457L1.555 39.372c-3.968 7.304.991 16.433 8.926 16.433h39.101c7.935 0 12.894-9.13 8.927-16.433L40.629 6.457C38.363 2.286 34.197.2 30.032.2c-4.166 0-8.33 2.086-10.597 6.257"/>
        <linearGradient id="b" x1="50%" x2="50%" y1="0%" y2="101.497%">
            <stop offset="0%" stop-color="#08AAFF"/>
            <stop offset="100%" stop-color="#3D2BB6"/>
        </linearGradient>
        <path id="d" d="M34.528.558c-1.511.44-2.974 1.145-4.413 2.033-2.157 1.33-4.26 3.072-6.387 4.95C16.994 13.487 10.01 20.805.232 20.808h38.51c5.833 0 10.032-4.994 10.16-10.508a9.942 9.942 0 0 0-.484-2.96 10.23 10.23 0 0 0-1.997-3.518 10.867 10.867 0 0 0-2.314-2.005 11.09 11.09 0 0 0-2.85-1.306 11.3 11.3 0 0 0-2.124-.413A11.597 11.597 0 0 0 38.02.044c-1.198 0-2.359.183-3.492.514"/>
        <linearGradient id="e" x1="50%" x2="50%" y1="-24.749%" y2="102.521%">
            <stop offset="0%" stop-color="#08AAFF"/>
            <stop offset="100%" stop-color="#3D2BB6"/>
        </linearGradient>
        <path id="g" d="M32.603.025H10.306C4.638.025 0 4.653 0 10.307v35.411C0 51.373 4.638 56 10.306 56h35.956v-.008h.017c2.013 0 3.865-1.25 4.475-3.164.65-2.035-.043-3.959-1.404-5.122 0-.008.008-.017.008-.026L37.145 35.496l-.377-.376C44.893 33.482 51 26.323 51 17.74 51 8.149 43.371.358 33.835.025 33.629.017 33.425 0 33.219 0c-.214 0-.41.017-.616.025"/>
        <linearGradient id="h" x1="30.337%" x2="72.41%" y1="1.626%" y2="116.591%">
            <stop offset="0%" stop-color="#08AAFF"/>
            <stop offset="100%" stop-color="#3D2BB6"/>
        </linearGradient>
        <path id="j" d="M.044 10.51c0 5.745 4.306 10.402 9.617 10.402.073 0 .166.005.248.007h8.651v-.008h.016c1.85 0 3.55-1.246 4.111-3.152.597-2.027-.04-3.944-1.29-5.102 0-.008.008-.017.008-.025L10.184.493 9.84.122C9.783.119 9.714.106 9.66.106 4.35.106.044 4.764.044 10.51"/>
        <linearGradient id="k" x1="122.496%" x2=".199%" y1="99.612%" y2="28.901%">
            <stop offset="0%" stop-color="#08AAFF"/>
            <stop offset="100%" stop-color="#3D2BB6"/>
        </linearGradient>
    </defs>
    <g fill="none" fill-rule="evenodd">
        <g>
            <mask id="c" fill="#fff">
                <use xlink:href="#a"/>
            </mask>
            <path fill="url(#b)" d="M19.435 6.457L1.555 39.372c-3.968 7.304.991 16.433 8.926 16.433h39.101c7.935 0 12.894-9.13 8.927-16.433L40.629 6.457C38.363 2.286 34.197.2 30.032.2c-4.166 0-8.33 2.086-10.597 6.257" mask="url(#c)"/>
        </g>
        <g transform="translate(12 35)">
            <mask id="f" fill="#fff">
                <use xlink:href="#d"/>
            </mask>
            <path fill="url(#e)" d="M34.528.558c-1.511.44-2.974 1.145-4.413 2.033-2.157 1.33-4.26 3.072-6.387 4.95C16.994 13.487 10.01 20.805.232 20.808h38.51c5.833 0 10.032-4.994 10.16-10.508a9.942 9.942 0 0 0-.484-2.96 10.23 10.23 0 0 0-1.997-3.518 10.867 10.867 0 0 0-2.314-2.005 11.09 11.09 0 0 0-2.85-1.306 11.3 11.3 0 0 0-2.124-.413A11.597 11.597 0 0 0 38.02.044c-1.198 0-2.359.183-3.492.514" mask="url(#f)"/>
        </g>
        <g transform="translate(64)">
            <mask id="i" fill="#fff">
                <use xlink:href="#g"/>
            </mask>
            <path fill="url(#h)" d="M32.603.025H10.306C4.638.025 0 4.653 0 10.307v35.411C0 51.373 4.638 56 10.306 56h35.956v-.008h.017c2.013 0 3.865-1.25 4.475-3.164.65-2.035-.043-3.959-1.404-5.122 0-.008.008-.017.008-.026L37.145 35.496l-.377-.376C44.893 33.482 51 26.323 51 17.74 51 8.149 43.371.358 33.835.025 33.629.017 33.425 0 33.219 0c-.214 0-.41.017-.616.025" mask="url(#i)"/>
        </g>
        <g transform="translate(92 35)">
            <mask id="l" fill="#fff">
                <use xlink:href="#j"/>
            </mask>
            <path fill="url(#k)" d="M.044 10.51c0 5.745 4.306 10.402 9.617 10.402.073 0 .166.005.248.007h8.651v-.008h.016c1.85 0 3.55-1.246 4.111-3.152.597-2.027-.04-3.944-1.29-5.102 0-.008.008-.017.008-.025L10.184.493 9.84.122C9.783.119 9.714.106 9.66.106 4.35.106.044 4.764.044 10.51" mask="url(#l)"/>
        </g>
        <g fill="#0058FF">
            <path d="M80.6 67.22c.044 0 .082.017.113.048l.265.292a4.41 4.41 0 0 1-.636.573c-.23.17-.48.314-.752.434s-.57.212-.895.278a5.416 5.416 0 0 1-1.07.098c-.65 0-1.245-.116-1.786-.35a3.96 3.96 0 0 1-1.392-.99 4.565 4.565 0 0 1-.904-1.548c-.217-.606-.325-1.28-.325-2.021 0-.728.112-1.392.335-1.994a4.554 4.554 0 0 1 .94-1.549 4.194 4.194 0 0 1 1.452-1.004 4.759 4.759 0 0 1 1.865-.355c.34 0 .652.026.935.077.282.053.546.127.792.224.245.098.475.219.692.363.216.145.428.312.636.502l-.205.305c-.036.054-.09.081-.166.081-.04 0-.09-.023-.152-.07-.062-.048-.14-.107-.236-.177a5.42 5.42 0 0 0-.344-.23 2.775 2.775 0 0 0-.48-.231 4 4 0 0 0-.643-.177 4.33 4.33 0 0 0-.829-.07c-.57 0-1.093.1-1.57.3a3.522 3.522 0 0 0-1.233.862 3.95 3.95 0 0 0-.805 1.356c-.192.532-.288 1.127-.288 1.787 0 .678.095 1.284.285 1.817.19.533.453.984.788 1.353.336.368.733.65 1.19.847.457.197.953.295 1.488.295.335 0 .635-.022.897-.067.263-.046.505-.113.726-.204.22-.09.426-.201.616-.332s.378-.285.563-.461a.47.47 0 0 1 .063-.044.14.14 0 0 1 .07-.017M87.339 65.35h4.201L89.625 60.5a3.721 3.721 0 0 1-.093-.26c-.03-.098-.062-.2-.092-.31-.032.11-.062.212-.093.31-.031.096-.062.186-.093.267l-1.915 4.841zm6.275 3.484h-.523a.226.226 0 0 1-.153-.05.338.338 0 0 1-.092-.133l-1.107-2.786h-4.606l-1.1 2.786a.29.29 0 0 1-.092.13.242.242 0 0 1-.16.053h-.516l3.837-9.594h.676l3.836 9.594zM103.222 66.448c.027-.072.054-.144.083-.214.029-.07.06-.137.096-.2l3.684-6.665c.036-.059.071-.095.107-.109a.414.414 0 0 1 .145-.02h.47v9.594h-.596v-8.177c0-.117.007-.242.02-.373l-3.69 6.706c-.063.118-.15.176-.266.176h-.106c-.11 0-.199-.058-.265-.176l-3.79-6.713c.013.132.02.258.02.38v8.177h-.59V59.24h.464c.062 0 .111.007.149.02.037.014.074.05.11.109l3.783 6.672c.066.126.124.262.172.407"/>
        </g>
    </g>
</svg>
